SplineFontDB: 1.0
FontName: CaslonRoman
FullName: CaslonRoman
FamilyName: Caslon
Weight: Roman
Copyright: The programs to draw the splines of this font are Copyright (C) 1992-2001 by George Williams.
Version: 001.000
ItalicAngle: 0
UnderlinePosition: -105
UnderlineWidth: 16
Ascent: 787
Descent: 213
NeedsXUIDChange: 1
FSType: 0
ScriptLang: 4
 1 latn 1 dflt 
 1 armn 1 dflt 
 1 hebr 1 dflt 
 1 DFLT 1 dflt 
Encoding: unicode
UnicodeInterp: none
DisplaySize: -36
AntiAlias: 1
FitToEm: 1
WinInfo: 0 16 4
BeginPrivate: 15
BlueValues 47 [-21.000 0.000 463.000 491.135 661.000 671.000]
OtherBlues 19 [-165.000 -146.046]
BlueScale 11 0.284342012
UniqueID 7 4190087
StdHW 8 [29.244]
StdVW 8 [56.301]
StemSnapH 15 [29.244 52.597]
StemSnapV 15 [29.464 56.301]
ForceBoldThreshold 2 .5
ForceBold 5 false
FontName 20 /CaslonRoman-Unicode
PaintType 1 0
FontType 1 0
LanguageLevel 1 2
FontMatrix 22 [1 0 0 1 0 0] readonly
EndPrivate
Grid
114 661 m 5
 344 661 l 5
-92 462 m 1
EndSplineSet
BeginChars: 65536 3683
StartChar: exclam
Encoding: 33 33 1
Width: 217
VStem: 102 20<166.044 178>
Fore
99 668 m 0
 105 680 118 681 124 668 c 0
 158 603 177 580 177 519 c 0
 177 384 122 312 122 177 c 0
 122 145 102 146 102 177 c 0
 102 312 47 384 47 519 c 0
 47 580 70 606 99 668 c 0
148 89 m 0
 208 49 148 -41 88 -1 c 0
 28 39 88 130 148 89 c 0
EndSplineSet
EndChar
StartChar: quotedbl
Encoding: 34 34 2
Width: 244
HStem: 641 20G<52 104 141 193>
Fore
193 661 m 1
 179 539 l 1
 155 539 l 1
 141 661 l 1
 193 661 l 1
104 661 m 1
 90 539 l 1
 66 539 l 1
 52 661 l 1
 104 661 l 1
EndSplineSet
EndChar
StartChar: numbersign
Encoding: 35 35 3
Width: 498
HStem: 213 30<0 108 143 277 312 416> 422 30<43 139 174 309 343 459> 422 203<169 309 338 459>
DStem: 108 213 138 213 83 43 113 43 139 422 169 422 113 243 143 243 170 625 200 625 144 452 174 452 277 213 307 213 252 43 282 43 309 422 339 422 282 243 312 243 339 625 369 625 313 452 343 452
Fore
459 422 m 1
 339 422 l 1
 312 243 l 1
 416 243 l 1
 416 213 l 1
 307 213 l 1
 282 43 l 1
 252 43 l 1
 277 213 l 1
 138 213 l 1
 113 43 l 1
 83 43 l 1
 108 213 l 1
 0 213 l 1
 0 243 l 1
 113 243 l 1
 139 422 l 1
 43 422 l 1
 43 452 l 1
 144 452 l 1
 170 625 l 1
 200 625 l 1
 174 452 l 1
 313 452 l 1
 339 625 l 1
 369 625 l 1
 343 452 l 1
 459 452 l 1
 459 422 l 1
309 422 m 1
 169 422 l 1
 143 243 l 1
 282 243 l 1
 309 422 l 1
EndSplineSet
EndChar
StartChar: dollar
Encoding: 36 36 4
Width: 573
HStem: -26 20G<229.5 244.5>
VStem: 53 47<486 517> 449 67<155 181>
DStem: 139 -10 165 -15 125 -93 151 -94 240 615 266 613 207 412 232 407 251 -19 278 -17 238 -93 265 -94 349 587 370 560 315 383 341 376
Fore
207 412 m 2
 240 615 l 1
 243 630 234 630 226 630 c 0
 158 630 100 568 100 517 c 0
 100 462 140 423 190 404 c 0
 197 402 206 405 207 412 c 2
315 383 m 1
 349 587 l 2
 351 598 347 606 341 609 c 0
 320 619 303 624 284 627 c 0
 273 628 268 622 266 613 c 1
 232 407 l 1
 231 397 238 389 243 387 c 0
 297 372 l 0
 301 371 314 371 315 383 c 1
258 35 m 0
 270 109 288 206 300 275 c 0
 301 283 297 292 292 293 c 0
 273 297 253 302 234 308 c 0
 228 309 217 304 214 285 c 1
 176 63 l 1
 173 48 170 53 182 47 c 0
 205 37 225 30 246 25 c 0
 252 24 257 27 258 35 c 0
325 267 m 1
 284 32 l 2
 283 26 284 19 294 19 c 0
 302 18 310 18 318 18 c 0
 387 18 449 86 449 155 c 0
 449 216 402 261 345 279 c 0
 334 282 325 273 325 267 c 1
364 680 m 1
 367 702 393 699 390 681 c 2
 386 655 l 1
 385 650 388 646 393 644 c 0
 418 637 442 626 468 610 c 0
 483 601 492 589 492 572 c 0
 492 559 478 543 464 543 c 0
 440 543 416 566 389 582 c 0
 383 586 373 574 370 560 c 1
 341 376 l 1
 339 365 347 357 354 354 c 0
 440 325 516 285 516 181 c 0
 516 76 409 5 290 -4 c 0
 281 -5 279 -10 278 -17 c 1
 265 -94 l 2
 262 -112 234 -114 238 -93 c 1
 251 -19 l 2
 252 -13 249 -6 240 -6 c 0
 219 -6 199 -6 179 -4 c 0
 169 -3 166 -8 165 -15 c 1
 151 -94 l 2
 148 -112 121 -114 125 -93 c 1
 139 -10 l 1
 140 -3 137 4 131 5 c 0
 95 13 66 25 34 52 c 0
 25 60 19 74 19 88 c 0
 19 102 32 121 50 121 c 0
 65 121 77 101 98 89 c 0
 112 82 127 75 139 69 c 0
 145 65 150 68 151 75 c 0
 163 144 181 238 191 304 c 0
 193 314 189 322 183 324 c 0
 111 352 53 389 53 486 c 0
 53 575 151 644 237 655 c 0
 243 656 247 658 248 665 c 1
 251 680 l 1
 254 702 280 699 277 681 c 1
 275 665 l 1
 274 661 277 657 281 657 c 0
 305 657 327 656 348 653 c 0
 355 652 360 655 360 660 c 1
 364 680 l 1
EndSplineSet
EndChar
StartChar: percent
Encoding: 37 37 5
Width: 1017
HStem: -5 14<702.243 718> 282 13<222.243 238> 400 17<702.243 718> 687 17<222.243 238>
VStem: 26 66<486 504> 377 66<486 504> 506 66<198 216> 857 66<198 216>
DStem: 731 710 758 693 192 3 214 -14
Fore
192 3 m 0
 403 278 560 483 731 710 c 0
 747 730 778 719 758 693 c 0
 548 416 430 261 214 -14 c 0
 195 -37 175 -19 192 3 c 0
572 204 m 0
 572 96 647 9 715 9 c 0
 783 9 857 96 857 204 c 0
 857 312 783 400 715 400 c 0
 647 400 572 312 572 204 c 0
506 206 m 0
 506 323 600 417 715 417 c 0
 830 417 923 323 923 206 c 0
 923 89 830 -5 715 -5 c 0
 600 -5 506 89 506 206 c 0
92 491 m 0
 92 383 167 295 235 295 c 0
 303 295 377 383 377 491 c 0
 377 599 303 687 235 687 c 0
 167 687 92 599 92 491 c 0
26 493 m 0
 26 609 120 704 235 704 c 0
 350 704 443 609 443 493 c 0
 443 376 350 282 235 282 c 0
 120 282 26 376 26 493 c 0
EndSplineSet
EndChar
StartChar: ampersand
Encoding: 38 38 6
Width: 900
HStem: 0 56<232 300> 353 24<500 515.555 500 565> 648 23<316 336>
VStem: 53 61<205 230> 204 54<524 566> 399 40<543 566>
Fore
328 454 m 0
 365 474 399 503 399 550 c 0
 399 601 376 648 324 648 c 0
 296 648 258 607 258 566 c 0
 258 526 266 492 300 461 c 0
 312 450 317 448 328 454 c 0
464 140 m 0
 457 153 453 163 446 177 c 0
 426 214 407 233 385 266 c 0
 352 315 306 355 272 390 c 0
 262 400 258 398 248 395 c 0
 164 366 114 316 114 230 c 0
 114 130 181 57 300 56 c 0
 349 55 405 83 461 116 c 0
 470 121 471 129 464 140 c 0
763 112 m 0
 770 123 772 136 781 136 c 0
 788 136 791 133 786 112 c 0
 770 50 747 -13 642 -9 c 0
 574 -6 526 38 488 97 c 1
 483 103 480 102 473 97 c 0
 390 40 321 0 232 0 c 0
 165 0 53 87 53 205 c 0
 53 319 160 397 230 412 c 0
 242 415 245 421 239 430 c 0
 221 462 204 488 204 524 c 0
 204 613 277 671 325 671 c 0
 401 671 439 624 439 545 c 0
 439 501 395 462 344 437 c 0
 333 432 335 421 341 415 c 0
 357 399 389 368 404 350 c 0
 437 312 455 290 483 248 c 0
 496 229 509 206 521 186 c 0
 526 178 530 175 538 183 c 0
 573 220 594 258 592 283 c 0
 589 328 545 353 500 353 c 0
 481 353 468 376 500 377 c 0
 565 378 701 380 776 377 c 0
 800 376 796 360 777 356 c 0
 746 351 711 324 678 292 c 0
 635 250 593 206 549 168 c 0
 543 162 541 153 545 147 c 0
 576 98 613 48 665 50 c 0
 709 52 746 83 763 112 c 0
EndSplineSet
EndChar
StartChar: quotesingle
Encoding: 39 39 7
Width: 220
Fore
151 543 m 1
 134 498 97 464 49 454 c 1
 36 469 l 1
 59 475 95 509 78 532 c 1
 37 557 51 635 112 631 c 0
 162 628 173 573 151 543 c 1
EndSplineSet
EndChar
StartChar: parenleft
Encoding: 40 40 8
Width: 354
VStem: 19 76<243 273>
Fore
244 646 m 0
 118 504 95 401 95 243 c 0
 95 85 118 -18 244 -160 c 0
 277 -197 272 -203 232 -172 c 0
 127 -92 19 56 19 243 c 0
 19 429 127 577 232 658 c 0
 272 688 277 683 244 646 c 0
EndSplineSet
EndChar
StartChar: parenright
Encoding: 41 41 9
Width: 354
VStem: 189 76<243 273>
Fore
40 646 m 0
 7 683 12 688 52 658 c 0
 157 577 265 429 265 243 c 0
 265 56 157 -92 52 -172 c 0
 12 -203 7 -197 40 -160 c 0
 166 -18 189 85 189 243 c 0
 189 401 166 504 40 646 c 0
EndSplineSet
EndChar
StartChar: asterisk
Encoding: 42 42 10
Width: 462
HStem: 450 20G<215 235>
VStem: 199 42<174 195.734> 199 56<167 177 399 425> 212 29<256.352 271.969>
Fore
389 388 m 0
 399 371 393 360 355 338 c 0
 314 314 281 312 255 296 c 1
 284 279 314 276 351 255 c 0
 388 234 395 218 385 201 c 0
 376 185 363 184 325 205 c 0
 284 229 268 257 241 272 c 1
 241 238 255 219 255 177 c 0
 255 134 243 120 225 120 c 0
 207 120 199 131 199 174 c 0
 199 222 213 241 212 272 c 1
 185 257 166 229 125 205 c 0
 87 184 74 185 65 201 c 0
 55 219 62 234 99 255 c 0
 136 276 168 278 197 295 c 1
 171 311 141 311 100 335 c 0
 62 357 56 371 66 388 c 0
 74 402 93 407 130 385 c 0
 167 364 184 338 213 321 c 1
 214 352 199 368 199 416 c 0
 199 459 205 470 225 470 c 0
 245 470 255 456 255 413 c 0
 255 371 241 354 241 320 c 1
 270 337 288 364 325 385 c 0
 362 407 380 404 389 388 c 0
EndSplineSet
EndChar
StartChar: plus
Encoding: 43 43 11
Width: 354
HStem: 260 33<33 156 189 312>
VStem: 156 33<135 260 293 413>
Fore
312 260 m 1
 189 260 l 1
 189 135 l 1
 156 135 l 1
 156 260 l 1
 33 260 l 1
 33 293 l 1
 156 293 l 1
 156 413 l 1
 189 413 l 1
 189 293 l 1
 312 293 l 1
 312 260 l 1
EndSplineSet
EndChar
StartChar: comma
Encoding: 44 44 12
Width: 220
Fore
146 5 m 1
 133 -41 90 -76 44 -85 c 1
 31 -69 l 1
 54 -63 90 -29 73 -6 c 1
 32 19 46 96 107 92 c 0
 157 89 169 35 146 5 c 1
EndSplineSet
EndChar
StartChar: hyphen
Encoding: 45 45 13
Width: 391
HStem: 209 45<33 252>
Fore
252 209 m 1
 33 209 l 1
 33 254 l 1
 252 254 l 1
 252 209 l 1
EndSplineSet
EndChar
StartChar: period
Encoding: 46 46 14
Width: 220
Fore
138 94 m 0
 198 54 138 -36 78 4 c 0
 18 44 78 135 138 94 c 0
EndSplineSet
EndChar
StartChar: slash
Encoding: 47 47 15
Width: 536
HStem: -20 21G<85 130>
DStem: 415 615 460 615 85 -20 130 -20
Fore
460 615 m 1
 130 -20 l 1
 85 -20 l 1
 415 615 l 1
 460 615 l 1
EndSplineSet
EndChar
StartChar: zero
Encoding: 48 48 16
Width: 530
Flags: W
HStem: 0 19<232.441 247> 562 19<232.441 247>
Fore
245.416 0 m 0
 -31.584 0 -31.584 581 245.416 581 c 0
 526.416 581 522.416 0 245.416 0 c 0
245.416 19 m 0
 424.416 19 424.416 562 245.416 562 c 4
 67.416 562 67.416 19 245.416 19 c 0
EndSplineSet
EndChar
StartChar: one
Encoding: 49 49 17
Width: 530
Flags: W
HStem: 0 16<110 310>
VStem: 182 55<43 529>
Fore
310 0 m 1
 110 0 l 1
 110 16 l 1
 157 16 l 2
 172 16 182 29 182 43 c 2
 182 529 l 1
 142 529 l 1
 142 547 l 1
 237 581 l 1
 237 43 l 2
 237 30 250 16 263 16 c 2
 310 16 l 1
 310 0 l 1
EndSplineSet
EndChar
StartChar: two
Encoding: 50 50 18
Width: 530
Flags: W
HStem: 0 80<105 361>
DStem: 366.667 118 384.667 118 356.667 80 361.667 0
Fore
384.667 118 m 1
 361.667 0 l 1
 76.667 0 l 1
 76.667 40 l 2
 76.667 177 281.667 278 289.667 439 c 0
 291.667 492 253.667 536 196.667 539 c 0
 134.667 543 94.667 489 83.667 434 c 1
 72.667 434 l 1
 78.667 515 138.667 584 224.667 581 c 0
 294.667 579 368.667 547 369.667 462 c 0
 371.667 310 159.667 205 124.667 124 c 0
 110.667 90 112.667 97 105.667 80 c 1
 356.667 80 l 1
 366.667 118 l 1
 384.667 118 l 1
EndSplineSet
EndChar
StartChar: three
Encoding: 51 51 19
Width: 530
Flags: W
Fore
321.113 143 m 0
 326.113 224 233.113 299 182.113 299 c 2
 159.113 299 l 1
 159.113 328 l 1
 174.113 331 181.113 333 194.113 340 c 0
 241.113 365 264.113 409 259.113 462 c 0
 249.113 570 90.1133 549 90.1133 457 c 1
 77.1133 457 l 1
 77.1133 537 150.113 578 224.113 575 c 0
 343.113 570 363.113 447 292.113 389 c 0
 281.113 380 276.113 373 263.113 367 c 1
 265.113 354 l 1
 270.113 350 271.113 345 277.113 343 c 0
 448.113 277 443.113 8 186.113 0 c 0
 125.113 -2 64.1133 43 68.1133 104 c 0
 73.1133 181 170.113 178 167.113 113 c 0
 166.113 82 149.113 65 118.113 70 c 1
 128.113 51 138.113 43 155.113 30 c 0
 194.113 -1 314.113 39 321.113 143 c 0
EndSplineSet
EndChar
StartChar: four
Encoding: 52 52 20
Width: 530
Flags: W
HStem: 0 21G<353 412> 109 61<117 353 412 470>
VStem: 353 59<0 109 170 581>
DStem: 377 581 353 494 30 109 117 170
Fore
470 109 m 1
 412 109 l 1
 412 0 l 1
 353 0 l 1
 353 109 l 1
 30 109 l 1
 377 581 l 1
 412 581 l 1
 412 170 l 1
 470 170 l 1
 470 109 l 1
353 170 m 1
 353 494 l 1
 117 170 l 1
 353 170 l 1
EndSplineSet
EndChar
StartChar: five
Encoding: 53 53 21
Width: 530
Flags: W
HStem: 515 65<92 348>
Fore
397.282 172 m 0
 393.282 70 305.282 -21 193.282 -10 c 0
 131.282 -4 65.2822 37 66.2822 93 c 0
 66.2822 138 99.2822 157 132.282 153 c 0
 155.282 150 168.282 126 166.282 102 c 0
 163.282 75 140.282 60 115.282 60 c 1
 135.282 35 159.282 25 190.282 22 c 0
 271.282 13 341.282 84 341.282 165 c 0
 341.282 289 183.282 328 92.2822 276 c 1
 92.2822 580 l 1
 300.282 580 l 2
 312.282 580 336.282 581 343.282 594 c 2
 348.282 603 l 1
 355.282 603 l 1
 348.282 515 l 1
 127.282 515 l 1
 127.282 343 l 1
 253.282 408 403.282 322 397.282 172 c 0
EndSplineSet
EndChar
StartChar: six
Encoding: 54 54 22
Width: 530
Flags: W
HStem: 0 17<238 247> 356 20<238 247>
Fore
263.285 581 m 1
 260.285 569 l 1
 206.285 524 173.285 481 149.285 413 c 0
 136.285 375 130.285 349 130.285 311 c 1
 157.285 350 194.285 376 238.285 376 c 0
 486.285 373 475.285 -1 238.285 0 c 0
 -23.7148 1 30.2852 397 181.285 528 c 0
 209.285 552 228.285 565 263.285 581 c 1
238.285 17 m 0
 382.285 17 388.285 354 238.285 356 c 0
 86.2852 358 95.2852 17 238.285 17 c 0
EndSplineSet
EndChar
StartChar: seven
Encoding: 55 55 23
Width: 530
Flags: W
HStem: 0 21G<153.333 227.333> 513 68<68 325>
Fore
393.333 581 m 1
 227.333 0 l 1
 153.333 0 l 1
 338.333 513 l 1
 144.333 513 l 2
 110.333 513 83.333 518 83.333 480 c 2
 83.333 449 l 1
 68.333 461 l 1
 68.333 581 l 1
 393.333 581 l 1
EndSplineSet
EndChar
StartChar: eight
Encoding: 56 56 24
Width: 530
Flags: W
HStem: -3 20<236 241>
Fore
401.312 172 m 0
 405.312 78 329.312 -3 236.312 -3 c 0
 129.312 -3 62.3125 63 64.3125 161 c 0
 65.3125 236 112.312 273 165.312 305 c 1
 123.312 339 90.3125 380 88.3125 441 c 0
 86.3125 520 154.312 583 236.312 583 c 0
 311.312 583 361.312 540 363.312 476 c 0
 365.312 402 314.312 365 256.312 332 c 1
 325.312 291 398.312 251 401.312 172 c 0
319.312 483 m 0
 317.312 528 281.312 564 236.312 566 c 0
 183.312 569 140.312 522 142.312 469 c 0
 144.312 413 185.312 378 235.312 346 c 1
 283.312 376 321.312 413 319.312 483 c 0
343.312 145 m 0
 341.312 208 255.312 240 185.312 291 c 1
 145.312 264 114.312 231 114.312 180 c 0
 114.312 118 129.312 17 236.312 17 c 0
 295.312 17 345.312 69 343.312 145 c 0
EndSplineSet
EndChar
StartChar: nine
Encoding: 57 57 25
Width: 530
Flags: W
HStem: 196 20<236 247> 555 17<236 247>
Fore
344.807 261 m 1
 317.807 222 280.807 196 236.807 196 c 0
 -11.1934 199 -0.193359 573 236.807 572 c 0
 498.807 571 444.807 175 293.807 44 c 0
 265.807 20 246.807 7 211.807 -9 c 1
 214.807 3 l 1
 268.807 48 301.807 91 325.807 159 c 0
 338.807 197 344.807 223 344.807 261 c 1
236.807 216 m 0
 388.807 214 379.807 555 236.807 555 c 0
 92.8066 555 86.8066 218 236.807 216 c 0
EndSplineSet
EndChar
StartChar: less
Encoding: 60 60 28
Width: 591
DStem: 43 262 128 270 457 87 457 136 457 457 457 409 43 292 128 282
Fore
457 87 m 1
 43 262 l 1
 43 292 l 1
 457 457 l 1
 457 409 l 1
 128 282 l 1
 128 270 l 1
 457 136 l 1
 457 87 l 1
EndSplineSet
EndChar
StartChar: equal
Encoding: 61 61 29
Width: 392
HStem: 213 33<33 312> 321 33<33 312>
Fore
312 321 m 1
 33 321 l 1
 33 354 l 1
 312 354 l 1
 312 321 l 1
312 213 m 1
 33 213 l 1
 33 246 l 1
 312 246 l 1
 312 213 l 1
EndSplineSet
EndChar
StartChar: greater
Encoding: 62 62 30
Width: 586
DStem: 80 409 80 457 409 282 494 292 409 270 494 262 80 136 80 87
Fore
80 87 m 1
 80 136 l 1
 409 270 l 1
 409 282 l 1
 80 409 l 1
 80 457 l 1
 494 292 l 1
 494 262 l 1
 80 87 l 1
EndSplineSet
EndChar
StartChar: question
Encoding: 63 63 31
Width: 419
HStem: 595 111<99 142>
VStem: 312 21<543 563>
Fore
159 343 m 0
 149 271 148 258 136 182 c 0
 133 162 115 163 113 183 c 0
 107 251 100 301 92 379 c 0
 88 407 79 445 106 450 c 0
 196 467 312 476 312 563 c 0
 312 614 265 639 220 639 c 0
 170 639 137 595 99 595 c 0
 74 595 55 616 55 640 c 0
 55 683 100 706 142 706 c 0
 235 706 333 641 333 543 c 0
 334 456 254 404 186 377 c 0
 170 370 161 360 159 343 c 0
152 94 m 0
 212 54 152 -36 92 4 c 0
 32 44 92 135 152 94 c 0
EndSplineSet
EndChar
StartChar: at
Encoding: 64 64 32
Width: 808
HStem: -9 42<425 455> 166 52<378 401> 182 36<585 592> 519 56<379 400> 699 38<416 431>
VStem: 30 52<326 377> 198 86<356 377> 453 82<263 485> 685 37<354 392>
Fore
709 128 m 1
 631 32 552 -9 425 -9 c 0
 140.018 -9 30 174.322 30 354 c 0
 30 566 180.882 737 416 737 c 0
 604.066 737 722 582 722 374 c 0
 722 287.53 666 182 590 182 c 0
 546 182 510 212 494 259 c 1
 473 224 453.031 166 388 166 c 0
 248.906 166 198 258.741 198 356 c 0
 198 464 276.418 575 400 575 c 0
 433.061 575 474 547 487 524 c 1
 535 550 l 1
 535 277 l 2
 535 243 550 218 587 218 c 0
 634 218 685 298 685 373 c 0
 685 553 574 699 416 699 c 0
 212 699 82 538 82 352 c 0
 82 188 180 33 425 33 c 0
 514 33 573 52 643 109 c 1
 709 128 l 1
453 264 m 1
 453 485 l 1
 428 506 411.064 519 380 519 c 0
 317.73 519 284 434 284 356 c 0
 284 285.11 318.74 218 391 218 c 0
 421.067 218 434 241 453 264 c 1
EndSplineSet
EndChar
StartChar: A
Encoding: 65 65 33
Width: 732
HStem: 0 25<37 258 482 684> 320 22<269 451>
DStem: 353 609 365 575 137 83 269 342 353 609 261 320 137 83 173 105 451 320 382 686 543 55 604 65
Fore
684 0 m 1
 482 0 l 1
 482 25 l 1
 523 25 l 6
 538 25 548 41 543 55 c 6
 451 320 l 1
 261 320 l 1
 173 105 l 6
 160 73 182 25 220 25 c 6
 258 25 l 1
 258 0 l 1
 37 0 l 1
 37 25 l 1
 72 25 l 2
 100 25 127 59 137 83 c 2
 353 609 l 1
 339 647 l 1
 382 686 l 1
 604 65 l 2
 612 42 644 25 667 25 c 2
 684 25 l 1
 684 0 l 1
444 342 m 1
 365 575 l 1
 269 342 l 1
 444 342 l 1
EndSplineSet
MinimumDistance: x13,8 x3,19 
EndChar
StartChar: B
Encoding: 66 66 34
Width: 553
HStem: 0 24<22 281> 0 30<197 283> 361 27<165 309> 631 30<22 317> 637 24<22 77>
VStem: 110 55<61 361 61 593> 412 48<535 545> 432 52<204 222>
Fore
484 220 m 0
 484 104 397 0 281 0 c 2
 22 0 l 1
 22 24 l 1
 75 24 l 2
 93 24 110 44 110 61 c 2
 110 600 l 2
 110 617 93 637 75 637 c 2
 22 637 l 1
 22 661 l 1
 315 661 l 2
 402 661 460 630 460 535 c 4
 460 462 427 412 376 382 c 1
 446 357 484 300.025 484 220 c 0
412 535 m 0
 412 593 366 631 310 631 c 2
 202 631 l 2
 176 631 165 603 165 581 c 2
 165 388 l 1
 277 388 l 2
 355 388 412 456 412 535 c 0
432 206 m 0
 432 279 381 361 309 361 c 2
 165 361 l 1
 165 80 l 2
 165 56 173 30 202 30 c 2
 274 30 l 2
 367 30 432 135 432 206 c 0
EndSplineSet
EndChar
StartChar: C
Encoding: 67 67 35
Width: 601
HStem: -2 19<281 304> 46 -29<291 463> 665 14<297 317>
VStem: 42 64<301 351>
Fore
558 228 m 1
 515 9 l 1
 495 9 l 1
 495 30 482 46 463 46 c 0
 410 46 365.028 -2 304 -2 c 0
 80 -2 42 184 42 323 c 0
 42 464 106 679 315 679 c 0
 417.005 679 434 621 463 621 c 0
 485.204 621 504 644 511 665 c 1
 523 665 l 1
 534 446 l 1
 520 446 l 1
 495 540 422 665 312 665 c 0
 187 665 106 500 106 336 c 4
 106 191.986 156 17 291 17 c 4
 363 17 453 65 504 143 c 0
 524 174 534 193 544 228 c 1
 558 228 l 1
EndSplineSet
EndChar
StartChar: D
Encoding: 68 68 36
Width: 650
HStem: 0 24<23 279> 0 30<198 300> 631 30<23 346> 637 24<23 78>
VStem: 111 55<61 583> 558 61<335 369>
Fore
619 347 m 0
 619 171.997 475 0 279 0 c 2
 23 0 l 1
 23 24 l 1
 76 24 l 2
 94 24 111 44 111 61 c 2
 111 600 l 2
 111 617 94 637 76 637 c 2
 23 637 l 1
 23 661 l 1
 379 661 l 2
 559 661 619 486 619 347 c 0
346 631 m 1
 203 631 l 2
 178 631 166 602 166 581 c 2
 166 80 l 2
 166 59 178 30 203 30 c 2
 297 30 l 2
 454.668 30 558 179.983 558 343 c 16
 558 488 485.425 624.919 346 631 c 1
EndSplineSet
EndChar
StartChar: E
Encoding: 69 69 37
Width: 584
HStem: 0 24<22 478> 0 30<197 478> 352 24<165 267> 468 20G<364 382> 631 30<22 343> 637 24<22 77>
VStem: 110 55<61 352 61 593> 364 18<234 488>
Fore
530 196 m 1
 478 0 l 1
 22 0 l 1
 22 24 l 1
 75 24 l 2
 93 24 110 44 110 61 c 2
 110 600 l 2
 110 617 93 637 75 637 c 2
 22 637 l 1
 22 661 l 1
 486 661 l 1
 530 461 l 1
 510 461 l 1
 497 491 l 2
 463 569 423 631 331 631 c 2
 203 631 l 2
 177 631 165 604 165 581 c 2
 165 376 l 1
 265 376 l 2
 313 376 364 421 364 470 c 2
 364 488 l 1
 382 488 l 1
 382 234 l 1
 364 234 l 1
 364 252 l 2
 364 303 316 352 265 352 c 2
 165 352 l 1
 165 80 l 2
 165 57 177 30 203 30 c 2
 331 30 l 2
 418 30 465 89 497 165 c 2
 510 196 l 1
 530 196 l 1
EndSplineSet
EndChar
StartChar: F
Encoding: 70 70 38
Width: 556
HStem: 0 24<24 255> 348 25<167 266> 468 20G<363 381> 470 21G<476 491> 627 34<24 345> 637 24<24 79>
VStem: 113 54<61 348 61 578> 363 18<234 488>
Fore
491 470 m 1
 476 470 l 1
 469 502 l 2
 453 576 406 627 330 627 c 2
 205 627 l 2
 179 627 167 598 167 576 c 2
 167 373 l 1
 264 373 l 2
 313 373 363 420 363 470 c 2
 363 488 l 1
 381 488 l 1
 381 234 l 1
 363 234 l 1
 363 252 l 2
 363 301 315 348 264 348 c 2
 167 348 l 1
 167 61 l 2
 167 43 184 24 202 24 c 2
 255 24 l 1
 255 0 l 1
 24 0 l 1
 24 24 l 1
 77 24 l 2
 95 24 113 43 113 61 c 2
 113 600 l 2
 113 618 95 637 77 637 c 2
 24 637 l 1
 24 661 l 1
 470 661 l 1
 491 470 l 1
EndSplineSet
EndChar
StartChar: G
Encoding: 71 71 39
Width: 610
HStem: -6 19<302 328> 339 18<397 430 397 591> 645 19<278 306>
VStem: 39 57<313 347> 461 55<90 299>
Fore
591 339 m 1
 546 339 l 2
 523 339 516 313 516 295 c 2
 516 68 l 1
 491 82 l 1
 444 24 378.014 -6 304 -6 c 4
 136 -6 39 164.997 39 332 c 0
 39 500 145.97 664 296 664 c 0
 368 664 408 645 459 598 c 1
 502 658 l 1
 525 658 l 1
 538 440 l 1
 524 440 l 1
 496 542 408 645 291 645 c 0
 166.597 645 96 458 96 324 c 0
 96 179.986 170 13 320 13 c 0
 380.033 13 428 42 461 91 c 1
 461 295 l 2
 461 316 454 339 428 339 c 2
 397 339 l 1
 397 357 l 1
 591 357 l 1
 591 339 l 1
EndSplineSet
EndChar
StartChar: H
Encoding: 72 72 40
Width: 695
HStem: 0 24<45 275 417 648> 336 21<188 505> 637 24<45 100 45 275 417 478 417 648>
VStem: 133 55<61 336 61 602> 505 55<61 336 357 602>
Fore
648 0 m 1
 417 0 l 1
 417 24 l 1
 470 24 l 2
 488 24 505 44 505 61 c 2
 505 336 l 1
 188 336 l 1
 188 61 l 2
 188 42 204 24 223 24 c 2
 275 24 l 1
 275 0 l 1
 45 0 l 1
 45 24 l 1
 98 24 l 2
 116 24 133 44 133 61 c 2
 133 600 l 2
 133 617 116 637 98 637 c 2
 45 637 l 1
 45 661 l 1
 275 661 l 1
 275 637 l 1
 223 637 l 2
 204 637 188 619 188 600 c 2
 188 357 l 1
 505 357 l 1
 505 600 l 2
 505 617 488 637 470 637 c 2
 417 637 l 1
 417 661 l 1
 648 661 l 1
 648 637 l 1
 595 637 l 2
 576 637 560 619 560 600 c 2
 560 61 l 2
 560 42 576 24 595 24 c 2
 648 24 l 1
 648 0 l 1
EndSplineSet
EndChar
StartChar: I
Encoding: 73 73 41
Width: 297
HStem: 0 24<45 275> 637 24<45 100 45 275>
VStem: 133 55<61 602>
Fore
275 0 m 1
 45 0 l 1
 45 24 l 1
 98 24 l 2
 116 24 133 44 133 61 c 2
 133 600 l 2
 133 617 116 637 98 637 c 2
 45 637 l 1
 45 661 l 1
 275 661 l 1
 275 637 l 1
 223 637 l 2
 204 637 188 619 188 600 c 2
 188 61 l 2
 188 42 204 24 223 24 c 2
 275 24 l 1
 275 0 l 1
EndSplineSet
EndChar
StartChar: J
Encoding: 74 74 42
Width: 327
HStem: -106 17<90 110> -106 119<56 94> 637 24<92 147 92 323>
VStem: 13 86<-43 -28> 180 55<71 603>
Fore
323 637 m 1
 270 637 l 2
 251 637 235 619 235 600 c 2
 235 133 l 2
 235 39 212 -106 94 -106 c 0
 46 -106 13 -84 13 -36 c 0
 13 -12 31 13 56 13 c 0
 83 13 99 -12 99 -30 c 0
 99 -59 86 -74 63 -80 c 1
 70 -86 87.7373 -89 105 -89 c 0
 150 -89 180 11 180 71 c 2
 180 600 l 2
 180 617 163 637 145 637 c 2
 92 637 l 1
 92 661 l 1
 323 661 l 1
 323 637 l 1
EndSplineSet
EndChar
StartChar: K
Encoding: 75 75 43
Width: 662
HStem: 0 24<39 269 424 619> 637 24<39 93 39 269 354 380>
VStem: 127 55<61 280 61 604>
DStem: 262 360 303 402 460 65 530 63 378 514 262 360 182 308 182 280
Fore
619 0 m 1
 424 0 l 1
 424 25 l 1
 454 25 l 6
 479 25 468 52 460 65 c 5
 262 360 l 1
 182 280 l 1
 182 61 l 2
 182 43 197 24 216 24 c 2
 269 24 l 1
 269 0 l 1
 39 0 l 1
 39 24 l 1
 91 24 l 2
 110 24 127 43 127 61 c 2
 127 600 l 2
 127 618 110 637 91 637 c 2
 39 637 l 1
 39 661 l 1
 269 661 l 1
 269 637 l 1
 216 637 l 2
 197 637 182 618 182 600 c 2
 182 308 l 1
 378 514 l 6
 410 548 466 636 373 636 c 6
 354 636 l 1
 354 661 l 1
 596 661 l 1
 596 636 l 1
 476 610 383 489 303 402 c 1
 530 63 l 2
 538 51 566 25 582 25 c 2
 619 25 l 1
 619 0 l 1
EndSplineSet
MinimumDistance: x3,32 
EndChar
StartChar: L
Encoding: 76 76 44
Width: 567
HStem: 0 24<28 483> 637 24<28 83 28 259>
VStem: 117 55<63 602>
Fore
533 179 m 1
 483 0 l 1
 28 0 l 1
 28 24 l 1
 81 24 l 2
 109 24 117 53 117 76 c 2
 117 600 l 2
 117 618 99 637 81 637 c 2
 28 637 l 1
 28 661 l 1
 259 661 l 1
 259 637 l 1
 206 637 l 2
 187 637 172 618 172 600 c 2
 172 73 l 2
 172 50 184 23 210 23 c 2
 330 23 l 2
 416 23 495 99 518 179 c 1
 533 179 l 1
EndSplineSet
EndChar
StartChar: M
Encoding: 77 77 45
Width: 867
HStem: 0 25<45 280 583 814> 637 24<70 125 680 814>
VStem: 158 20<117 593> 672 55<61 607>
DStem: 178 594 215 661 412 0 451 62 680 661 672 607 451 62 441 0
Fore
814 0 m 1
 583 0 l 1
 583 24 l 1
 636 24 l 2
 654 24 672 43 672 61 c 2
 672 607 l 1
 441 0 l 1
 412 0 l 1
 178 594 l 1
 178 117 l 2
 178 81 199 25 243 25 c 2
 280 25 l 1
 280 0 l 1
 45 0 l 1
 45 25 l 1
 94 25 l 2
 137 25 158 82 158 117 c 2
 158 600 l 2
 158 617 141 637 123 637 c 2
 70 637 l 1
 70 661 l 1
 215 661 l 1
 451 62 l 1
 680 661 l 1
 814 661 l 1
 814 637 l 1
 761 637 l 2
 742 637 727 618 727 600 c 2
 727 61 l 2
 727 43 742 24 761 24 c 2
 814 24 l 1
 814 0 l 1
EndSplineSet
EndChar
StartChar: N
Encoding: 78 78 46
Width: 730
HStem: 0 25<43 279> 637 24<69 123 478 713>
VStem: 157 19<117 598> 580 20<80 546>
DStem: 176 598 197 661 564 0 580 80
Fore
713 636 m 1
 665 636 l 2
 620 636 600 581 600 544 c 2
 600 0 l 1
 564 0 l 1
 176 598 l 1
 176 117 l 2
 176 82 198 25 241 25 c 2
 279 25 l 1
 279 0 l 1
 43 0 l 1
 43 25 l 1
 92 25 l 2
 135 25 157 82 157 117 c 2
 157 600 l 2
 157 618 139 637 121 637 c 2
 69 637 l 1
 69 661 l 1
 197 661 l 1
 580 80 l 1
 580 544 l 2
 580 581 562 636 516 636 c 2
 478 636 l 1
 478 661 l 1
 713 661 l 1
 713 636 l 1
EndSplineSet
EndChar
StartChar: O
Encoding: 79 79 47
Width: 710
HStem: -21 21<344 378> 650 21<344 378>
VStem: 57 63<314 348> 597 63<314 348>
Fore
359 -21 m 0
 156 -21 57 162 57 329 c 0
 57 501.003 159 671 358 671 c 0
 558 671 660 502 660 331 c 0
 660 156 564 -21 359 -21 c 0
358 0 m 0
 518 -0 597 163.997 597 327 c 0
 597 484 518 650 359 650 c 0
 200 650 120 488 120 325 c 0
 120 163 199 0 358 0 c 0
EndSplineSet
EndChar
StartChar: P
Encoding: 80 80 48
Width: 491
HStem: 0 24<30 260> 367 18<173 287> 638 23<30 287> 644 17<30 85>
VStem: 118 55<61 367 61 638>
Fore
443.667 524.333 m 8
 443.667 433.811 369.798 367 281 367 c 2
 173 367 l 1
 173 61 l 2
 173 42 189 24 208 24 c 2
 260 24 l 1
 260 0 l 1
 30 0 l 1
 30 24 l 1
 83 24 l 2
 101 24 118 44 118 61 c 2
 118 606 l 2
 118 624 102 644 83 644 c 2
 30 644 l 1
 30 661 l 1
 296 661 l 2
 375.13 661 443.667 600 443.667 524.333 c 8
273 638 m 2
 173 638 l 1
 173 385 l 1
 272 385 l 2
 351.877 385 393 452.608 393 527.333 c 16
 393 590 337.014 638 273 638 c 2
EndSplineSet
EndChar
StartChar: Q
Encoding: 81 81 49
Width: 710
HStem: -92 65<460 487> 645 21<349 367>
VStem: 52 63<297 347> 586 68<297 347>
Fore
568 27 m 1
 568 -37 527.03 -92 460 -92 c 0
 374 -92 308 -8 244 -8 c 0
 220.978 -8 200 -16 192 -35 c 1
 238 18 282 -102 198 -102 c 0
 177 -102 161 -80 161 -61 c 0
 161 -26 188 -4 220 6 c 1
 108 58 52 190 52 323 c 0
 52 494 150 666 349 666 c 0
 553 666 654 492 654 317 c 0
 654 164 572 14 412 -15 c 1
 435 -22 459 -27 487 -27 c 0
 518 -27 560 -8 560 27 c 1
 568 27 l 1
365 2 m 1
 511 12 586 164 586 318 c 0
 586 480 508 645 349 645 c 0
 191 645 115 480 115 319 c 0
 115 190 167 62 268 17 c 1
 299 23 336 11 365 2 c 1
EndSplineSet
EndChar
StartChar: R
Encoding: 82 82 50
Width: 627
HStem: 0 16<585 601> 0 24<26 256> 367 25<169 276> 631 30<26 299> 637 24<26 81>
VStem: 114 55<61 367 61 631>
DStem: 276 367 334 369 452 57 507 72
Fore
601 0 m 1
 537 0 l 2
 494 0 472 22 452 57 c 2
 276 367 l 1
 169 367 l 1
 169 61 l 2
 169 42 185 24 204 24 c 2
 256 24 l 1
 256 0 l 1
 26 0 l 1
 26 24 l 1
 79 24 l 2
 97 24 114 44 114 61 c 2
 114 599 l 2
 114 617 98 637 79 637 c 2
 26 637 l 1
 26 661 l 1
 319 661 l 2
 398.681 661 466.667 606 466.667 522.333 c 8
 466.667 441.229 408.444 377.59 334 369 c 1
 507 72 l 2
 519 52 561 16 588 16 c 2
 601 16 l 1
 601 0 l 1
284 631 m 2
 169 631 l 1
 169 392 l 1
 283 392 l 2
 362.967 392 405 454.685 405 527.667 c 16
 405 592 347.938 631 284 631 c 2
EndSplineSet
EndChar
StartChar: S
Encoding: 83 83 51
Width: 502
HStem: -10 22<243.498 276> 12 28<120 261> 650 20G<421 432> 657 17<226 244>
VStem: 35 59<490 525> 415 51<131 174>
Fore
466 174 m 0
 466 97 409 -10 263 -10 c 0
 181 -10 160 40 120 40 c 0
 105 40 79 7 72 -2 c 1
 61 -2 l 1
 50 215 l 1
 64 215 l 1
 89 123 154 12 261 12 c 0
 333 12 415 51 415 131 c 0
 415 360 35 288.998 35 490 c 0
 35 592 126 674 231 674 c 0
 339 674 328 627 373 627 c 0
 387.036 627 413 658 421 670 c 1
 432 670 l 1
 444 452 l 1
 430 452 l 1
 406 544 340 657 233 657 c 0
 161 657 94 598 94 525 c 0
 94 341.989 466 382 466 174 c 0
EndSplineSet
EndChar
StartChar: T
Encoding: 84 84 52
Width: 741
HStem: 0 24<251 482> 630 31<105 306 105 528>
VStem: 339 55<61 582>
Fore
710 490 m 1
 690 489 l 1
 669 571 592 630 511 630 c 2
 431 630 l 2
 406 630 394 601 394 580 c 2
 394 61 l 2
 394 42 410 24 429 24 c 2
 482 24 l 1
 482 0 l 1
 251 0 l 1
 251 24 l 1
 304 24 l 2
 322 24 339 44 339 61 c 2
 339 580 l 2
 339 603 328 630 302 630 c 2
 261 630 l 2
 171 630 88 585 69 489 c 1
 47 490 l 1
 105 661 l 1
 653 661 l 1
 710 490 l 1
EndSplineSet
EndChar
StartChar: U
Encoding: 85 85 53
Width: 656
HStem: -12 19<343 364> 637 24<40 95 40 271 438 492 438 638>
VStem: 128 55<163 602> 526 24<207 602>
Fore
638 637 m 1
 585 637 l 2
 566 637 550 619 550 600 c 2
 550 220 l 2
 550 104 478 -12 362 -12 c 0
 215.986 -12 128 20 128 181 c 2
 128 600 l 2
 128 617 111 637 93 637 c 2
 40 637 l 1
 40 661 l 1
 271 661 l 1
 271 637 l 1
 218 637 l 2
 199 637 183 619 183 600 c 2
 183 132 l 2
 183 54 276 7 359 7 c 0
 457 7 526 107 526 209 c 2
 526 600 l 2
 526 618 509 637 490 637 c 2
 438 637 l 1
 438 661 l 1
 638 661 l 1
 638 637 l 1
EndSplineSet
EndChar
StartChar: V
Encoding: 86 86 54
Width: 704
HStem: 0 21G<321 345> 636 25<41 58 41 228 447 474 447 666>
DStem: 109 589 167 587 321 0 352 73 510 506 531 514 352 73 345 0
Fore
666 636 m 1
 654 636 l 2
 601 636 547 559 531 514 c 2
 345 0 l 1
 321 0 l 1
 109 589 l 2
 100 615 83 636 54 636 c 2
 41 636 l 1
 41 661 l 1
 228 661 l 1
 228 636 l 1
 183 636 l 6
 154 636 161 605 167 587 c 5
 352 73 l 1
 510 506 l 6
 531 563 561 636 472 636 c 6
 447 636 l 1
 447 661 l 1
 666 661 l 1
 666 636 l 1
EndSplineSet
MinimumDistance: x15,1 x6,11 
EndChar
StartChar: W
Encoding: 87 87 55
Width: 1022
HStem: 0 21G<321 345 642 665> 636 25<41 58 41 232 361 378 361 549 767 989>
DStem: 109 589 171 587 321 0 353 79 430 589 488 587 482 445 675 82 482 445 490 419 353 79 345 0 490 419 488 587 642 0 675 82 830 506 855 519 675 82 665 0
Fore
989 636 m 1
 970 636 l 2
 909 636 874 570 855 519 c 2
 665 0 l 1
 642 0 l 1
 490 419 l 5
 345 0 l 1
 321 0 l 1
 109 589 l 2
 100 615 83 636 54 636 c 2
 41 636 l 1
 41 661 l 1
 232 661 l 1
 232 636 l 1
 187 636 l 2
 158 636 165 605 171 587 c 1
 353 79 l 1
 482 445 l 1
 430 589 l 2
 421 615 402 636 374 636 c 2
 361 636 l 1
 361 661 l 1
 549 661 l 1
 549 636 l 1
 511 636 l 2
 483 636 480 608 488 587 c 2
 675 82 l 1
 830 506 l 2
 844 545 857 636 792 636 c 2
 767 636 l 1
 767 661 l 1
 989 661 l 1
 989 636 l 1
EndSplineSet
MinimumDistance: x19,24 x28,1 x9,14 
EndChar
StartChar: X
Encoding: 88 88 56
Width: 662
HStem: 0 28<30 261 411 619> 636 25<74 103 74 261 400 431 400 619>
DStem: 155 591 209 587 311 334 339 378 311 334 326 309 191 136 229 151 416 507 460 528 339 378 353 354
Fore
619 636 m 1
 598 636 l 2
 538 636 488.209 573.872 460 528 c 2
 353 354 l 1
 354 354 528 72 528 72 c 2
 534.875 60.9219 569 28 584 28 c 2
 619 28 l 1
 619 0 l 1
 411 0 l 1
 411 28 l 1
 456 28 l 6
 479 28 474.953 64.9707 467 78 c 6
 326 309 l 1
 229 151 l 6
 217.242 131.849 159 28 224 28 c 6
 261 28 l 1
 261 0 l 1
 30 0 l 1
 30 28 l 1
 46 28 l 2
 106 28 162.645 89.2139 191 136 c 2
 311 334 l 1
 155 591 l 2
 144.766 607.86 124 636 101 636 c 2
 74 636 l 1
 74 661 l 1
 261 661 l 1
 261 636 l 1
 216 636 l 6
 185 636 199.761 601.854 209 587 c 6
 339 378 l 1
 416 507 l 6
 427.253 525.852 491 636 425 636 c 6
 400 636 l 1
 400 661 l 1
 619 661 l 1
 619 636 l 1
EndSplineSet
MinimumDistance: x23,28 
EndChar
StartChar: Y
Encoding: 89 89 57
Width: 653
HStem: 0 24<183 414> 636 25<48 238 401 433 401 621>
VStem: 272 55<61 334>
DStem: 123 591 184 587 272 334 316 357 419 507 462 528 316 357 327 339
Fore
621 636 m 1
 586 636 l 2
 546 636 482.812 557.136 462 528 c 2
 327 339 l 1
 327 61 l 2
 327 43 342 24 361 24 c 2
 414 24 l 1
 414 0 l 1
 183 0 l 1
 183 24 l 1
 236 24 l 2
 254 24 272 43 272 61 c 2
 272 334 l 1
 123 591 l 2
 110.183 613.107 83 636 56 636 c 2
 48 636 l 1
 48 661 l 1
 238 661 l 1
 238 636 l 1
 209 636 l 6
 173 636 166.156 618.091 184 587 c 6
 316 357 l 1
 419 507 l 6
 436.113 531.923 505 636 427 636 c 6
 401 636 l 1
 401 661 l 1
 621 661 l 1
 621 636 l 1
EndSplineSet
MinimumDistance: x14,19 
EndChar
StartChar: Z
Encoding: 90 90 58
Width: 582
HStem: 0 25<130 479> 469 21G<71 94> 636 25<116 448>
DStem: 116 661 107 515 71 469 94 469 448 636 521 639 49 21 130 25
Fore
538 206 m 1
 479 0 l 1
 49 0 l 1
 49 21 l 1
 448 636 l 1
 278 636 l 2
 214 636 125 579 107 515 c 2
 94 469 l 1
 71 469 l 1
 116 661 l 1
 521 661 l 1
 521 639 l 1
 130 25 l 1
 314 25 l 2
 388 25 466 91 497 157 c 2
 519 204 l 1
 538 206 l 1
EndSplineSet
EndChar
StartChar: bracketleft
Encoding: 91 91 59
Width: 361
HStem: -210 30<131 265> 640 30<75 265>
VStem: 75 56<-210 640>
Fore
265 -210 m 1
 75 -210 l 1
 75 670 l 1
 265 670 l 1
 265 640 l 1
 131 640 l 1
 131 -180 l 1
 265 -180 l 1
 265 -210 l 1
EndSplineSet
EndChar
StartChar: backslash
Encoding: 92 92 60
Width: 462
HStem: -19 21G<350 392>
DStem: 38 581 80 581 350 -19 392 -19
Fore
392 -19 m 1
 350 -19 l 1
 38 581 l 1
 80 581 l 1
 392 -19 l 1
EndSplineSet
EndChar
StartChar: bracketright
Encoding: 93 93 61
Width: 361
HStem: -210 30<74 264> 640 30<74 203>
VStem: 203 61<-180 670>
Fore
264 -210 m 1
 74 -210 l 1
 74 -180 l 1
 203 -180 l 1
 203 640 l 1
 74 640 l 1
 74 670 l 1
 264 670 l 1
 264 -210 l 1
EndSplineSet
EndChar
StartChar: asciicircum
Encoding: 94 94 62
Width: 409
HStem: 463 20G<191 202>
Fore
352 368 m 1
 318 368 l 1
 202 483 l 1
 191 483 l 1
 76 368 l 1
 38 368 l 1
 183 555 l 1
 208 555 l 1
 352 368 l 1
EndSplineSet
EndChar
StartChar: underscore
Encoding: 95 95 63
Width: 565
HStem: -205 45<0 495>
Fore
495 -205 m 1
 0 -205 l 1
 0 -160 l 1
 495 -160 l 1
 495 -205 l 1
EndSplineSet
EndChar
StartChar: grave
Encoding: 96 96 64
Width: 321
Fore
222 628 m 1
 189 628 l 1
 61 737 l 1
 137 737 l 1
 222 628 l 1
EndSplineSet
EndChar
StartChar: a
Encoding: 97 97 65
Width: 400
HStem: -9 39<133 164 319 330> 440 32<176 208>
VStem: 20 56<104 134> 243 56<109 391>
Fore
369 43 m 2
 369 19 342.087 -9 319 -9 c 0
 262 -9 246 18 243 72 c 1
 223 33 179 -9 133 -9 c 0
 62 -9 20 25.9423 20 104 c 0
 20 224 167 231 243 280 c 1
 243 384 l 2
 243 420 209 440 176 440 c 0
 154 440 126 437 106 425 c 1
 109 407 108 397 104 379 c 0
 96 346 87 309 54 309 c 0
 0 309 52 472 208 472 c 0
 234 472 299 456 299 389 c 2
 299 69 l 2
 299 50 308 30 330 30 c 0
 347.029 30 363 57 369 72 c 1
 369 43 l 2
243 110 m 1
 243 255 l 1
 183 242 76 204 76 134 c 0
 76 38.7425 108 30 164 30 c 0
 204 30 227 79 243 110 c 1
EndSplineSet
EndChar
StartChar: b
Encoding: 98 98 66
Width: 489
HStem: -9 17<247 249> 454 18<232 249>
VStem: 70 56<-9 328 -9 683> 373 70<230 264>
Fore
443 243 m 0
 443 102 348 -9 247 -9 c 0
 197.99 -9 152 3 119 32 c 0
 70 -9 l 1
 70 598 l 1
 25 607 l 1
 25 619 l 1
 126 683 l 1
 126 428 l 1
 157 456 197 472 247 472 c 0
 369.066 472 443 412 443 243 c 0
373 239 m 0
 373 400 279.333 454 245.997 454 c 0
 155.063 454 126 386 126 322 c 2
 126 120 l 1
 135 58 164.976 8 247 8 c 0
 324 8 373 123 373 239 c 0
EndSplineSet
Back
247 472 m 1
 247 454 l 1
EndSplineSet
EndChar
StartChar: c
Encoding: 99 99 67
Width: 424
HStem: -9 62<211 226> 452 20<230 246>
VStem: 21 69<226 276>
Fore
368 110 m 1
 341 49 283 -9 213 -9 c 0
 76 -9 21 107.996 21 226 c 0
 21 354 116 472 230 472 c 0
 368 472 395.169 310 321 310 c 0
 282 310 265 361 274 400 c 0
 277 413 281 420 289 430 c 1
 268 451 259.017 452 230 452 c 0
 148 452 90 358 90 276 c 0
 90 168.925 124 53 224 53 c 0
 292.066 53 338 102 368 157 c 1
 368 110 l 1
EndSplineSet
EndChar
StartChar: d
Encoding: 100 100 68
Width: 487
HStem: -9 17<225 243> 454 18<233 243>
VStem: 34 73<214 248> 351 56<120 680>
Fore
430 45 m 1
 351 -9 l 1
 351 21 l 1
 318 1 275.012 -9 233 -9 c 4
 106 -9 34 88.9425 34 228 c 0
 34 346 112 472 233 472 c 0
 280.011 472 320 459 351 432 c 1
 351 595 l 1
 303 605 l 1
 306 621 l 1
 407 680 l 1
 407 76 l 1
 430 66 l 1
 430 45 l 1
351 121 m 1
 351 298 l 2
 351 425 330 454 233 454 c 0
 136 454 107 336 107 239 c 0
 107 134.957 132 8 235 8 c 4
 306 8 341 45 351 121 c 1
EndSplineSet
EndChar
StartChar: e
Encoding: 101 101 69
Width: 457
HStem: -9 65<206 240> 290 28<105 394> 456 16<231 240>
VStem: 31 61<230 248> 331 63<290 318>
Fore
394 290 m 1
 100 290 l 1
 98 276 92 261 92 246 c 0
 92 144 139 56 218 56 c 0
 293 56 356 91 390 157 c 1
 390 94 l 1
 357 27 299 -9 225 -9 c 0
 104 -9 31 79.9229 31 242 c 0
 31 360 105 472 231 472 c 0
 326 472 394 384 394 290 c 1
331 318 m 1
 331 376 299 456 231 456 c 0
 158 456 121 392 105 318 c 1
 331 318 l 1
EndSplineSet
EndChar
StartChar: f
Encoding: 102 102 70
Width: 272
HStem: 0 18<13 209> 416 17<38 83 139 192> 665 21G<156 202.5>
VStem: 83 56<45 416 433 619>
Fore
249 615 m 4
 250 575 177 578 177 628 c 4
 177 636 179 642 183 649 c 5
 161 658 139 644 139 619 c 6
 139 433 l 1
 192 433 l 1
 192 416 l 1
 139 416 l 1
 139 45 l 2
 139 32 150 18 164 18 c 2
 209 18 l 1
 209 0 l 1
 13 0 l 1
 13 18 l 1
 57 18 l 2
 70 18 83 32 83 45 c 2
 83 416 l 1
 38 416 l 1
 38 433 l 1
 83 433 l 1
 83 570 l 2
 83 624 129 665 183 665 c 0
 222 665 248 647 249 615 c 4
EndSplineSet
EndChar
StartChar: g
Encoding: 103 103 71
Width: 457
HStem: -212 19<231 239> 158 18<206.542 223> 453 13<206.985 223>
VStem: 30 46<-76 -67> 61 51<106 131> 77 57<299 317> 305 54<308 317> 324 8<419 428.335> 387 54<-73 -39>
Fore
441 -39 m 0
 441 -145.005 344 -212 231 -212 c 0
 137 -212 30 -172.021 30 -76 c 0
 30 -30 82 27 126 47 c 1
 88 60 61 77 61 106 c 0
 61 151 108 167 155 172 c 1
 102.433 197.215 77 254.575 77 312 c 0
 77 384 124.089 466 218 466 c 0
 265 466 300 447 324 419 c 1
 324 451 l 2
 324 470.669 336.667 492.667 362.667 492.667 c 8
 385.86 492.667 403.333 475.667 403.333 451.334 c 0
 403.333 431.333 387.667 412.334 361.666 412.334 c 0
 351 412.334 340.333 419 332 428.335 c 1
 332 428.335 332 408 332 407 c 0
 350.997 378.505 359 348 359 308 c 0
 359 236 312.308 158 218 158 c 0
 212 158 206 158 200 159 c 1
 161 156 112 158 112 131 c 0
 112 66 441 90 441 -39 c 0
218 176 m 0
 274.185 176 305 240.969 305 308 c 0
 305 374 276.268 453 218 453 c 0
 160.787 453 134 376 134 310 c 0
 134 242.273 162.724 176 218 176 c 0
387 -73 m 0
 387 0 242 15 145 42 c 1
 104 13 76 -26 76 -76 c 0
 76 -152.007 156 -193 231 -193 c 0
 308 -193 387 -150 387 -73 c 0
EndSplineSet
EndChar
StartChar: h
Encoding: 104 104 72
Width: 510
HStem: 0 18<28 224 292 488> 445 27<280 296>
VStem: 98 56<45 374 45 665> 362 56<45 376>
Fore
488 0 m 1
 292 0 l 1
 292 18 l 1
 337 18 l 2
 350 18 362 32 362 45 c 2
 362 366 l 2
 362 409 326 445 282 445 c 0
 232.959 445 180 404 154 374 c 1
 154 45 l 2
 154 32 165 18 179 18 c 2
 224 18 l 1
 224 0 l 1
 28 0 l 1
 28 18 l 1
 72 18 l 2
 85 18 98 32 98 45 c 2
 98 567 l 1
 43 583 l 1
 43 598 l 1
 154 665 l 1
 154 402 l 1
 185 435 240.918 472 296 472 c 0
 354 472 418 463 418 397 c 2
 418 45 l 2
 418 33 430 18 443 18 c 2
 488 18 l 1
 488 0 l 1
EndSplineSet
EndChar
StartChar: i
Encoding: 105 105 73
Width: 262
HStem: 0 18<31 228> 546 76<128 130>
VStem: 102 55<45 376>
Fore
128.5 622 m 0
 149.476 622 166.5 604.976 166.5 584 c 0
 166.5 563.024 149.476 546 128.5 546 c 0
 107.524 546 90.5 563.024 90.5 584 c 0
 90.5 604.976 107.524 622 128.5 622 c 0
228 0 m 1
 31 0 l 1
 31 18 l 1
 76 18 l 2
 89 18 102 32 102 45 c 2
 102 376 l 1
 49 394 l 1
 49 407 l 1
 157 474 l 1
 157 45 l 2
 157 32 170 18 183 18 c 2
 228 18 l 1
 228 0 l 1
EndSplineSet
EndChar
StartChar: j
Encoding: 106 106 74
Width: 287
HStem: -146 14<60 71> 546 76<139 141>
VStem: 117 56<-69 397>
Fore
139 622 m 0
 159.976 622 177 604.976 177 584 c 0
 177 563.024 159.976 546 139 546 c 0
 118.024 546 101 563.024 101 584 c 0
 101 604.976 118.024 622 139 622 c 0
173 -35 m 2
 173 -94 126.036 -146 71 -146 c 0
 24.1862 -146 11 -119 11 -99 c 0
 11 -78 24.7646 -57 47 -57 c 0
 71.6426 -57 86 -74 86 -93 c 8
 86 -111.749 72.0272 -125.37 60 -132 c 1
 71 -132 77 -130 87 -125 c 0
 109 -113 117 -94 117 -69 c 2
 117 397 l 1
 77 410 l 1
 77 417 l 1
 173 474 l 1
 173 -35 l 2
EndSplineSet
EndChar
StartChar: k
Encoding: 107 107 75
Width: 526
HStem: 0 18<28 224 291 496> 447 16<251 291 467.833 476>
VStem: 98 56<45 204 45 670>
DStem: 209 254 256 297 340 38 417 38 284 340 357 389 154 217 256 297 284 340 209 254 154 217 154 204
Fore
496 0 m 1
 291 0 l 1
 291 18 l 1
 336 18 l 6
 351 18 344 31 340 38 c 6
 209 254 l 1
 154 204 l 1
 154 45 l 2
 154 32 165 18 179 18 c 2
 224 18 l 1
 224 0 l 1
 28 0 l 1
 28 18 l 1
 72 18 l 2
 85 18 98 32 98 45 c 2
 98 572 l 1
 43 587 l 1
 43 603 l 1
 154 670 l 1
 154 217 l 1
 284 340 l 6
 319 373 335 447 280 447 c 6
 251 447 l 1
 251 463 l 1
 476 463 l 1
 476 447 l 1
 427 441 393 421 357 389 c 2
 256 297 l 1
 417 38 l 1
 421 28 439 18 450 18 c 2
 496 18 l 1
 496 0 l 1
EndSplineSet
MinimumDistance: x21,25 x3,29 
EndChar
StartChar: l
Encoding: 108 108 76
Width: 262
HStem: 0 18<31 227>
VStem: 101 56<45 572>
Fore
227 0 m 1
 31 0 l 1
 31 18 l 1
 76 18 l 2
 89 18 101 33 101 45 c 2
 101 572 l 1
 46 587 l 1
 46 603 l 1
 157 670 l 1
 157 45 l 2
 157 32 169 18 182 18 c 2
 227 18 l 1
 227 0 l 1
EndSplineSet
EndChar
StartChar: m
Encoding: 109 109 77
Width: 785
HStem: 0 18<28 224 292 488 554 752> 445 27<280 296 542 558>
VStem: 98 56<45 376> 362 56<45 378> 624 58<45 378>
Fore
752 0 m 1
 554 0 l 1
 554 18 l 1
 598 18 l 2
 611 18 624 32 624 45 c 2
 624 366 l 2
 624 409 590 445 544 445 c 0
 496.957 445 446 406 418 377 c 1
 418 45 l 2
 418 33 430 18 443 18 c 2
 488 18 l 1
 488 0 l 1
 292 0 l 1
 292 18 l 1
 337 18 l 2
 350 18 362 32 362 45 c 2
 362 366 l 2
 362 409 326 445 282 445 c 0
 232.959 445 181 405 154 376 c 1
 154 45 l 2
 154 32 167 18 180 18 c 2
 224 18 l 1
 224 0 l 1
 28 0 l 1
 28 18 l 1
 73 18 l 2
 87 18 98 32 98 45 c 2
 98 376 l 1
 44 391 l 1
 44 407 l 1
 154 474 l 1
 154 403 l 1
 186 435 240.855 472 296 472 c 0
 350 472 413 464 418 404 c 1
 450 436 503.917 472 558 472 c 0
 608 472 682 463 682 397 c 2
 682 45 l 2
 682 32 694 18 707 18 c 2
 752 18 l 1
 752 0 l 1
EndSplineSet
EndChar
StartChar: n
Encoding: 110 110 78
Width: 510
HStem: 0 18<28 224 292 488> 445 27<280 296>
VStem: 98 56<45 376> 362 56<45 378>
Fore
488 0 m 1
 292 0 l 1
 292 18 l 1
 337 18 l 2
 350 18 362 32 362 45 c 2
 362 366 l 2
 362 409 326 445 282 445 c 0
 232.959 445 181 405 154 376 c 1
 154 45 l 2
 154 32 167 18 180 18 c 2
 224 18 l 1
 224 0 l 1
 28 0 l 1
 28 18 l 1
 73 18 l 2
 87 18 98 32 98 45 c 2
 98 376 l 1
 44 391 l 1
 44 407 l 1
 154 474 l 1
 154 403 l 1
 186 435 240.918 472 296 472 c 0
 352 472 418 463 418 397 c 2
 418 45 l 2
 418 33 430 18 443 18 c 2
 488 18 l 1
 488 0 l 1
EndSplineSet
EndChar
StartChar: o
Encoding: 111 111 79
Width: 482
HStem: -9 15<227.93 245> 455 17<228.015 245>
VStem: 51 59<214 248> 373 60<214 248>
Fore
242 -9 m 0
 114.676 -9 51 110.916 51 231 c 0
 51 350 114.324 472 242 472 c 0
 368.97 472 433 351 433 233 c 0
 433 112.251 370.03 -9 242 -9 c 0
242 6 m 0
 329.89 6 373 119.251 373 232 c 0
 373 344 329.11 455 242 455 c 0
 153.869 455 110 341 110 230 c 0
 110 117.917 154.131 6 242 6 c 0
EndSplineSet
EndChar
StartChar: p
Encoding: 112 112 80
Width: 524
HStem: -147 18<34 230> -9 17<280 291> 453 19<273 291>
VStem: 104 56<-102 28 -102 333> 406 70<220 270>
Fore
406 239 m 0
 406 399 339 453 287 453 c 0
 201 453 160 391 160 331 c 2
 160 116 l 1
 170 55 199.975 8 280 8 c 0
 358 8 406 123 406 239 c 0
476 243 m 0
 476 108.966 379 -9 280 -9 c 0
 233.989 -9 192 2 160 28 c 1
 160 -102 l 2
 160 -115 172 -129 185 -129 c 2
 230 -129 l 1
 230 -147 l 1
 34 -147 l 1
 34 -129 l 1
 79 -129 l 2
 92 -129 104 -114 104 -102 c 2
 104 366 l 1
 61 389 l 1
 61 405 l 1
 160 465 l 1
 160 424 l 1
 193 457 232.957 472 280 472 c 0
 403 472 476 413 476 243 c 0
EndSplineSet
Back
406 239 m 4
 406 399 306 459 273 454 c 4
 187 442 160 391 160 331 c 6
 160 116 l 5
 170 55 200 6 280 8 c 4
 359 10 406 123 406 239 c 4
EndSplineSet
EndChar
StartChar: q
Encoding: 113 113 81
Width: 440
HStem: -165 18<402 449> -9 17<198 216> 454 18<206 216>
VStem: 7 73<202 252> 323 56<-165 21 115 348>
Fore
449 -165 m 1
 323 -165 l 1
 323 -165 323 -61 323 21 c 1
 291 1 248.012 -9 206 -9 c 0
 82 -9 7 88 7 228 c 0
 7 358 88 472 206 472 c 0
 254.01 472 296 458 328 429 c 1
 379 474 l 1
 379 -120 l 2
 379 -133 390 -147 404 -147 c 2
 449 -147 l 1
 449 -165 l 1
323 115 m 0
 323 116 323 313 323 313 c 2
 323 428 300 454 206 454 c 0
 108 454 80 336.021 80 239 c 0
 80 132 102 8 208 8 c 0
 282.243 8 313 43 323 115 c 0
EndSplineSet
EndChar
StartChar: r
Encoding: 114 114 82
Width: 345
HStem: 0 18<22 218>
VStem: 92 56<45 377>
Fore
311.25 438.25 m 16
 311.25 411.75 287.237 394.75 260.5 394.75 c 16
 239.5 394.75 215.25 401.75 215.25 421.5 c 8
 215.25 424.324 216.421 426.421 218 428 c 1
 189 422 166 399 148 377 c 1
 148 45 l 2
 148 33 160 18 173 18 c 2
 218 18 l 1
 218 0 l 1
 22 0 l 1
 22 18 l 1
 67 18 l 2
 80 18 92 32 92 45 c 2
 92 390 l 1
 52 406 l 1
 52 412 l 1
 148 469 l 1
 148 402 l 1
 174.254 431.067 210.565 471.5 265 471.5 c 16
 287.5 471.5 311.25 461.034 311.25 438.25 c 16
EndSplineSet
EndChar
StartChar: s
Encoding: 115 115 83
Width: 385
HStem: -9 18<184 205> 452 20<184 205>
VStem: 44 51<347 383> 283 49<100 119>
Fore
332 119 m 0
 332 43 268 -9 193 -9 c 0
 151.805 -9 100 10 61 26 c 1
 61 136 l 1
 64 136 l 1
 72 74 130 9 200 9 c 0
 247.676 9 283 51.9896 283 100 c 0
 283 210 44 194 44 347 c 4
 44 420.007 108.838 472 186 472 c 0
 230 472 271 457 308 440 c 1
 308 330 l 1
 306 330 l 1
 296 386 260 452 193 452 c 0
 146 452 95 429.098 95 383 c 4
 95 256 332 278 332 119 c 0
EndSplineSet
EndChar
StartChar: t
Encoding: 116 116 84
Width: 265
HStem: -9 45<139 174> 413 43<140 205>
VStem: 84 56<62 413>
Fore
223 64 m 1
 220.5 42 198 -9 139 -9 c 0
 94 -9 84 35 84 73 c 2
 84 413 l 1
 28 413 l 1
 28 435 l 1
 122 560 l 1
 140 546 l 1
 140 456 l 1
 221 456 l 1
 205 413 l 1
 140 413 l 1
 140 65 l 2
 140 48 156.971 36 174 36 c 0
 196 36 218 68.5 221 83 c 1
 223 64 l 1
EndSplineSet
EndChar
StartChar: u
Encoding: 117 117 85
Width: 524
HStem: -9 33<210 228> 445 18<15 64 293 340>
VStem: 85 56<94 424> 363 56<96 463>
Fore
477 65 m 1
 363 -9 l 1
 363 65 l 1
 333 28 282 -9 211 -9 c 0
 154 -9 85 18 85 113 c 2
 85 418 l 2
 85 430 73 445 60 445 c 2
 15 445 l 1
 15 463 l 1
 141 463 l 1
 141 108 l 2
 141 50 179.902 24 226 24 c 0
 282 24 335 64 363 96 c 1
 363 418 l 2
 363 430 351 445 338 445 c 2
 293 445 l 1
 293 463 l 1
 419 463 l 1
 419 98 l 1
 477 82 l 1
 477 65 l 1
EndSplineSet
EndChar
StartChar: v
Encoding: 118 118 86
Width: 465
HStem: 445 18<24 52 24 175 288 314 288 457>
DStem: 81 421 129 415 213 6 240 78 339 360 369 394 240 78 228 0
Fore
458 445 m 1
 431 445 l 2
 405 445 377 417 369 394 c 2
 228 0 l 1
 213 6 l 1
 81 421 l 2
 78 431 61 445 50 445 c 2
 24 445 l 1
 24 463 l 1
 175 463 l 1
 175 445 l 1
 147 445 l 6
 131 445 124 429 129 415 c 5
 240 78 l 1
 339 360 l 5
 348 387 358 445 312 445 c 6
 288 445 l 1
 288 463 l 1
 458 463 l 1
 458 445 l 1
EndSplineSet
MinimumDistance: x15,1 x6,11 
EndChar
StartChar: w
Encoding: 119 119 87
Width: 629
HStem: 445 18<5 38 5 164 204 231 204 354 468 638>
DStem: 61 421 117 415 194 6 220 87 261 421 309 415 303 288 420 78 303 288 313 257 220 87 211 0 313 257 309 415 393 6 420 78 518 360 548 394 420 78 407 0
Fore
638 445 m 1
 611 445 l 2
 584 445 557 418 548 394 c 1
 407 0 l 1
 393 6 l 1
 313 257 l 5
 211 0 l 1
 194 6 l 1
 61 421 l 2
 57 433 44 445 30 445 c 2
 5 445 l 1
 5 463 l 1
 164 463 l 1
 164 445 l 1
 135 445 l 2
 118 445 113 429 117 415 c 1
 220 87 l 1
 303 288 l 1
 261 421 l 2
 258 431 240 445 229 445 c 2
 204 445 l 1
 204 463 l 1
 354 463 l 1
 354 445 l 1
 327 445 l 2
 311 445 304 429 309 415 c 1
 420 78 l 1
 518 360 l 1
 528 387 539 445 491 445 c 2
 468 445 l 1
 468 463 l 1
 638 463 l 1
 638 445 l 1
EndSplineSet
MinimumDistance: x19,24 x9,14 x28,1 
EndChar
StartChar: x
Encoding: 120 120 88
Width: 481
HStem: 0 18<14 206 279 439> 445 18<47 79 47 217 261 287 261 431>
DStem: 104 421 171 415 212 228 245 282 212 228 222 209 117 74 150 91 222 209 255 264 309 55 355 85 299 369 337 397 245 282 255 264
Fore
439 0 m 1
 279 0 l 1
 279 18 l 1
 303 18 l 2
 319 18 313 47 309 55 c 2
 222 209 l 1
 150 91 l 2
 129 57 150 18 191 18 c 2
 206 18 l 1
 206 0 l 1
 14 0 l 1
 14 18 l 1
 44 18 l 6
 77 18 101 49 117 74 c 2
 212 228 l 1
 104 421 l 2
 98 432 86 445 72 445 c 2
 47 445 l 1
 47 463 l 1
 217 463 l 1
 217 445 l 1
 189 445 l 2
 174 445 164 428 171 415 c 2
 245 282 l 1
 299 369 l 2
 312 391 326 445 285 445 c 2
 261 445 l 1
 261 463 l 1
 431 463 l 1
 431 445 l 1
 405 445 l 2
 382 445 348 415 337 397 c 2
 255 264 l 1
 355 85 l 2
 365 68 394 18 418 18 c 2
 439 18 l 1
 439 0 l 1
EndSplineSet
MinimumDistance: x25,30 x16,21 x12,7 x3,34 
EndChar
StartChar: y
Encoding: 121 121 89
Width: 440
HStem: 445 18<6 33 6 165 269 294 269 439>
DStem: 63 421 119 415 172 51 209 122 176 49 357 390 136 -36 147 -53 319 360 357 390 209 122 147 -53
Fore
439 445 m 1
 420 445 l 2
 395 445 367 410 357 390 c 1
 147 -53 l 1
 134.156 -77.9817 116.25 -91.25 86 -91.25 c 0
 55.3333 -91.25 40.25 -66.041 40.25 -42 c 0
 40.25 -19.6667 54.4983 3 80 3 c 0
 108.5 3 121.75 -15 121.75 -35.25 c 0
 121.75 -50 111.367 -63.7495 99 -68 c 1
 120 -68 128 -53 136 -36 c 2
 176 49 l 1
 172 51 l 1
 63 421 l 2
 60 432 43 445 31 445 c 2
 6 445 l 1
 6 463 l 1
 165 463 l 1
 165 445 l 1
 137 445 l 6
 120 445 115 429 119 415 c 6
 209 122 l 1
 319 360 l 6
 331 387 335 445 292 445 c 6
 269 445 l 1
 269 463 l 1
 439 463 l 1
 439 445 l 1
EndSplineSet
MinimumDistance: x22,1 x13,18 
Back
439 445 m 5
 420 445 l 6
 395 445 367 410 357 390 c 5
 147 -53 l 6
 136 -76 121 -88 96 -91 c 4
 92.4944 -91.4382 89.1612 -91.318 86 -91.25 c 4
 54.3391 -90.569 39.8408 -66.0375 40.25 -42 c 4
 40.6391 -19.1444 54.4983 3 80 3 c 4
 108.015 3 121.842 -16.621 121.75 -35.25 c 4
 121.711 -43.2194 119.094 -51.0076 114 -57 c 4
 109 -63 106 -65 99 -68 c 5
 120 -68 128 -53 136 -36 c 6
 176 49 l 5
 172 51 l 5
 63 421 l 6
 60 432 43 445 31 445 c 6
 6 445 l 5
 6 463 l 5
 165 463 l 5
 165 445 l 5
 137 445 l 6
 120 445 115 429 119 415 c 6
 209 122 l 5
 319 360 l 6
 331 387 335 445 292 445 c 6
 269 445 l 5
 269 463 l 5
 439 463 l 5
 439 445 l 5
EndSplineSet
EndChar
StartChar: z
Encoding: 122 122 90
Width: 404
HStem: -2 20<91 305> 445 18<73 282>
DStem: 282 445 364 463 12 -2 91 18
Fore
364 463 m 1
 91 18 l 1
 203 18 l 2
 257 18 311 84 328 132 c 1
 343 125 l 1
 305 -2 l 1
 12 -2 l 1
 282 445 l 1
 161 445 l 2
 108 445 72 367 66 321 c 1
 50 331 l 1
 73 463 l 1
 364 463 l 1
EndSplineSet
EndChar
StartChar: braceleft
Encoding: 123 123 91
Width: 346
HStem: -213 30<248 285> 640 30<243 285>
VStem: 118 50<-91 125 357 554>
Fore
285 -213 m 1
 248 -213 l 2
 212 -213 188 -206 161 -182 c 0
 131 -156 118 -131 118 -91 c 2
 118 97 l 2
 118 139 112 183 90 201 c 0
 77.1191 211.539 65 214 47 215 c 1
 47 243 l 1
 65 249 73.2178 253.769 87 267 c 0
 112 291 118 335 118 380 c 2
 118 552 l 2
 118 590 132 615 161 639 c 0
 187 662 209 670 243 670 c 2
 285 670 l 1
 285 640 l 1
 243 640 l 2
 221 640 207.031 635.031 191 619 c 0
 169 597 168 557 168 515 c 2
 168 359 l 2
 168 320 163 282 146 262 c 0
 132.648 246.292 124 238 104 229 c 1
 122 226 132.573 220.638 146 208 c 0
 163 192 168 157 168 123 c 2
 168 -58 l 2
 168 -101 175 -144 201 -163 c 0
 216.51 -174.334 227 -181 248 -182 c 2
 285 -183 l 1
 285 -213 l 1
EndSplineSet
EndChar
StartChar: bar
Encoding: 124 124 92
Width: 155
VStem: 47 47<-114 723>
Fore
94 -114 m 5
 47 -114 l 5
 47 723 l 1
 94 723 l 1
 94 -114 l 5
EndSplineSet
EndChar
StartChar: braceright
Encoding: 125 125 93
Width: 346
HStem: -213 30<19 56> 640 30<19 68>
VStem: 136 50<-70 125 357 554>
Fore
19 -213 m 1
 19 -183 l 1
 56 -182 l 2
 77 -181 87.4905 -174.334 103 -163 c 0
 129 -144 136 -101 136 -58 c 2
 136 123 l 2
 136 157 141 192 158 208 c 0
 171.427 220.638 182 226 200 229 c 1
 180 238 171.352 246.292 158 262 c 0
 141 282 136 320 136 359 c 2
 136 515 l 2
 136 557 135 597 113 619 c 0
 96.9688 635.031 83 640 61 640 c 2
 19 640 l 1
 19 670 l 1
 61 670 l 2
 95 670 117 662 143 639 c 0
 172 615 186 590 186 552 c 2
 186 380 l 2
 186 335 192 291 217 267 c 0
 230.782 253.769 239 249 257 243 c 1
 257 215 l 1
 239 214 226.881 211.539 214 201 c 0
 192 183 186 139 186 97 c 2
 186 -91 l 2
 186 -131 173 -156 143 -182 c 0
 116 -206 92 -213 56 -213 c 2
 19 -213 l 1
EndSplineSet
EndChar
StartChar: asciitilde
Encoding: 126 126 94
Width: 409
HStem: 457 20G<225 279.005> 477 21G<52 65>
Fore
334 580 m 1
 334 530 304.01 477 254 477 c 0
 196 477 190 526 151 526 c 0
 113.986 526 87 509 65 477 c 1
 52 477 l 1
 53 535 103.99 585 155 585 c 0
 194 585 222 538 251 538 c 0
 284.061 538 306 553 326 580 c 1
 334 580 l 1
EndSplineSet
EndChar
StartChar: exclamdown
Encoding: 161 161 96
Width: 217
VStem: 101 20<478 488.647>
Fore
99 -13 m 1
 69 49 46 75 46 136 c 0
 46 271 101 343 101 478 c 0
 101 508 121 510 121 478 c 0
 121 343 176 271 176 136 c 0
 176 75 157 52 124 -13 c 0
 118 -26 104 -26 99 -13 c 1
147 566 m 0
 87 525 27 616 87 656 c 0
 147 696 207 606 147 566 c 0
EndSplineSet
EndChar
StartChar: cent
Encoding: 162 162 97
Width: 481
HStem: 0 60<207 246> 435 30<207 221>
VStem: 8 72<236 261>
DStem: 235 498 264 497 230 468 259 466
Fore
207 435 m 0
 138 435 80 343 80 261 c 0
 80 191 106 133 154 91 c 0
 160 86 173 83 175 94 c 0
 192 203 209 324 223 416 c 0
 223 422 217 435 207 435 c 0
371 153 m 0
 381 175 404 185 395 151 c 0
 372 60 301 0 207 0 c 0
 199 0 191 1 183 3 c 1
 178 -24 174 -50 169 -77 c 0
 167 -86 142 -91 146 -69 c 1
 159 9 l 1
 78 38 8 135 8 236 c 0
 8 294 51 397 128 432 c 0
 165 448 180 456 221 465 c 0
 222 465 229 468 230 468 c 1
 235 498 l 1
 238 518 268 518 264 497 c 1
 259 466 l 1
 291 461 336 446 367 415 c 0
 378 404 381 393 379 378 c 0
 376 358 361 341 340 341 c 0
 314 341 305 367 292 386 c 0
 285 397 279 411 270 413 c 0
 266 413 252 420 249 407 c 0
 232 304 215 186 198 84 c 0
 197 75 203 67 212 64 c 0
 223 61 234 60 246 60 c 0
 285 60 347 102 371 153 c 0
EndSplineSet
EndChar
StartChar: sterling
Encoding: 163 163 98
Width: 611
HStem: 0 41<400 451> 0 120<223 400> 88 32<218 243> 242 31<140 171 273 323>
VStem: 451 81<110 131>
Fore
218 88 m 0
 207 88 195 87 184 86 c 1
 172 69 158 52 142 35 c 0
 124 16 106 0 87 0 c 0
 74 0 64 11 64 24 c 0
 64 63 107 75 144 94 c 0
 153 99 162 103 171 107 c 1
 180 135 187 172 196 215 c 0
 199 234 176 242 163 242 c 2
 140 242 l 2
 132 242 124 249 124 257 c 0
 124 266 133 273 140 273 c 2
 186 273 l 2
 206 273 209 284 211 295 c 0
 227 379 249 471 284 545 c 0
 303 585 318 610 356 633 c 0
 387 651 408 659 440 668 c 0
 449 671 468 669 483 662 c 0
 506 652 527 640 527 615 c 0
 527 596 512 579 493 579 c 0
 475 579 467 588 458 610 c 0
 446 640 403 653 379 625 c 0
 337 574 323 458 292 352 c 0
 285 329 279 307 272 286 c 0
 270 280 270 273 277 273 c 2
 320 273 l 2
 330 273 344 269 344 257 c 0
 344 246 329 242 317 242 c 2
 270 242 l 2
 259 242 255 236 252 227 c 0
 237 189 229 153 206 117 c 1
 217 119 230 120 243 120 c 0
 323 120 382 41 451 41 c 0
 468 41 488 48 488 70 c 0
 488 76 487 85 479 91 c 1
 463 100 451 112 451 131 c 0
 451 150 469 163 488 163 c 0
 514 163 532 137 532 110 c 0
 532 60 456 0 400 0 c 0
 319 0 269 88 218 88 c 0
EndSplineSet
EndChar
StartChar: currency
Encoding: 164 164 99
Width: 544
HStem: 115 50<225 231> 465 50<225 231>
DStem: 357 159 383 187 409 106 437 134 409 520 437 492 358 469 385 441
Fore
437 134 m 1
 409 106 l 1
 357 159 l 1
 324 132 280 115 225 115 c 0
 172 115 130 131 98 156 c 1
 49 106 l 1
 22 134 l 1
 22 134 71 183 70 183 c 1
 9 255 10 372 69 445 c 0
 69 446 22 492 22 492 c 1
 49 520 l 1
 96 472 l 1
 128 498 172 515 225 515 c 0
 281 515 326 498 358 469 c 1
 409 520 l 1
 437 492 l 1
 385 441 l 1
 439 369 439 259 383 187 c 1
 437 134 l 1
225 165 m 0
 425 165 425 465 225 465 c 0
 25 465 25 165 225 165 c 0
EndSplineSet
EndChar
StartChar: yen
Encoding: 165 165 100
Width: 647
HStem: 0 24<199 431> 331 38<53 287 363 594> 449 38<53 221 259 396 259 594> 636 25<64 73 64 254 419 454 419 637>
VStem: 287 57<61 331>
DStem: 138 591 202 587 199 487 259 487 221 449 281 449 268 369 328 369 436 507 478 528 422 487 448 487
Fore
637 636 m 1
 602 636 l 2
 560 636 499.968 558.023 478 528 c 2
 448 487 l 1
 594 487 l 1
 594 449 l 1
 421 449 l 1
 363 369 l 1
 364 369 594 369 594 369 c 1
 594 331 l 1
 344 331 l 1
 344 61 l 2
 344 42 360 24 379 24 c 2
 431 24 l 1
 431 0 l 1
 199 0 l 1
 199 24 l 1
 252 24 l 2
 270 24 287 44 287 61 c 2
 287 331 l 1
 53 331 l 1
 53 369 l 1
 268 369 l 1
 221 449 l 1
 53 449 l 1
 53 487 l 1
 199 487 l 1
 138 591 l 2
 125.071 613.042 98 636 71 636 c 6
 64 636 l 5
 64 661 l 1
 255 661 l 1
 255 636 l 1
 227 636 l 2
 191 636 184.249 618.143 202 587 c 2
 259 487 l 1
 422 487 l 1
 436 507 l 2
 453.337 531.768 522 636 444 636 c 2
 419 636 l 1
 419 661 l 1
 637 661 l 1
 637 636 l 1
396 449 m 2
 281 449 l 1
 328 369 l 1
 342 369 l 1
 342 369 397 449 396 449 c 2
EndSplineSet
MinimumDistance: x28,33 
EndChar
StartChar: brokenbar
Encoding: 166 166 101
Width: 201
HStem: -19 21G<47 94>
VStem: 47 47<-19 331 398 723>
Fore
94 398 m 1
 47 398 l 1
 47 723 l 1
 94 723 l 1
 94 398 l 1
94 -19 m 1
 47 -19 l 1
 47 331 l 1
 94 331 l 1
 94 -19 l 1
EndSplineSet
EndChar
StartChar: section
Encoding: 167 167 102
Width: 359
Fore
319 613 m 0
 312 555 238 563 243 613 c 0
 244 629 250 643 272 643 c 0
 276 643 280 644 283 643 c 1
 280 659 276 672 259 678 c 0
 247 683 231 687 213 687 c 0
 162 688 127 650 120 600 c 0
 105 486 238 462 238 462 c 1
 313 423 320 274 209 236 c 1
 256 229 314 182 302 104 c 0
 293 45 244 18 226 12 c 0
 198 3 169 -4 119 4 c 0
 69 12 31 45 36 92 c 0
 43 150 117 142 113 92 c 0
 112 76 105 61 83 61 c 0
 79 61 76 61 71 61 c 1
 76 46 79 32 96 26 c 0
 108 21 124 17 142 17 c 0
 192 17 231 54 236 104 c 0
 245 187 188 224 109 246 c 1
 27 294 31 438 132 471 c 1
 94 485 40 523 53 601 c 0
 62 660 112 687 129 694 c 1
 157 702 187 708 237 700 c 0
 287 692 324 660 319 613 c 0
177 444 m 0
 91 445 68 272 165 264 c 0
 262 256 256 443 177 444 c 0
EndSplineSet
EndChar
StartChar: dieresis
Encoding: 168 168 103
Width: 0
Flags: W
VStem: 56 76<567 569>
Fore
250.002 605 m 4
 270.978 605 288.002 587.976 288.002 567 c 4
 288.002 546.024 270.978 529 250.002 529 c 4
 229.026 529 212.002 546.024 212.002 567 c 4
 212.002 587.976 229.026 605 250.002 605 c 4
94 605 m 0
 114.976 605 132 587.976 132 567 c 0
 132 546.024 114.976 529 94 529 c 0
 73.0244 529 56 546.024 56 567 c 0
 56 587.976 73.0244 605 94 605 c 0
EndSplineSet
EndChar
StartChar: copyright
Encoding: 169 169 104
Width: 539
HStem: 298 30<249 272> 383 11<242 308> 445 20G<339 343> 631 5<240 255> 674 29<252 272>
Fore
252 703 m 0
 522 701 519 296 249 298 c 0
 -21 300 -18 705 252 703 c 0
252 674 m 0
 21 676 18 330 249 328 c 0
 480 326 483 672 252 674 c 0
343 465 m 1
 327 380 l 1
 320 380 l 1
 320 383 320 385 318 388 c 0
 316 392 312 394 308 394 c 0
 286 394 270 377 246 376 c 0
 164 372 143 436 139 500 c 0
 136 560 171 637 251 636 c 0
 290 636 296 613 308 614 c 0
 312 615 313 618 317 620 c 1
 320 624 323 627 326 631 c 1
 330 631 l 1
 335 547 l 1
 329 547 l 1
 328 554 327 557 324 562 c 0
 309 598 287 631 250 631 c 0
 202 631 172 566 171 506 c 0
 170 450 190 383 242 383 c 0
 269 383 304 402 323 431 c 0
 331 443 335 450 339 465 c 1
 343 465 l 1
EndSplineSet
EndChar
StartChar: ordfeminine
Encoding: 170 170 105
Width: 317
HStem: 132 38<0 288> 197 27<106 128> 511 23<136 174>
VStem: 183 54<279 478>
Fore
286 233 m 2
 286 217 267 199 251 197 c 0
 213 193 185 216 183 254 c 1
 170 226 137 197 106 197 c 0
 54 197 11 221 13 276 c 0
 16 361 127 361 183 398 c 1
 183 472 l 2
 183 498 159 511 136 511 c 0
 112 511 99 503 77 498 c 1
 79 485 76 481 72 469 c 1
 67 445 61 419 38 419 c 0
 -1 420 52 534 174 534 c 0
 193 534 237 522 237 476 c 2
 237 252 l 2
 237 238 245 224 259 224 c 0
 270 224 283 244 286 254 c 1
 286 233 l 2
288 132 m 1
 0 132 l 1
 0 170 l 1
 288 170 l 1
 288 132 l 1
183 280 m 1
 183 382 l 1
 142 372 69 344 66 297 c 0
 61 231 88 224 128 224 c 0
 155 224 172 259 183 280 c 1
EndSplineSet
EndChar
StartChar: guillemotleft
Encoding: 171 171 106
Width: 827
DStem: 38 312 123 322 453 84 453 148 321 312 406 322 736 84 736 148 453 565 453 502 38 350 123 338 736 565 736 502 321 350 406 338
Fore
38 312 m 1
 38 350 l 1
 453 565 l 1
 453 502 l 1
 123 338 l 1
 123 322 l 1
 453 148 l 1
 453 84 l 1
 38 312 l 1
321 312 m 1
 321 350 l 1
 736 565 l 1
 736 502 l 1
 406 338 l 1
 406 322 l 1
 736 148 l 1
 736 84 l 1
 321 312 l 1
EndSplineSet
EndChar
StartChar: logicalnot
Encoding: 172 172 107
Width: 638
HStem: 210 40<35 535>
VStem: 535 40<40 250>
Fore
575 40 m 1
 535 40 l 1
 535 210 l 1
 35 210 l 1
 35 250 l 1
 575 250 l 1
 575 40 l 1
EndSplineSet
EndChar
StartChar: uni00AD
Encoding: 173 173 108
Width: 340
HStem: 209 45<33 266>
Fore
266 209 m 1
 33 209 l 1
 33 254 l 1
 266 254 l 1
 266 209 l 1
EndSplineSet
EndChar
StartChar: registered
Encoding: 174 174 109
Width: 529
HStem: 298 30<251 273> 387 5<366 372> 387 8<154 247> 520 9<216 248> 618 9<154 178 207 258> 674 29<254 273>
VStem: 186 30<409 520 409 616>
DStem: 248 520 276 520 313 407 339 413
Fore
254 703 m 0
 524 701 521 296 251 298 c 0
 -19 300 -16 705 254 703 c 0
254 674 m 0
 24 676 20 330 251 328 c 0
 482 326 485 672 254 674 c 0
372 387 m 1
 343 387 l 2
 335 387 330 387 324 392 c 0
 318 397 316 401 313 407 c 2
 248 520 l 1
 216 520 l 1
 216 409 l 2
 216 405 217 402 220 399 c 0
 222 397 224 395 228 395 c 2
 247 395 l 1
 247 387 l 1
 154 387 l 1
 154 395 l 1
 173 395 l 2
 177 395 180 397 182 399 c 0
 185 402 186 405 186 409 c 2
 186 604 l 2
 186 608 185 610 182 613 c 0
 180 616 177 618 173 618 c 2
 154 618 l 1
 154 627 l 1
 207 627 l 1
 271 627 l 2
 298 627 321 617 324 581 c 0
 327 541 304 524 276 520 c 1
 339 413 l 2
 344 405 354 398 356 397 c 1
 357 395 365 392 368 392 c 2
 372 392 l 1
 372 387 l 1
296 580 m 0
 296 604 274 616 252 616 c 2
 216 616 l 1
 216 529 l 1
 252 529 l 2
 282 529 296 544 296 580 c 0
EndSplineSet
EndChar
StartChar: macron
Encoding: 175 175 110
Width: 315
HStem: 585 45<35 250>
Fore
250 585 m 1
 35 585 l 1
 35 630 l 1
 250 630 l 1
 250 585 l 1
EndSplineSet
EndChar
StartChar: degree
Encoding: 176 176 111
Width: 222
HStem: 676 29<83 89>
Fore
83 705 m 0
 181 703 179 561 81 558 c 0
 -17 555 -14 706 83 705 c 0
83 676 m 0
 26 677 25 591 82 591 c 0
 139 591 139 676 83 676 c 0
EndSplineSet
EndChar
StartChar: plusminus
Encoding: 177 177 112
Width: 331
HStem: 213 33<33 312> 321 33<33 154 187 312>
VStem: 154 33<246 321 354 456>
Fore
312 213 m 1
 33 213 l 1
 33 246 l 1
 154 246 l 1
 154 321 l 1
 33 321 l 1
 33 354 l 1
 154 354 l 1
 154 456 l 1
 187 456 l 1
 187 354 l 1
 312 354 l 1
 312 321 l 1
 187 321 l 1
 187 246 l 1
 312 246 l 1
 312 213 l 1
EndSplineSet
EndChar
StartChar: twosuperior
Encoding: 178 178 113
Width: 272
HStem: 406 40<60 189>
VStem: 46 147<426 637>
DStem: 191 465 200 465 186 446 189 406
Fore
200 465 m 1
 189 406 l 1
 46 406 l 1
 46 426 l 2
 46 495 149 545 152 626 c 0
 154 652 134 674 106 676 c 0
 75 678 55 651 50 623 c 1
 44 623 l 1
 47 664 77 698 120 697 c 0
 155 695 192 680 193 637 c 0
 193 561 87 509 70 468 c 0
 63 451 64 455 60 446 c 1
 186 446 l 1
 191 465 l 1
 200 465 l 1
EndSplineSet
EndChar
StartChar: threesuperior
Encoding: 179 179 114
Width: 267
HStem: 554 15<94 102>
Fore
175 476 m 0
 178 517 131 554 106 554 c 2
 94 554 l 1
 94 569 l 1
 102 570 105 571 112 575 c 0
 135 587 146 609 144 636 c 0
 139 690 60 679 60 633 c 1
 53 633 l 1
 53 673 90 694 127 692 c 0
 186 690 196 628 161 599 c 0
 155 595 153 591 146 588 c 1
 147 582 l 1
 150 580 150 577 153 576 c 0
 239 543 236 409 108 405 c 0
 77 404 47 426 49 457 c 0
 51 495 100 494 98 461 c 0
 97 446 89 437 74 440 c 1
 79 430 84 426 92 420 c 0
 112 404 172 424 175 476 c 0
EndSplineSet
EndChar
StartChar: acute
Encoding: 180 180 115
Width: 275
Fore
227 737 m 1
 99 628 l 1
 66 628 l 1
 151 737 l 1
 227 737 l 1
EndSplineSet
EndChar
StartChar: mu
Encoding: 181 181 116
Width: 671
HStem: 0 19<224 242>
DStem: 113 416 175 406 33 -109 143 191 113 416 126 75 33 -109 99 -109 373 425 435 416 326 95 387 117
Fore
567 150 m 1
 535 87 494 -16 403 2 c 0
 376 7 338 26 327 66 c 1
 300 29 276 0 231 0 c 0
 166 0 141 46 126 75 c 1
 99 -109 l 1
 91 -161 28 -144 33 -109 c 1
 113 416 l 1
 123 483 183 463 175 406 c 1
 143 191 l 1
 142 140 l 1
 141 82 170 20 228 19 c 0
 273 18 301 53 326 95 c 1
 373 425 l 1
 381 479 442 462 435 416 c 1
 387 117 l 1
 382 87 406 67 433 55 c 0
 489 31 527 132 543 164 c 1
 567 150 l 1
EndSplineSet
EndChar
StartChar: paragraph
Encoding: 182 182 117
Width: 592
HStem: 354 31<261 306> 631 30<171 306 171 417 171 520>
VStem: 306 55<-69 631> 417 56<-69 631>
Fore
473 631 m 1
 473 -69 l 1
 417 -69 l 1
 417 631 l 1
 361 631 l 1
 361 -69 l 1
 306 -69 l 1
 306 354 l 1
 187 354 l 2
 90 354 -3 403 6 527 c 0
 13 624 88 661 171 661 c 2
 520 661 l 1
 520 631 l 1
 473 631 l 1
306 385 m 1
 306 631 l 1
 276 631 l 2
 222 631 162 587 165 510 c 0
 168 412 206 385 276 385 c 2
 306 385 l 1
EndSplineSet
EndChar
StartChar: periodcentered
Encoding: 183 183 118
Width: 217
Fore
147 302 m 0
 207 262 147 172 87 212 c 0
 28 252 87 343 147 302 c 0
EndSplineSet
EndChar
StartChar: cedilla
Encoding: 184 184 119
Width: 0
VStem: 208 33<-72 13>
Fore
361 -96 m 0
 365 -192 309 -210 228 -212 c 2
 176 -213 l 1
 176 -179 l 1
 233 -174 l 2
 269 -171 307 -161 307 -117 c 0
 307 -87 275 -72 246 -72 c 2
 208 -72 l 1
 208 13 l 1
 241 13 l 1
 241 -25 l 1
 269 -25 l 2
 314 -25 360 -56 361 -96 c 0
EndSplineSet
EndChar
StartChar: onesuperior
Encoding: 185 185 120
Width: 227
HStem: 406 8<60 160> 651 20G<76 96>
VStem: 96 27<428 671>
Fore
160 406 m 1
 60 406 l 1
 60 414 l 1
 83 414 l 2
 90 414 96 421 96 428 c 2
 96 671 l 1
 76 671 l 1
 76 680 l 1
 123 697 l 1
 123 428 l 2
 123 421 130 414 136 414 c 2
 160 414 l 1
 160 406 l 1
EndSplineSet
EndChar
StartChar: ordmasculine
Encoding: 186 186 121
Width: 390
HStem: 132 38<12 323> 197 11<165 173> 522 12<165 173>
Fore
165 197 m 0
 -34 197 -34 534 165 534 c 0
 361 534 364 197 165 197 c 0
323 132 m 1
 12 132 l 1
 12 170 l 1
 323 170 l 1
 323 132 l 1
165 208 m 0
 287 208 287 522 165 522 c 0
 42 522 42 208 165 208 c 0
EndSplineSet
EndChar
StartChar: guillemotright
Encoding: 187 187 122
Width: 827
DStem: 38 502 38 565 368 338 453 350 321 502 321 565 651 338 736 350 368 322 453 312 38 148 38 84 651 322 736 312 321 148 321 84
Fore
736 312 m 1
 321 84 l 1
 321 148 l 1
 651 322 l 1
 651 338 l 1
 321 502 l 1
 321 565 l 1
 736 350 l 1
 736 312 l 1
453 312 m 1
 38 84 l 1
 38 148 l 1
 368 322 l 1
 368 338 l 1
 38 502 l 1
 38 565 l 1
 453 350 l 1
 453 312 l 1
EndSplineSet
EndChar
StartChar: onequarter
Encoding: 188 188 123
Width: 419
HStem: 0 21G<111 141> 58 30<222 340 369 398> 406 8<41 141> 645 20G<206 241> 651 20G<57 77>
VStem: 77 27<428 671> 340 29<3 58 88 294>
DStem: 206 665 241 665 111 0 141 0 352 294 340 250 178 58 222 88
Fore
141 406 m 1
 41 406 l 1
 41 414 l 1
 64 414 l 2
 71 414 77 421 77 428 c 2
 77 671 l 1
 57 671 l 1
 57 680 l 1
 104 697 l 1
 104 428 l 2
 104 422 111 414 117 414 c 2
 141 414 l 1
 141 406 l 1
398 58 m 1
 369 58 l 1
 369 3 l 1
 340 3 l 1
 340 58 l 1
 178 58 l 1
 352 294 l 1
 369 294 l 1
 369 88 l 1
 398 88 l 1
 398 58 l 1
340 88 m 1
 340 250 l 1
 222 88 l 1
 340 88 l 1
206 665 m 1
 241 665 l 1
 141 0 l 1
 111 0 l 1
 206 665 l 1
EndSplineSet
EndChar
StartChar: onehalf
Encoding: 189 189 124
Width: 385
HStem: 0 21G<111 141> 1 40<224 352> 406 8<41 141> 645 20G<206 241> 651 20G<57 77>
VStem: 77 27<428 671> 209 147<21 232>
DStem: 206 665 241 665 111 0 141 0 354 60 363 60 349 41 352 1
Fore
141 406 m 1
 41 406 l 1
 41 414 l 1
 64 414 l 2
 71 414 77 421 77 428 c 2
 77 671 l 1
 57 671 l 1
 57 680 l 1
 104 697 l 1
 104 428 l 2
 104 422 111 414 117 414 c 2
 141 414 l 1
 141 406 l 1
363 60 m 1
 352 1 l 1
 209 1 l 1
 209 21 l 2
 209 89 312 140 316 220 c 0
 317 247 298 269 269 270 c 0
 238 272 218 245 213 218 c 1
 207 218 l 1
 210 258 240 293 283 291 c 0
 318 290 355 274 356 232 c 0
 357 156 250 103 233 63 c 0
 226 46 227 49 224 41 c 1
 349 41 l 1
 354 60 l 1
 363 60 l 1
206 665 m 1
 241 665 l 1
 141 0 l 1
 111 0 l 1
 206 665 l 1
EndSplineSet
EndChar
StartChar: threequarters
Encoding: 190 190 125
Width: 488
HStem: 0 21G<164 194> 58 30<278 396 425 454> 554 15<82 90> 645 20G<259 294>
VStem: 396 29<3 58 88 294>
DStem: 259 665 294 665 164 0 194 0 408 294 396 250 234 58 278 88
Fore
163 476 m 0
 166 517 119 554 94 554 c 2
 82 554 l 1
 82 569 l 1
 90 570 93 571 100 575 c 0
 123 587 135 609 132 636 c 0
 128 690 48 679 48 633 c 1
 41 633 l 1
 41 673 78 694 115 692 c 0
 174 690 185 628 149 599 c 0
 143 595 141 591 134 588 c 1
 135 582 l 1
 138 580 139 577 141 576 c 0
 227 543 224 409 96 405 c 0
 65 404 35 426 37 457 c 0
 39 495 88 494 86 461 c 0
 86 446 78 437 62 440 c 1
 67 430 72 426 80 420 c 0
 100 404 160 424 163 476 c 0
454 58 m 1
 425 58 l 1
 425 3 l 1
 396 3 l 1
 396 58 l 1
 234 58 l 1
 408 294 l 1
 425 294 l 1
 425 88 l 1
 454 88 l 1
 454 58 l 1
396 88 m 1
 396 250 l 1
 278 88 l 1
 396 88 l 1
259 665 m 1
 294 665 l 1
 194 0 l 1
 164 0 l 1
 259 665 l 1
EndSplineSet
EndChar
StartChar: questiondown
Encoding: 191 191 126
Width: 419
HStem: -34 111<247 290>
VStem: 56 22<109 129>
Fore
231 329 m 0
 241 401 242 414 254 490 c 0
 257 510 275 509 276 489 c 0
 283 421 289 371 298 293 c 0
 301 265 311 227 284 222 c 0
 194 205 78 196 78 109 c 0
 78 58 124 34 170 34 c 0
 220 34 252 77 290 77 c 0
 316 77 335 56 335 32 c 0
 335 -11 290 -34 247 -34 c 0
 154 -34 57 31 56 129 c 0
 56 216 135 268 204 296 c 0
 219 302 228 312 231 329 c 0
238 578 m 0
 178 618 238 708 298 668 c 0
 358 628 298 537 238 578 c 0
EndSplineSet
EndChar
StartChar: Aring
Encoding: 197 197 132
Width: 732
HStem: 0 25<37 258 482 684> 320 22<269 451> 643 20G<344.5 401.5> 748 29<363 377>
DStem: 353 609 365 575 137 83 269 342 353 609 261 320 137 83 173 105 451 320 400 635 543 55 604 65
Fore
684 0 m 1
 482 0 l 1
 482 25 l 1
 523 25 l 2
 538 25 548 41 543 55 c 2
 451 320 l 1
 261 320 l 1
 173 105 l 1
 160 72 183 25 220 25 c 2
 258 25 l 1
 258 0 l 1
 37 0 l 1
 37 25 l 1
 72 25 l 2
 100 25 127 59 137 83 c 2
 353 609 l 1
 344 634 l 1
 277 659 289 778 375 777 c 0
 463 776 470 661 400 635 c 1
 604 65 l 2
 612 42 644 25 667 25 c 2
 684 25 l 1
 684 0 l 1
374 748 m 0
 317 749 316 663 373 663 c 0
 430 663 430 748 374 748 c 0
444 342 m 1
 365 575 l 1
 269 342 l 1
 444 342 l 1
EndSplineSet
MinimumDistance: x13,8 x3,20 
EndChar
StartChar: AE
Encoding: 198 198 133
Width: 888
HStem: 0 25<37 258 325 781> 0 30<500 781> 352 24<468 570> 354 16<288 413> 468 20G<667 685> 631 30<325 646> 637 24<325 379>
VStem: 413 55<61 352 370 593> 413 272<61 488> 667 18<234 488>
DStem: 379 637 400 628 135 83 288 370 379 637 281 354 135 83 179 118
Fore
834 196 m 1
 781 0 l 1
 325 0 l 1
 325 24 l 1
 378 24 l 2
 396 24 413 44 413 61 c 2
 413 354 l 1
 281 354 l 1
 179 118 l 2
 166 88 181 25 220 25 c 2
 258 25 l 1
 258 0 l 1
 37 0 l 1
 37 25 l 1
 75 25 l 2
 96 25 128 66 135 83 c 1
 379 637 l 1
 325 637 l 1
 325 661 l 1
 790 661 l 1
 834 461 l 1
 813 461 l 1
 800 491 l 2
 766 569 726 631 634 631 c 2
 506 631 l 2
 480 631 468 604 468 581 c 2
 468 376 l 1
 568 376 l 2
 616 376 667 421 667 470 c 2
 667 488 l 1
 685 488 l 1
 685 234 l 1
 667 234 l 1
 667 252 l 2
 667 303 619 352 568 352 c 2
 468 352 l 1
 468 80 l 2
 468 57 480 30 506 30 c 2
 634 30 l 2
 721 30 768 89 800 165 c 2
 813 196 l 1
 834 196 l 1
413 370 m 1
 413 600 l 2
 413 610 407 621 400 628 c 1
 288 370 l 1
 413 370 l 1
EndSplineSet
MinimumDistance: x14,9 
EndChar
StartChar: Eth
Encoding: 208 208 143
Width: 650
HStem: 0 24<23 252> 0 30<198 280> 304 39<32 111 166 249> 631 30<23 360> 637 24<23 78>
VStem: 111 55<61 304 343 583> 557 62<335 369>
Fore
619 347 m 4
 619 150 457 0 252 0 c 2
 23 0 l 1
 23 24 l 1
 76 24 l 2
 94 24 111 44 111 61 c 2
 111 304 l 1
 32 304 l 1
 32 343 l 1
 111 343 l 1
 111 600 l 2
 111 617 94 637 76 637 c 2
 23 637 l 1
 23 661 l 1
 352 661 l 2
 537 661 619 528 619 347 c 4
557 359 m 4
 557 492 480 631 346 631 c 2
 203 631 l 2
 178 631 166 602 166 581 c 2
 166 343 l 1
 249 343 l 1
 249 304 l 1
 166 304 l 1
 166 80 l 2
 166 59 178 30 203 30 c 2
 297 30 l 2
 460 30 557 195.694 557 359 c 4
EndSplineSet
EndChar
StartChar: multiply
Encoding: 215 215 150
Width: 296
DStem: 49 346 81 378 117 279 149 311 117 279 149 248 49 213 81 181 149 248 181 279 216 182 248 214 216 377 248 346 149 311 181 279
Fore
248 214 m 1
 216 182 l 1
 149 248 l 1
 81 181 l 1
 49 213 l 1
 117 279 l 1
 49 346 l 1
 81 378 l 1
 149 311 l 1
 216 377 l 1
 248 346 l 1
 181 279 l 1
 248 214 l 1
EndSplineSet
EndChar
StartChar: Oslash
Encoding: 216 216 151
Width: 710
HStem: -21 21<344 378> 650 21<344 378>
VStem: 57 64<310 344> 598 62<310 344>
DStem: 149 67 178 40 83 -41 128 -41 483 609 512 582 176 110 200 76 536 695 581 695 500 636 532 615
Fore
581 695 m 1
 532 615 l 1
 616.958 550.495 659.759 438.341 660 326 c 0
 660.372 152.722 559.81 -21 359 -21 c 0
 285 -21 225 2 178 40 c 1
 128 -41 l 1
 83 -41 l 1
 149 67 l 1
 86.8146 134.247 57 231.816 57 329 c 4
 57 501 158.801 671 358 671 c 0
 413 671 460 658 500 636 c 1
 536 695 l 1
 581 695 l 1
512 582 m 1
 200 76 l 1
 239 29 291 0 358 0 c 0
 519.674 0 598 165.91 598 330 c 0
 598 427 568.006 520.836 512 582 c 1
483 609 m 1
 449 635 407 650 359 650 c 0
 197.366 650 121 482 121 317 c 4
 121 242.068 141.034 167.756 176 110 c 1
 483 609 l 1
EndSplineSet
EndChar
StartChar: Thorn
Encoding: 222 222 157
Width: 471
HStem: -213 24<30 260> 124 25<173 295> 388 30<173 287> 638 24<30 85 30 260>
VStem: 118 55<-152 388 418 603>
Fore
457 294 m 0
 466 170 387 124 295 124 c 2
 173 124 l 1
 173 -152 l 2
 173 -171 189 -189 208 -189 c 2
 260 -189 l 1
 260 -213 l 1
 30 -213 l 1
 30 -189 l 1
 83 -189 l 2
 101 -189 118 -169 118 -152 c 0
 118 0 118 543 118 601 c 0
 118 618 101 638 83 638 c 2
 30 638 l 1
 30 662 l 1
 260 662 l 1
 260 638 l 1
 208 638 l 2
 189 638 173 620 173 601 c 2
 173 418 l 1
 310 418 l 2
 385 418 450 393 457 294 c 0
393 292 m 0
 393 355 334 388 273 388 c 2
 173 388 l 1
 173 149 l 1
 272 149 l 2
 354 149 394 192 393 292 c 0
EndSplineSet
EndChar
StartChar: germandbls
Encoding: 223 223 158
Width: 534
HStem: 0 18<21 147> 416 17<46 91> 647 22<228 261>
VStem: 21 126<0 570> 91 56<43 570> 176 99<97 113> 383 78<474 504> 416 80<143 176>
Fore
416 143 m 0
 416 226 347 299 267 299 c 1
 267 328 l 1
 335 343 383 402.972 383 474 c 0
 383 566 344 647 228 647 c 0
 185 647 147 613 147 570 c 2
 147 0 l 1
 21 0 l 1
 21 18 l 1
 66 18 l 2
 79 18 91 32 91 45 c 2
 91 416 l 1
 46 416 l 1
 46 433 l 1
 91 433 l 1
 91 534 l 2
 91 639 154.995 669 261 669 c 0
 396 669 461 584 461 504 c 0
 461 443.124 426.061 384.63 365 367 c 1
 366 354 l 1
 452.65 310.466 496 246 496 176 c 0
 496 84.9825 421.328 0 294 0 c 0
 236.322 0 176 35.8992 176 97 c 16
 176 132 194.5 162 228.5 162 c 8
 255.521 162 275 146.5 275 113 c 0
 275 81.9839 256 65 225 70 c 1
 238.406 42.8843 259.61 14.5 295.5 14.5 c 16
 366.5 14.5 416 60.8424 416 143 c 0
EndSplineSet
EndChar
StartChar: ae
Encoding: 230 230 165
Width: 644
HStem: -9 39<133 164> -9 68<393 426> 290 28<291 580> 456 16<424 426>
VStem: 20 66<104 134> 220 63<230 250 246 268>
Fore
580 290 m 1
 286 290 l 1
 284 276 283 261 283 246 c 0
 285 149 331 60 404 59 c 0
 478 58 541 91 576 157 c 1
 576 94 l 1
 543 27 485 -9 411 -9 c 0
 339 -9 283 24 251 87 c 1
 233 43 183 -9 133 -9 c 0
 59 -9 20 34.9348 20 104 c 0
 20 237 178 223 220 265 c 1
 220 383 l 2
 220 420 187 439 153 439 c 0
 126 439 104 437 83 424 c 1
 86 406 85 396 81 378 c 0
 73 345 64 307 31 308 c 0
 -24 309 33 472 202 472 c 0
 227 472 273 459 281 406 c 1
 316 446 364 472 424 472 c 0
 516 472 590 376 580 290 c 1
512 318 m 1
 514 371 483 456 424 456 c 0
 352 456 307 392 291 318 c 1
 512 318 l 1
239 114 m 1
 229 143 221 176 220 213 c 1
 220 213 220 207 220 250 c 1
 211 247 202 243 190 238 c 0
 138 214 86 192 86 134 c 0
 86 81.9616 107 31 164 30 c 0
 210 29 227 78 239 114 c 1
EndSplineSet
EndChar
StartChar: eth
Encoding: 240 240 175
Width: 452
HStem: 493 43<208 267 324 406>
Fore
406 493 m 1
 341 493 l 1
 372 388 355 252 325 167 c 0
 291 73 193 0 132 3 c 0
 39 8 46 189 81 280 c 0
 113 362 236 482 302 395 c 1
 304 445 298 457 285 493 c 1
 282 493 207 493 207 493 c 1
 208 536 l 1
 267 536 l 1
 255 576 177 635 134 616 c 2
 110 605 l 1
 115 631 l 1
 148 641 l 2
 220 663 307 598 324 536 c 1
 406 536 l 1
 406 493 l 1
267 386 m 0
 164 413 51 51 127 35 c 0
 222 15 378 357 267 386 c 0
EndSplineSet
EndChar
StartChar: divide
Encoding: 247 247 182
Width: 364
HStem: 260 33<33 312> 366 75<172 178>
VStem: 135 75<146 148 403 413>
Fore
172.5 441 m 4
 193.2 441 210 424.2 210 403.5 c 4
 210 382.8 193.2 366 172.5 366 c 4
 151.8 366 135 382.8 135 403.5 c 4
 135 424.2 151.8 441 172.5 441 c 4
172.5 183.5 m 4
 193.2 183.5 210 166.7 210 146 c 4
 210 125.3 193.2 108.5 172.5 108.5 c 4
 151.8 108.5 135 125.3 135 146 c 4
 135 166.7 151.8 183.5 172.5 183.5 c 4
312 260 m 1
 33 260 l 1
 33 293 l 1
 312 293 l 1
 312 260 l 1
EndSplineSet
EndChar
StartChar: oslash
Encoding: 248 248 183
Width: 515
HStem: -19 21G<47 94> -9 15<242 256> 455 17<242 256>
VStem: 50 60<235 254> 373 60<220 254>
DStem: 99 64 127 33 47 -19 94 -19 320 416 344 378 128 110 148 67
Fore
406 477 m 1
 369 417 l 1
 412.02 370.67 433 301 433 231 c 0
 433 110.942 369.093 -9 242 -9 c 0
 195 -9 157 7 127 33 c 1
 94 -19 l 1
 47 -19 l 1
 99 64 l 1
 65.7355 110.296 50 172.816 50 235 c 0
 50 355 115.843 472 242 472 c 0
 280 472 312 462 338 444 c 1
 359 477 l 1
 406 477 l 1
320 416 m 1
 300 440 274 455 242 455 c 0
 155.164 455 110 347 110 235 c 0
 110 191.399 115.294 147.552 128 110 c 1
 320 416 l 1
344 378 m 1
 148 67 l 1
 170 30 201 6 242 6 c 0
 329.387 6 373 117.97 373 230 c 0
 373 283 363.677 336.71 344 378 c 1
EndSplineSet
EndChar
StartChar: thorn
Encoding: 254 254 189
Width: 524
HStem: -147 18<34 230> -9 17<280 291> 472 21G<256.5 341> 550 18<34 83 34 230>
VStem: 104 56<-102 28 -102 333 -102 525> 406 70<220 270>
Fore
476 243 m 0
 476 108.966 380 -9 280 -9 c 0
 233.989 -9 192 2 160 28 c 1
 160 -102 l 2
 160 -115 172 -129 185 -129 c 2
 230 -129 l 1
 230 -147 l 1
 34 -147 l 1
 34 -129 l 1
 79 -129 l 2
 92 -129 104 -114 104 -102 c 2
 104 523 l 2
 104 535 92 550 79 550 c 2
 34 550 l 1
 34 568 l 1
 230 568 l 1
 230 550 l 1
 185 550 l 2
 172 550 160 536 160 523 c 2
 160 424 l 1
 194 457 233 472 280 472 c 4
 402 472 476 416 476 243 c 0
406 239 m 0
 406 392 344 454.25 277.25 454.25 c 4
 212 454.25 160 390.176 160 331 c 2
 160 116 l 2
 160 54.1855 199.975 8 280 8 c 0
 360 8 406 123 406 239 c 0
EndSplineSet
EndChar
StartChar: Dcroat
Encoding: 272 272 207
Width: 650
HStem: 0 24<23 252> 0 30<198 280> 304 39<32 111 166 249> 631 30<23 360> 637 24<23 78>
VStem: 111 55<61 304 343 583>
Fore
619 347 m 0
 619 150 457 0 252 0 c 2
 23 0 l 1
 23 24 l 1
 76 24 l 2
 94 24 111 44 111 61 c 2
 111 304 l 1
 32 304 l 1
 32 343 l 1
 111 343 l 1
 111 600 l 2
 111 617 94 637 76 637 c 2
 23 637 l 1
 23 661 l 1
 352 661 l 2
 537 661 619 522 619 347 c 0
557 359 m 0
 548 493 480 631 346 631 c 2
 203 631 l 2
 178 631 166 602 166 581 c 2
 166 343 l 1
 249 343 l 1
 249 304 l 1
 166 304 l 1
 166 80 l 2
 166 59 178 30 203 30 c 2
 297 30 l 2
 460 30 567 196 557 359 c 0
EndSplineSet
EndChar
StartChar: dcroat
Encoding: 273 273 208
Width: 487
HStem: 454 18<233 259> 506 42<290 351 407 468>
VStem: 34 73<228 258.755> 351 56<120 506 548 680>
Fore
468 506 m 1
 407 506 l 1
 407 76 l 1
 430 66 l 1
 430 45 l 1
 351 -9 l 1
 351 21 l 1
 318 1 275 -8 233 -9 c 0
 112 -13 38 89 34 228 c 0
 31 350 110 471 233 472 c 0
 280 473 320 459 351 432 c 1
 351 506 l 1
 290 506 l 1
 290 548 l 1
 351 548 l 1
 351 595 l 1
 303 605 l 1
 306 621 l 1
 407 680 l 1
 407 548 l 1
 468 548 l 1
 468 506 l 1
351 121 m 1
 351 298 l 2
 351 425 330 454 233 454 c 0
 135 453 109 336 107 239 c 0
 104 135 132 -1 235 8 c 0
 311 14 341 45 351 121 c 1
EndSplineSet
EndChar
StartChar: Hbar
Encoding: 294 294 229
Width: 695
HStem: 0 24<45 275 417 648> 336 21<188 505> 500 34<70 133 188 505 560 630> 637 24<45 100 45 275 417 478 417 648>
VStem: 133 55<61 336 61 500 534 602> 505 55<61 336 357 500 534 602>
Fore
648 0 m 1
 417 0 l 1
 417 24 l 1
 470 24 l 2
 488 24 505 44 505 61 c 2
 505 336 l 1
 188 336 l 1
 188 61 l 2
 188 42 204 24 223 24 c 2
 275 24 l 1
 275 0 l 1
 45 0 l 1
 45 24 l 1
 98 24 l 2
 116 24 133 44 133 61 c 2
 133 500 l 1
 70 500 l 1
 70 534 l 1
 133 534 l 1
 133 600 l 2
 133 617 116 637 98 637 c 2
 45 637 l 1
 45 661 l 1
 275 661 l 1
 275 637 l 1
 223 637 l 2
 204 637 188 619 188 600 c 2
 188 534 l 1
 505 534 l 1
 505 600 l 2
 505 617 488 637 470 637 c 2
 417 637 l 1
 417 661 l 1
 648 661 l 1
 648 637 l 1
 595 637 l 2
 576 637 560 619 560 600 c 2
 560 534 l 1
 630 534 l 1
 630 500 l 1
 560 500 l 1
 560 61 l 2
 560 42 576 24 595 24 c 2
 648 24 l 1
 648 0 l 1
505 357 m 1
 505 500 l 1
 188 500 l 1
 188 357 l 1
 505 357 l 1
EndSplineSet
EndChar
StartChar: hbar
Encoding: 295 295 230
Width: 510
HStem: 0 18<28 224 292 488> 500 34<35 98 154 216>
VStem: 98 56<45 374 45 500 534 665> 362 56<45 376>
Fore
488 0 m 1
 292 0 l 1
 292 18 l 1
 337 18 l 2
 350 18 362 32 362 45 c 2
 362 366 l 2
 362 409 325 447 282 445 c 0
 233 443 180 404 154 374 c 1
 154 45 l 2
 154 32 165 18 179 18 c 2
 224 18 l 1
 224 0 l 1
 28 0 l 1
 28 18 l 1
 72 18 l 2
 85 18 98 32 98 45 c 2
 98 500 l 1
 35 500 l 1
 35 534 l 1
 98 534 l 1
 98 567 l 1
 43 583 l 1
 43 598 l 1
 154 665 l 1
 154 534 l 1
 216 534 l 1
 216 500 l 1
 154 500 l 1
 154 402 l 1
 185 435 241 469 296 472 c 0
 351 476 418 463 418 397 c 2
 418 45 l 2
 418 33 430 18 443 18 c 2
 488 18 l 1
 488 0 l 1
EndSplineSet
EndChar
StartChar: dotlessi
Encoding: 305 305 240
Width: 262
HStem: 0 18<31 228>
VStem: 102 55<45 376>
Fore
228 0 m 1
 31 0 l 1
 31 18 l 1
 76 18 l 2
 89 18 102 32 102 45 c 2
 102 376 l 1
 49 394 l 1
 49 407 l 1
 157 474 l 1
 157 45 l 2
 157 32 170 18 183 18 c 2
 228 18 l 1
 228 0 l 1
EndSplineSet
EndChar
StartChar: kgreenlandic
Encoding: 312 312 247
Width: 526
HStem: 0 18<28 224 443 496> 444 18<28 77 28 224> 447 16<251 286 467.833 476>
VStem: 98 56<45 204 45 419>
DStem: 209 254 256 297 340 38 417 38 284 340 357 389 154 217 256 297 284 340 209 254 154 217 154 204
Fore
496 0 m 1
 446 0 371 -14 340 38 c 2
 209 254 l 1
 154 204 l 1
 154 45 l 2
 154 32 165 18 179 18 c 2
 224 18 l 1
 224 0 l 1
 28 0 l 1
 28 18 l 1
 72 18 l 2
 85 18 98 32 98 45 c 2
 98 417 l 2
 98 430 85 444 72 444 c 2
 28 444 l 1
 28 462 l 1
 224 462 l 1
 224 444 l 1
 179 444 l 2
 165 444 154 430 154 417 c 2
 154 217 l 1
 284 340 l 2
 319 373 335 447 280 447 c 2
 251 447 l 1
 251 463 l 1
 476 463 l 1
 476 447 l 1
 427 441 392 421 357 389 c 2
 256 297 l 1
 417 38 l 1
 421 28 439 18 450 18 c 2
 496 18 l 1
 496 0 l 1
EndSplineSet
MinimumDistance: x22,26 
EndChar
StartChar: Lslash
Encoding: 321 321 256
Width: 567
HStem: 0 24<28 483> 637 24<28 83 28 259>
VStem: 117 55<63 429 466 602>
Fore
533 179 m 1
 483 0 l 1
 28 0 l 1
 28 24 l 1
 81 24 l 2
 109 24 117 53 117 76 c 2
 117 429 l 1
 45 411 l 1
 45 448 l 1
 117 466 l 1
 117 600 l 2
 117 618 99 637 81 637 c 2
 28 637 l 1
 28 661 l 1
 259 661 l 1
 259 637 l 1
 206 637 l 2
 187 637 172 618 172 600 c 2
 172 479 l 1
 244 495 l 1
 244 458 l 1
 172 442 l 1
 172 73 l 2
 172 50 184 23 210 23 c 2
 330 23 l 2
 416 23 495 99 518 179 c 1
 533 179 l 1
EndSplineSet
EndChar
StartChar: lslash
Encoding: 322 322 257
Width: 262
HStem: 0 18<31 227>
VStem: 101 56<45 429 466 670>
Fore
228 464 m 1
 157 445 l 1
 157 45 l 2
 157 32 169 18 182 18 c 2
 227 18 l 1
 227 0 l 1
 31 0 l 1
 31 18 l 1
 76 18 l 2
 89 18 101 33 101 45 c 2
 101 429 l 1
 31 411 l 1
 31 448 l 1
 101 466 l 1
 101 572 l 1
 46 587 l 1
 46 603 l 1
 157 670 l 1
 157 482 l 1
 228 501 l 1
 228 464 l 1
EndSplineSet
EndChar
StartChar: napostrophe
Encoding: 329 329 264
Width: 510
HStem: 0 18<28 224 292 488>
VStem: 98 56<45 376> 362 56<45 378>
Fore
488 0 m 1
 292 0 l 1
 292 18 l 1
 337 18 l 2
 350 18 362 32 362 45 c 2
 362 366 l 2
 362 409 325 447 282 445 c 0
 233 443 181 405 154 376 c 1
 154 45 l 2
 154 32 167 18 180 18 c 2
 224 18 l 1
 224 0 l 1
 28 0 l 1
 28 18 l 1
 73 18 l 2
 87 18 98 32 98 45 c 2
 98 376 l 1
 44 391 l 1
 44 407 l 1
 154 474 l 1
 154 403 l 1
 186 435 241 469 296 472 c 0
 351 476 418 463 418 397 c 2
 418 45 l 2
 418 33 430 18 443 18 c 2
 488 18 l 1
 488 0 l 1
349 611 m 1
 345 600 341 591 333 581 c 0
 320 564 311 556 293 546 c 0
 282 541 275 538 262 535 c 1
 251 548 l 1
 261 551 266 554 273 560 c 0
 282 567 287 573 289 583 c 0
 290 590 291 595 287 601 c 1
 252 623 264 688 316 685 c 0
 358 683 367 636 349 611 c 1
EndSplineSet
EndChar
StartChar: Eng
Encoding: 330 330 265
Width: 730
HStem: 0 25<43 279> 637 24<69 123 492 547 492 723> 640 20G<492 723>
VStem: 157 19<103.504 598> 580 55<81 602>
DStem: 176 598 199 661 568 -7 580 81
Fore
723 636 m 1
 670 636 l 2
 651 636 635 618 635 599 c 2
 635 132 l 2
 635 44 605 -107 494 -107 c 0
 446 -107 399 -73 401 -25 c 0
 402 7 428 36 460 33 c 0
 487 31 507 9 509 -18 c 0
 512 -49 493 -76 463 -81 c 1
 478 -88 488 -93 505 -90 c 0
 535 -84 564 -41 568 -7 c 1
 176 598 l 1
 176 117 l 2
 176 82 198 25 241 25 c 2
 279 25 l 1
 279 0 l 1
 43 0 l 1
 43 25 l 1
 92 25 l 2
 134 25 157 82 157 117 c 2
 157 600 l 2
 157 618 139 637 121 637 c 2
 69 637 l 1
 69 661 l 1
 199 661 l 1
 580 81 l 1
 580 599 l 2
 580 617 563 636 545 636 c 2
 492 636 l 1
 492 660 l 1
 723 660 l 1
 723 636 l 1
EndSplineSet
EndChar
StartChar: eng
Encoding: 331 331 266
Width: 510
HStem: 0 18<28 224>
VStem: 98 56<45 376> 362 56<-69 378>
Fore
418 -35 m 2
 418 -94 371 -144 316 -146 c 0
 236 -148 245 -58 296 -57 c 0
 330 -56 343 -92 321 -117 c 0
 315 -124 313 -128 305 -132 c 1
 316 -132 322 -130 332 -125 c 0
 354 -113 362 -94 362 -69 c 0
 362 366 362 -69 362 366 c 0
 362 409 325 447 282 445 c 0
 233 443 181 405 154 376 c 1
 154 45 l 2
 154 32 167 18 180 18 c 2
 224 18 l 1
 224 0 l 1
 28 0 l 1
 28 18 l 1
 73 18 l 2
 87 18 98 32 98 45 c 2
 98 376 l 1
 44 391 l 1
 44 407 l 1
 154 474 l 1
 154 403 l 1
 186 435 241 469 296 472 c 0
 351 476 418 463 418 397 c 2
 418 -35 l 2
EndSplineSet
EndChar
StartChar: OE
Encoding: 338 338 273
Width: 1006
HStem: -22 20G<166 471> 0 30<613 889> 352 24<579 679> 468 20G<775 797> 631 30<387 760> 646 15<374 392>
VStem: 526 53<87 352 87 581> 526 271<87 488> 775 22<234 488>
Fore
942 196 m 1
 889 0 l 1
 718 0 555 -2 387 -2 c 4
 -55 -2 -55 661 387 661 c 2
 898 661 l 1
 942 461 l 1
 922 461 l 1
 908 491 l 2
 872 569 837 631 743 631 c 2
 615 631 l 2
 589 631 579 604 579 581 c 2
 579 376 l 1
 677 376 l 2
 725 376 775 421 775 470 c 2
 775 488 l 1
 797 488 l 1
 797 234 l 1
 775 234 l 1
 775 252 l 2
 775 302 727 352 677 352 c 2
 579 352 l 1
 579 259 579 72 579 72 c 1
 580 52 595 30 617 30 c 2
 743 30 l 2
 833 30 874 89 908 165 c 2
 922 196 l 1
 942 196 l 1
526 87 m 1
 526 572 l 1
 494 614 444 646 390 646 c 0
 44 646 16 15 387 15 c 0
 407 15 427 20 444 24 c 1
 477 36 504 58 526 87 c 1
EndSplineSet
EndChar
StartChar: oe
Encoding: 339 339 274
Width: 798
HStem: -9 15<227.896 245> -9 68<556 579> 290 28<445 746> 455 17<227.896 245 575 579>
Fore
746 290 m 1
 440 290 l 1
 439 276 438 261 438 246 c 0
 439 149 486 60 558 59 c 0
 634 58 695 90 730 157 c 1
 730 94 l 1
 697 27 639 -9 565 -9 c 0
 491 -9 433 26 402 94 c 1
 371 33 318 -9 242 -9 c 0
 -13 -9 -13 472 242 472 c 0
 321 472 376 425 406 361 c 1
 439 425 494 472 575 472 c 0
 659 472 756 370 746 290 c 1
678 318 m 1
 678 374 641 456 575 456 c 0
 502 456 461 392 445 318 c 1
 678 318 l 1
242 6 m 0
 417 6 417 455 242 455 c 0
 66 455 66 6 242 6 c 0
EndSplineSet
EndChar
StartChar: Tbar
Encoding: 358 358 293
Width: 741
HStem: 0 24<251 482> 423 35<272 339 394 460> 630 31<105 306 105 528>
VStem: 339 55<61 423 458 582>
Fore
710 490 m 1
 690 489 l 1
 669 571 592 630 511 630 c 2
 431 630 l 2
 406 630 394 601 394 580 c 2
 394 458 l 1
 460 458 l 1
 460 423 l 1
 394 423 l 1
 394 61 l 2
 394 42 410 24 429 24 c 2
 482 24 l 1
 482 0 l 1
 251 0 l 1
 251 24 l 1
 304 24 l 2
 322 24 339 44 339 61 c 2
 339 423 l 1
 272 423 l 1
 272 458 l 1
 339 458 l 1
 339 580 l 2
 339 603 328 630 302 630 c 2
 261 630 l 2
 171 630 88 585 69 489 c 1
 47 490 l 1
 105 661 l 1
 653 661 l 1
 710 490 l 1
EndSplineSet
EndChar
StartChar: tbar
Encoding: 359 359 294
Width: 265
HStem: 284 37<21 84 140 215> 413 43<140 205>
VStem: 84 56<62 284 321 413>
Fore
223 64 m 1
 225 42 195 -8 139 -9 c 0
 94 -9 84 35 84 73 c 2
 84 284 l 1
 21 284 l 1
 21 321 l 1
 84 321 l 1
 84 413 l 1
 28 413 l 1
 28 435 l 1
 122 560 l 1
 140 546 l 1
 140 456 l 1
 221 456 l 1
 205 413 l 1
 140 413 l 1
 140 321 l 1
 215 321 l 1
 215 284 l 1
 140 284 l 1
 140 65 l 2
 140 48 157 35 174 36 c 0
 194 38 222 66 221 83 c 1
 223 64 l 1
EndSplineSet
EndChar
StartChar: longs
Encoding: 383 383 318
Width: 238
HStem: 0 18<13 209> 416 17<38 83> 665 21G<156 202.5>
VStem: 83 56<45 416 433 619>
Fore
249 615 m 0
 250 575 177 578 177 628 c 0
 177 636 179 642 183 649 c 1
 161 658 139 644 139 619 c 2
 139 45 l 2
 139 32 150 18 164 18 c 2
 209 18 l 1
 209 0 l 1
 13 0 l 1
 13 18 l 1
 57 18 l 2
 70 18 83 32 83 45 c 2
 83 416 l 1
 38 416 l 1
 38 433 l 1
 83 433 l 1
 83 570 l 2
 83 624 129 665 183 665 c 0
 222 665 248 647 249 615 c 0
EndSplineSet
EndChar
StartChar: uni0180
Encoding: 384 384 319
Width: 489
HStem: 513 21<14 70 126 176>
VStem: 70 56<-9 344 -9 513 534 683> 373 70<214 264>
Fore
443 243 m 0
 446 109 347 -7 247 -9 c 0
 198 -10 152 3 119 32 c 0
 120 32 70 -9 70 -9 c 1
 70 513 l 1
 14 513 l 1
 14 534 l 1
 70 534 l 1
 70 598 l 1
 25 607 l 1
 25 619 l 1
 126 683 l 1
 126 534 l 1
 176 534 l 1
 176 513 l 1
 126 513 l 1
 126 428 l 1
 157 456 198 470 247 472 c 0
 369 476 440 411 443 243 c 0
373 239 m 0
 373 399 272 459 239 454 c 0
 149 441 126 386 126 322 c 2
 126 120 l 1
 135 58 165 6 247 8 c 0
 326 10 373 123 373 239 c 0
EndSplineSet
EndChar
StartChar: uni0181
Encoding: 385 385 320
Width: 553
HStem: 0 24<22 281> 0 30<196 283> 361 27<165 309> 631 30<22 326> 642 19<17 77>
VStem: 110 55<61 361 61 593> 412 48<535 545>
Fore
484 220 m 0
 487 103 397 0 281 0 c 2
 22 0 l 1
 22 24 l 1
 75 24 l 2
 93 24 110 44 110 61 c 2
 110 605 l 2
 110 623 93 642 75 642 c 2
 17 642 l 2
 -5 642 -24 635 -20 611 c 1
 -13 613 -6 613 1 612 c 0
 50 599 35 528 -3 539 c 0
 -34 547 -49 578 -40 616 c 0
 -28 663 22 661 22 661 c 1
 315 661 l 2
 402 661 460 630 460 535 c 0
 460 462 427 412 376 382 c 1
 446 357 482 300 484 220 c 0
412 535 m 0
 412 593 366 631 310 631 c 2
 202 631 l 2
 176 631 165 603 165 581 c 2
 165 388 l 1
 277 388 l 2
 355 388 412 456 412 535 c 0
432 206 m 0
 432 279 381 361 309 361 c 2
 165 361 l 1
 165 80 l 2
 165 56 173 30 202 30 c 2
 274 30 l 2
 367 30 432 135 432 206 c 0
EndSplineSet
EndChar
StartChar: uni0182
Encoding: 386 386 321
Width: 583
HStem: 0 24<41 256> 0 34<183 285> 333 25<183 297> 470 21G<531 546> 626 35<40 361> 637 24<40 97>
VStem: 129 54<59 333 358 587>
Fore
129 585 m 2
 129 608 121 637 93 637 c 2
 40 637 l 1
 40 661 l 1
 495 661 l 1
 546 470 l 1
 531 470 l 1
 508 550 429 626 343 626 c 2
 221 626 l 2
 195 626 183 599 183 576 c 0
 183 358 183 358 183 358 c 1
 302 358 l 2
 394 358 483 282 474 158 c 0
 464 24 364 0 256 0 c 2
 41 0 l 1
 41 24 l 1
 94 24 l 2
 112 24 129 44 129 61 c 0
 129 583 129 585 129 585 c 2
183 34 m 1
 283 34 l 2
 344 34 413 97 413 160 c 0
 414 260 364 333 282 333 c 2
 183 333 l 1
 183 34 l 1
EndSplineSet
EndChar
StartChar: uni0183
Encoding: 387 387 322
Width: 583
HStem: 0 34<183 290> 333 25<183 290> 470 21G<531 546> 626 35<129 354>
VStem: 129 54<0 333 358 578>
Fore
546 470 m 1
 531 470 l 1
 508 550 429 626 343 626 c 2
 221 626 l 2
 195 626 183 599 183 576 c 0
 183 358 183 358 183 358 c 1
 302 358 l 2
 394 358 483 282 474 158 c 0
 464 24 364 0 256 0 c 2
 129 0 l 1
 129 661 129 661 129 661 c 1
 495 661 l 1
 546 470 l 1
413 160 m 0
 414 260 364 333 282 333 c 2
 183 333 l 1
 183 34 l 1
 283 34 l 2
 344 34 413 97 413 160 c 0
EndSplineSet
EndChar
StartChar: uni0184
Encoding: 388 388 323
Width: 489
VStem: 70 56<-9 344 -9 683> 373 70<214 264>
Fore
443 243 m 0
 446 109 347 -7 247 -9 c 0
 198 -10 152 3 119 32 c 0
 120 32 70 -9 70 -9 c 1
 70 552 l 1
 70 552 29 592 0 603 c 1
 32 615 126 683 126 683 c 1
 126 428 l 1
 157 456 198 470 247 472 c 0
 369 476 440 411 443 243 c 0
373 239 m 0
 373 399 272 459 239 454 c 0
 149 441 126 386 126 322 c 2
 126 120 l 1
 135 58 165 6 247 8 c 0
 326 10 373 123 373 239 c 0
EndSplineSet
EndChar
StartChar: uni0185
Encoding: 389 389 324
Width: 489
VStem: 70 56<64 344 64 683> 373 70<214 264>
Fore
443 243 m 0
 446 109 347 -7 247 -9 c 0
 165 -11 129 18 70 64 c 1
 70 598 l 1
 25 607 l 1
 25 619 l 1
 126 683 l 1
 126 428 l 1
 157 456 198 470 247 472 c 0
 369 476 440 411 443 243 c 0
373 239 m 0
 373 399 272 459 239 454 c 0
 149 441 126 386 126 322 c 2
 126 120 l 1
 135 58 165 6 247 8 c 0
 326 10 373 123 373 239 c 0
EndSplineSet
EndChar
StartChar: uni0186
Encoding: 390 390 325
Width: 601
HStem: -2 14<281 298> 631 29<137 309>
VStem: 494 64<333 383>
Fore
42 449 m 1
 85 668 l 1
 105 668 l 1
 103 649 118 630 137 631 c 0
 192 632 235 676 296 679 c 0
 512 687 558 493 558 354 c 0
 558 212 493 -4 285 -2 c 0
 183 -1 167 60 137 56 c 0
 115 53 100 28 89 12 c 1
 77 12 l 1
 66 231 l 1
 80 231 l 1
 105 137 178 12 288 12 c 0
 413 12 492 183 494 341 c 0
 496 485 444 660 309 660 c 0
 237 660 147 612 96 534 c 0
 76 503 66 484 56 449 c 1
 42 449 l 1
EndSplineSet
EndChar
StartChar: uni0187
Encoding: 391 391 326
Width: 601
HStem: 17 29<291 463> 665 14<297 317>
VStem: 42 64<301 351>
Fore
636 660 m 0
 637 620 564 623 564 673 c 0
 564 681 566 687 570 694 c 1
 548 703 522 684 523 665 c 2
 534 446 l 1
 520 446 l 1
 516 461 513 470 507 484 c 0
 466 580 409 665 312 665 c 0
 187 665 108 494 106 336 c 0
 104 192 156 17 291 17 c 0
 363 17 453 65 504 143 c 0
 524 174 534 193 544 228 c 1
 558 228 l 1
 515 9 l 1
 495 9 l 1
 497 28 482 46 463 46 c 0
 408 45 365 0 304 -2 c 0
 88 -11 42 184 42 323 c 0
 42 465 107 681 315 679 c 0
 417 678 433 617 463 621 c 0
 474 623 480 629 488 636 c 0
 499 645 503 653 511 665 c 1
 511 665 516 710 570 710 c 0
 609 710 635 692 636 660 c 0
EndSplineSet
EndChar
StartChar: uni0188
Encoding: 392 392 327
Width: 424
HStem: -9 21G<146.5 248> 459 13<369 399>
Fore
464 422 m 0
 465 382 392 385 392 435 c 0
 392 443 395 451 399 458 c 1
 394 460 375 459 369 459 c 0
 356 459 335 444 326 434 c 1
 372 387 371 313 321 310 c 0
 282 308 265 361 274 400 c 0
 277 413 281 420 289 430 c 1
 268 451 259 451 230 452 c 0
 142 455 93 361 90 276 c 0
 86 169 115 58 224 53 c 0
 292 50 338 102 368 157 c 1
 368 110 l 1
 341 49 283 -9 213 -9 c 0
 80 -9 22 108 21 226 c 0
 19 352 119 472 230 472 c 0
 268 472 297 459 319 441 c 1
 329 454 349 472 383 472 c 0
 422 472 463 454 464 422 c 0
EndSplineSet
EndChar
StartChar: uni0189
Encoding: 393 393 328
Width: 710
HStem: 0 24<23 252> 0 30<198 280> 304 39<32 111 166 249> 631 30<23 360> 637 24<23 78>
VStem: 111 55<61 304 343 583>
Fore
619 347 m 0
 619 150 457 0 252 0 c 2
 23 0 l 1
 23 24 l 1
 76 24 l 2
 94 24 111 44 111 61 c 2
 111 304 l 1
 32 304 l 1
 32 343 l 1
 111 343 l 1
 111 600 l 2
 111 617 94 637 76 637 c 2
 23 637 l 1
 23 661 l 1
 352 661 l 2
 537 661 619 522 619 347 c 0
557 359 m 0
 548 493 480 631 346 631 c 2
 203 631 l 2
 178 631 166 602 166 581 c 2
 166 343 l 1
 249 343 l 1
 249 304 l 1
 166 304 l 1
 166 80 l 2
 166 59 178 30 203 30 c 2
 297 30 l 2
 460 30 567 196 557 359 c 0
EndSplineSet
EndChar
StartChar: uni018A
Encoding: 394 394 329
Width: 650
HStem: 0 24<23 279> 0 30<197 299> 631 30<23 359> 642 19<18 78>
VStem: 111 55<61 583>
Fore
619 347 m 0
 620 172 475 0 279 0 c 2
 23 0 l 1
 23 24 l 1
 76 24 l 2
 94 24 111 44 111 61 c 2
 111 605 l 2
 111 623 94 642 76 642 c 2
 18 642 l 2
 -4 642 -23 635 -19 611 c 1
 -12 613 -5 613 2 612 c 0
 51 599 36 528 -2 539 c 0
 -33 547 -48 578 -39 616 c 0
 -27 663 23 661 23 661 c 1
 379 661 l 2
 559 661 618 484 619 347 c 0
557 359 m 0
 548 493 480 631 346 631 c 2
 203 631 l 2
 178 631 166 602 166 581 c 2
 166 80 l 2
 166 59 178 30 203 30 c 2
 297 30 l 2
 460 30 567 196 557 359 c 0
EndSplineSet
EndChar
StartChar: uni018B
Encoding: 395 395 330
Width: 583
HStem: 0 24<487 545> 0 34<295 403> 333 25<284 403> 470 21G<40 55> 637 24<91 545>
VStem: 403 54<34 333 358 587>
Fore
457 585 m 2
 457 585 457 583 457 61 c 0
 457 44 474 24 492 24 c 2
 545 24 l 1
 545 0 l 1
 330 0 l 2
 222 0 122 24 112 158 c 0
 103 282 192 358 284 358 c 2
 403 358 l 1
 403 358 403 358 403 576 c 0
 403 599 391 626 365 626 c 2
 243 626 l 2
 157 626 78 550 55 470 c 1
 40 470 l 1
 91 661 l 1
 546 661 l 1
 546 637 l 1
 493 637 l 2
 465 637 457 608 457 585 c 2
403 34 m 1
 403 333 l 1
 304 333 l 2
 222 333 172 260 173 160 c 0
 173 97 242 34 303 34 c 2
 403 34 l 1
EndSplineSet
EndChar
StartChar: uni018C
Encoding: 396 396 331
Width: 487
HStem: 454 18<233 259> 636 25<133 327>
VStem: 34 73<228 258.755> 351 56<120 661>
Fore
430 45 m 1
 351 -9 l 1
 351 21 l 1
 318 1 275 -8 233 -9 c 0
 112 -13 38 89 34 228 c 0
 31 350 110 471 233 472 c 0
 280 473 320 459 351 432 c 1
 351 601 l 2
 351 617 343 636 324 636 c 2
 239 636 l 2
 179 636 123 583 107 527 c 1
 97 527 l 1
 133 661 l 1
 407 661 l 1
 407 76 l 1
 430 66 l 1
 430 45 l 1
351 121 m 1
 351 298 l 2
 351 425 330 454 233 454 c 0
 135 453 109 336 107 239 c 0
 104 135 132 -1 235 8 c 0
 311 14 341 45 351 121 c 1
EndSplineSet
EndChar
StartChar: uni018D
Encoding: 397 397 332
Width: 482
HStem: -135 16<153 165> -135 141<161 242> 455 17<242 254>
VStem: 232 20<-76 -9>
Fore
252 -9 m 1
 252 -67 l 2
 252 -101 207 -135 161 -135 c 0
 134 -135 94 -124 82 -77 c 0
 73 -39 88 -8 119 0 c 0
 157 11 172 -60 123 -73 c 0
 116 -74 109 -74 102 -72 c 1
 97 -104 137 -119 163 -119 c 0
 190 -119 232 -102 232 -66 c 2
 232 -9 l 1
 111.178 -2.58904 50.963 114.477 50.963 231.499 c 0
 50.963 351.5 114.781 472 242 472 c 0
 369.238 472 433.405 352 433.405 232.5 c 0
 433.405 114.898 373.297 -3.05894 252 -9 c 1
242 6 m 0
 329.63 6 373.25 118.583 373.25 231 c 0
 373.25 343 329.37 455 242 455 c 0
 154.131 455 110 343.5 110 231 c 0
 110 118.584 153.869 6 242 6 c 0
EndSplineSet
EndChar
StartChar: uni018E
Encoding: 398 398 333
Width: 584
HStem: 0 24<469 530> 0 30<213 530> 285 24<287 387> 465 21G<22 42> 637 24<74 530>
VStem: 170 18<173 202 173 427> 387 55<68.3537 285 309 600>
DStem: 22 200 42 200 66 0 55 170 74 661 55 496 22 465 42 465
Fore
22 465 m 1
 74 661 l 1
 530 661 l 1
 530 637 l 1
 477 637 l 2
 459 637 442 617 442 600 c 2
 442 61 l 2
 442 44 459 24 477 24 c 2
 530 24 l 1
 530 0 l 1
 66 0 l 1
 22 200 l 1
 42 200 l 1
 55 170 l 2
 89 92 129 30 221 30 c 2
 349 30 l 2
 375 30 387 57 387 80 c 2
 387 285 l 1
 287 285 l 2
 239 285 188 240 188 191 c 2
 188 173 l 1
 170 173 l 1
 170 427 l 1
 188 427 l 1
 188 409 l 2
 188 358 236 309 287 309 c 2
 387 309 l 1
 387 581 l 2
 387 604 375 631 349 631 c 2
 221 631 l 2
 134 631 87 572 55 496 c 2
 42 465 l 1
 22 465 l 1
EndSplineSet
EndChar
StartChar: uni018F
Encoding: 399 399 334
Width: 579
HStem: -8 23<261 273> 224 28<28 468> 614 66<259 285>
VStem: 28 68<224 252> 485 58<311 329>
Fore
543 321 m 0
 543 151 441 -8 261 -8 c 0
 125 -8 28 118 28 252 c 1
 471 252 l 1
 473 272 485 294 485 315 c 0
 485 461 407 614 280 614 c 0
 172 614 83 564 34 470 c 1
 34 533 l 1
 81 629 164 680 270 680 c 0
 440 680 543 542 543 321 c 0
468 224 m 1
 96 224 l 1
 96 142 164 15 261 15 c 0
 365 15 446 118 468 224 c 1
EndSplineSet
EndChar
StartChar: uni0190
Encoding: 400 400 335
Width: 539
HStem: 2 42<249 278> 331 36<281 307> 628 36<231 261>
VStem: 40 72<177 195> 62 65<481 515>
Fore
488 161 m 1
 453 53 362 2 249 2 c 0
 117 2 40 81 40 189 c 0
 40 270 80 328 177 346 c 2
 185 348 l 2
 189 348 193 350 193 352 c 0
 193 353 190 354 186 354 c 2
 178 356 l 2
 95 370 62 423 62 499 c 0
 62 599 114 664 231 664 c 0
 336 664 356 629 387 629 c 0
 401 629 410 641 413 665 c 1
 437 665 l 1
 438 596 444 528 450 460 c 1
 427 460 l 1
 394 576 342 628 259 628 c 0
 183 628 127 573 127 497 c 0
 127 415 185 367 281 367 c 2
 307 367 l 1
 308 331 l 1
 281 331 l 2
 233 331 200 325 175 311 c 0
 138 291 112 242 112 190 c 0
 112 105 182 44 278 44 c 0
 363 44 429 93 458 170 c 1
 488 161 l 1
EndSplineSet
EndChar
StartChar: uni0191
Encoding: 401 401 336
Width: 556
HStem: 348 25<167 273> 468 20G<363 381> 470 21G<476 491> 627 34<24 337> 637 24<24 81>
VStem: 113 54<-90 348 -90 585> 363 18<234 488>
Fore
491 470 m 1
 476 470 l 1
 469 502 l 2
 453 576 406 627 330 627 c 2
 205 627 l 2
 179 627 167 598 167 576 c 2
 167 373 l 1
 264 373 l 2
 313 373 363 420 363 470 c 2
 363 488 l 1
 381 488 l 1
 381 234 l 1
 363 234 l 1
 363 252 l 2
 363 301 315 348 264 348 c 2
 167 348 l 1
 167 -41 l 2
 167 -95 120 -136 66 -136 c 0
 27 -136 1 -118 0 -86 c 0
 -1 -46 72 -49 72 -99 c 0
 72 -107 70 -113 66 -120 c 1
 88 -129 113 -114 113 -90 c 2
 113 600 l 2
 113 618 95 637 77 637 c 2
 24 637 l 1
 24 661 l 1
 470 661 l 1
 491 470 l 1
EndSplineSet
EndChar
StartChar: florin
Encoding: 402 402 337
Width: 272
HStem: -155 21G<19.5 66> 416 17<38 83 139 192> 665 21G<156 202.5>
VStem: 83 56<-109 416 433 619>
Fore
249 615 m 0
 250 575 177 578 177 628 c 0
 177 636 179 642 183 649 c 1
 161 658 139 644 139 619 c 2
 139 433 l 1
 192 433 l 1
 192 416 l 1
 139 416 l 1
 139 -60 l 2
 139 -114 93 -155 39 -155 c 0
 0 -155 -26 -137 -27 -105 c 0
 -28 -65 45 -68 45 -118 c 0
 45 -126 43 -132 39 -139 c 1
 61 -148 83 -134 83 -109 c 2
 83 416 l 1
 38 416 l 1
 38 433 l 1
 83 433 l 1
 83 570 l 2
 83 624 129 665 183 665 c 0
 222 665 248 647 249 615 c 0
EndSplineSet
EndChar
StartChar: uni0193
Encoding: 403 403 338
Width: 610
HStem: 339 18<397 430 397 591>
VStem: 39 57<313 347> 461 55<90 299>
Fore
636 660 m 0
 637 620 564 623 564 673 c 0
 564 681 566 687 570 694 c 1
 548 703 522 684 523 665 c 2
 534 446 l 1
 520 446 l 1
 516 461 514 470 507 484 c 0
 460 578 394 653 291 645 c 0
 167 635 95 461 96 324 c 0
 98 180 167 9 320 13 c 0
 380 15 428 42 461 91 c 1
 461 295 l 2
 461 316 454 339 428 339 c 2
 397 339 l 1
 397 357 l 1
 591 357 l 1
 591 339 l 1
 546 339 l 2
 523 339 516 313 516 295 c 2
 516 68 l 1
 491 82 l 1
 444 24 378 -3 304 -6 c 0
 136 -12 38 165 39 332 c 0
 39 496 146 667 296 664 c 0
 346 663 380 655 422 629 c 0
 436 620 433 617 463 621 c 0
 483 624 501 650 511 665 c 1
 511 665 516 710 570 710 c 0
 609 710 635 692 636 660 c 0
EndSplineSet
EndChar
StartChar: uni0194
Encoding: 404 404 339
Width: 704
HStem: -147 21G<313.5 368.5> 636 25<41 58 41 228 447 474 447 666>
DStem: 109 589 167 587 324 -6 353 74 109 589 363 47 324 -6 394 -40 324 -6 334 -34 300 -71 320 -71 510 506 531 514 353 74 363 47
Fore
666 636 m 1
 654 636 l 2
 601 636 547 559 531 514 c 2
 363 47 l 1
 394 -40 l 2
 411 -87 404 -147 333 -147 c 0
 294 -147 286 -110 300 -71 c 2
 324 -6 l 1
 109 589 l 1
 100 615 83 636 54 636 c 2
 41 636 l 1
 41 661 l 1
 228 661 l 1
 228 636 l 1
 183 636 l 2
 154 636 161 605 167 587 c 1
 353 74 l 1
 510 506 l 2
 531 563 561 636 472 636 c 2
 447 636 l 1
 447 661 l 1
 666 661 l 1
 666 636 l 1
347 -71 m 2
 334 -34 l 1
 320 -71 l 1
 315 -86 311 -117 330 -119 c 0
 350 -121 357 -99 347 -71 c 2
EndSplineSet
MinimumDistance: x18,1 x9,14 
EndChar
StartChar: uni0195
Encoding: 405 405 340
Width: 683
HStem: 0 18<28 224>
VStem: 98 56<45 374 45 665> 362 56<161 376>
Fore
635 390 m 0
 679 300 646 -7 490 -8 c 0
 410 -8 362 92 362 161 c 2
 362 366 l 2
 362 409 325 447 282 445 c 0
 233 443 180 404 154 374 c 1
 154 45 l 2
 154 32 165 18 179 18 c 2
 224 18 l 1
 224 0 l 1
 28 0 l 1
 28 18 l 1
 72 18 l 2
 85 18 98 32 98 45 c 2
 98 567 l 1
 43 583 l 1
 43 598 l 1
 154 665 l 1
 154 402 l 1
 185 435 241 469 296 472 c 0
 351 476 418 463 418 397 c 2
 418 161 l 2
 418 96 440 11 506 19 c 0
 594 30 632 208 627 300 c 0
 625 321 623 332 617 355 c 1
 598 354 565 370 554 397 c 0
 542 425 555 452 592 440 c 0
 619 432 620 420 635 390 c 0
EndSplineSet
EndChar
StartChar: uni0196
Encoding: 406 406 341
Width: 262
VStem: 102 55<-13.514 567>
Fore
269 -45 m 0
 268 -77 242 -95 203 -95 c 0
 149 -95 102 -54 102 0 c 0
 102 21 102 567 102 567 c 1
 49 585 l 1
 49 598 l 1
 157 665 l 1
 157 -49 l 2
 157 -74 181 -88 203 -79 c 1
 199 -72 197 -66 197 -58 c 0
 197 -8 270 -5 269 -45 c 0
EndSplineSet
EndChar
StartChar: uni0197
Encoding: 407 407 342
Width: 297
HStem: 0 24<45 275> 315 45<50 133 188 269> 637 24<45 100 45 275>
VStem: 133 55<61 315 360 602>
Fore
275 0 m 1
 45 0 l 1
 45 24 l 1
 98 24 l 2
 116 24 133 44 133 61 c 2
 133 315 l 1
 50 315 l 1
 50 360 l 1
 133 360 l 1
 133 600 l 2
 133 617 116 637 98 637 c 2
 45 637 l 1
 45 661 l 1
 275 661 l 1
 275 637 l 1
 223 637 l 2
 204 637 188 619 188 600 c 2
 188 360 l 1
 269 360 l 1
 269 315 l 1
 188 315 l 1
 188 61 l 2
 188 42 204 24 223 24 c 2
 275 24 l 1
 275 0 l 1
EndSplineSet
EndChar
StartChar: uni0198
Encoding: 408 408 343
Width: 662
HStem: 0 24<39 269 424 619> 619 19<578 596> 637 24<39 93 39 269>
VStem: 127 55<61 280 61 602>
DStem: 262 360 303 402 460 65 530 63 435 567 262 360 182 308 182 280
Fore
653 593 m 0
 662 555 647 524 616 516 c 0
 578 505 563 576 612 589 c 0
 619 590 626 590 633 588 c 1
 635 603 608 619 596 619 c 2
 568 619 l 2
 486 619 303 402 303 402 c 1
 530 63 l 2
 538 51 566 25 582 25 c 2
 619 25 l 1
 619 0 l 1
 424 0 l 1
 424 25 l 1
 454 25 l 2
 479 25 468 52 460 65 c 1
 262 360 l 1
 182 280 l 1
 182 61 l 2
 182 43 197 24 216 24 c 2
 269 24 l 1
 269 0 l 1
 39 0 l 1
 39 24 l 1
 91 24 l 2
 110 24 127 43 127 61 c 2
 127 600 l 2
 127 618 110 637 91 637 c 2
 39 637 l 1
 39 661 l 1
 269 661 l 1
 269 637 l 1
 216 637 l 2
 197 637 182 618 182 600 c 2
 182 308 l 1
 435 567 l 2
 459 591 509 638 591 638 c 1
 591 638 642 638 653 593 c 0
EndSplineSet
MinimumDistance: x13,8 
EndChar
StartChar: uni0199
Encoding: 409 409 344
Width: 526
HStem: 0 18<28 224 291 496> 447 16<251 291 467.833 476> 665 21G<172 218.5>
VStem: 98 56<45 577> 99 55<570 619>
DStem: 209 254 256 297 340 38 417 38 284 340 357 389 154 217 256 297 284 340 209 254 154 217 154 204
Fore
496 0 m 1
 291 0 l 1
 291 18 l 1
 336 18 l 2
 351 18 344 31 340 38 c 2
 209 254 l 1
 154 204 l 1
 154 45 l 2
 154 32 165 18 179 18 c 2
 224 18 l 1
 224 0 l 1
 28 0 l 1
 28 18 l 1
 72 18 l 2
 85 18 98 32 98 45 c 0
 99 506 99 407 99 570 c 0
 99 624 145 665 199 665 c 0
 238 665 264 647 265 615 c 0
 266 575 193 578 193 628 c 0
 193 636 195 642 199 649 c 1
 177 658 154 644 154 619 c 2
 154 217 l 1
 284 340 l 2
 319 373 335 447 280 447 c 2
 251 447 l 1
 251 463 l 1
 476 463 l 1
 476 447 l 1
 427 441 393 421 357 389 c 2
 256 297 l 1
 417 38 l 1
 421 28 439 18 450 18 c 2
 496 18 l 1
 496 0 l 1
EndSplineSet
MinimumDistance: x23,27 x3,31 
EndChar
StartChar: uni019A
Encoding: 410 410 345
Width: 262
HStem: 0 18<31 227> 317 45<25 101 157 240>
VStem: 101 56<45 317 362 670>
Fore
240 317 m 1
 157 317 l 1
 157 45 l 2
 157 32 169 18 182 18 c 2
 227 18 l 1
 227 0 l 1
 31 0 l 1
 31 18 l 1
 76 18 l 2
 89 18 101 33 101 45 c 2
 101 317 l 1
 25 317 l 1
 25 362 l 1
 101 362 l 1
 101 572 l 1
 46 587 l 1
 46 603 l 1
 157 670 l 1
 157 362 l 1
 240 362 l 1
 240 317 l 1
EndSplineSet
EndChar
StartChar: uni019B
Encoding: 411 411 346
Width: 388
HStem: 0 18<13 209> 570 66<14 53>
DStem: 156 531 168 503 51 426 71 406 170 381 229 385 83 45 139 45 250 625 270 605 172 547 188 523
Fore
327 91 m 1
 324 141 310 169 297 216 c 0
 280 275 253 324 229 385 c 1
 139 45 l 1
 136 32 152 18 164 18 c 2
 209 18 l 1
 209 0 l 1
 13 0 l 1
 13 18 l 1
 57 18 l 2
 73 18 80 32 83 45 c 1
 170 381 l 1
 183 429 179 470 168 503 c 1
 71 406 l 1
 51 426 l 1
 156 531 l 1
 134 571 102 595 81 597 c 0
 57 600 47 571 14 570 c 0
 -12 570 -5 635 53 636 c 0
 94 637 135 599 172 547 c 1
 250 625 l 1
 270 605 l 1
 188 523 l 1
 227 461 261 385 283 323 c 0
 334 186 398 0 313 0 c 0
 290 0 290 48 314 77 c 0
 318 82 322 86 327 91 c 1
EndSplineSet
MinimumDistance: x9,4 
EndChar
StartChar: uni019C
Encoding: 412 412 347
Width: 785
HStem: 643 18<28 77 28 225 292 339 292 488 556 605 556 752>
VStem: 98 58<77 618> 362 56<96 618> 626 56<97 618>
Fore
752 643 m 1
 707 643 l 2
 693 643 682 629 682 616 c 2
 682 98 l 1
 736 83 l 1
 736 67 l 1
 626 0 l 1
 626 71 l 1
 594 39 539 6 484 2 c 0
 431 -1 367 10 362 70 c 1
 330 38 276 5 222 2 c 0
 167 -2 98 11 98 77 c 2
 98 616 l 2
 98 629 86 643 73 643 c 2
 28 643 l 1
 28 661 l 1
 226 661 l 1
 226 643 l 1
 182 643 l 2
 169 643 156 629 156 616 c 2
 156 108 l 2
 156 65 193 27 236 29 c 0
 283 31 334 68 362 97 c 1
 362 616 l 2
 362 628 350 643 337 643 c 2
 292 643 l 1
 292 661 l 1
 488 661 l 1
 488 643 l 1
 443 643 l 2
 430 643 418 629 418 616 c 2
 418 108 l 2
 418 65 455 27 498 29 c 0
 547 31 599 69 626 98 c 1
 626 616 l 2
 626 629 613 643 600 643 c 2
 556 643 l 1
 556 661 l 1
 752 661 l 1
 752 643 l 1
EndSplineSet
EndChar
StartChar: uni019D
Encoding: 413 413 348
Width: 730
HStem: 0 21G<564 600> 637 24<69 128 478 518 478 713>
VStem: 157 19<-31 598> 580 20<80 550>
DStem: 176 598 197 661 564 0 580 80
Fore
713 636 m 1
 665 636 l 2
 620 636 600 581 600 544 c 2
 600 0 l 1
 564 0 l 1
 176 598 l 1
 176 -26 l 1
 176 -26 178 -76 131 -88 c 0
 93 -97 62 -82 54 -51 c 0
 43 -13 114 2 127 -47 c 0
 128 -54 128 -61 126 -68 c 1
 154 -72 157 -55 157 -31 c 2
 157 600 l 2
 157 618 139 637 121 637 c 2
 69 637 l 1
 69 661 l 1
 197 661 l 1
 580 80 l 1
 580 544 l 2
 580 581 562 636 516 636 c 2
 478 636 l 1
 478 661 l 1
 713 661 l 1
 713 636 l 1
EndSplineSet
EndChar
StartChar: uni01A2
Encoding: 418 418 353
Width: 984
HStem: -191 24<696 927> -21 21<343 377> 650 21<343 377> 665 17<674 698>
VStem: 784 55<-130 466>
Fore
927 -191 m 1
 696 -191 l 1
 696 -167 l 1
 749 -167 l 2
 767 -167 784 -147 784 -130 c 2
 784 509 l 2
 784 569 754 665 687 665 c 0
 644 665 580 623 570 581 c 1
 740 393 670 -21 359 -21 c 0
 -44 -21 -44 671 358 671 c 0
 433 671 493 647 540 609 c 1
 567 649 635 682 676 682 c 0
 781 682 816 614 833 516 c 0
 838 489 839 474 839 447 c 2
 839 -130 l 2
 839 -149 855 -167 874 -167 c 2
 927 -167 l 1
 927 -191 l 1
358 0 m 0
 679 0 677 650 359 650 c 0
 41 650 43 0 358 0 c 0
EndSplineSet
EndChar
StartChar: uni01A3
Encoding: 419 419 354
Width: 664
HStem: -183 24<451 682> -9 15<227.896 245> 455 17<227.896 245> 517 17<442 456>
VStem: 539 55<-122 330>
Fore
682 -183 m 1
 451 -183 l 1
 451 -159 l 1
 504 -159 l 2
 522 -159 539 -139 539 -122 c 2
 539 361 l 2
 539 421 521 517 454 517 c 0
 411 517 361 474 354 432 c 1
 489 317 452 -9 242 -9 c 0
 -13 -9 -13 472 242 472 c 0
 272 472 298 466 320 454 c 1
 342 498 399 534 443 534 c 0
 572 534 594 401 594 299 c 2
 594 -122 l 2
 594 -141 610 -159 629 -159 c 2
 682 -159 l 1
 682 -183 l 1
242 6 m 0
 417 6 417 455 242 455 c 0
 66 455 66 6 242 6 c 0
EndSplineSet
EndChar
StartChar: uni01A4
Encoding: 420 420 355
Width: 491
HStem: 0 24<30 260> 367 18<173 286> 638 23<30 286> 642 19<25 85>
VStem: 118 55<61 367 61 638>
Fore
443 537 m 0
 452 413 373 367 281 367 c 2
 173 367 l 1
 173 61 l 2
 173 42 189 24 208 24 c 2
 260 24 l 1
 260 0 l 1
 30 0 l 1
 30 24 l 1
 83 24 l 2
 101 24 118 44 118 61 c 2
 118 605 l 2
 118 623 101 642 83 642 c 2
 25 642 l 2
 3 642 -16 635 -12 611 c 1
 -5 613 2 613 9 612 c 0
 58 599 43 528 5 539 c 0
 -26 547 -41 578 -32 616 c 0
 -20 663 30 661 30 661 c 1
 296 661 l 2
 371 661 436 636 443 537 c 0
393 535 m 0
 393 598 334 638 273 638 c 2
 173 638 l 1
 173 385 l 1
 272 385 l 2
 354 385 394 435 393 535 c 0
EndSplineSet
EndChar
StartChar: uni01A5
Encoding: 421 421 356
Width: 524
HStem: -147 18<34 230> -9 17<256.525 280>
VStem: 104 56<-102 28 -102 350> 406 70<220 254>
DStem: 371 515 386 507 351 465 367 460
Fore
513 503 m 0
 509 464 437 477 443 526 c 0
 445 534 447 540 452 546 c 1
 424 562 396 531 386 507 c 2
 367 460 l 1
 435 434 474 367 476 243 c 0
 479 109 380 -7 280 -9 c 0
 234 -10 192 2 160 28 c 1
 160 -102 l 2
 160 -115 172 -129 185 -129 c 2
 230 -129 l 1
 230 -147 l 1
 34 -147 l 1
 34 -129 l 1
 79 -129 l 2
 92 -129 104 -114 104 -102 c 2
 104 366 l 1
 61 389 l 1
 61 405 l 1
 160 465 l 1
 160 424 l 1
 190 453 233 470 280 472 c 0
 306 473 329 471 351 465 c 1
 356 477 363 494 371 515 c 0
 382 540 406 573 455 566 c 0
 493 561 517 535 513 503 c 0
406 239 m 0
 406 399 306 459 273 454 c 0
 187 442 160 391 160 331 c 2
 160 116 l 1
 170 55 200 6 280 8 c 0
 359 10 406 123 406 239 c 0
EndSplineSet
EndChar
StartChar: uni01A6
Encoding: 422 422 357
Width: 627
HStem: 0 16<585 601> 0 24<26 256> 367 25<169 276> 631 30<169 299> 740 24<26 81 26 256>
VStem: 114 55<61 367 61 631 61 705>
DStem: 276 367 334 369 452 57 507 72
Fore
601 0 m 1
 537 0 l 2
 494 0 472 22 452 57 c 2
 276 367 l 1
 169 367 l 1
 169 61 l 2
 169 42 185 24 204 24 c 2
 256 24 l 1
 256 0 l 1
 26 0 l 1
 26 24 l 1
 79 24 l 2
 97 24 114 44 114 61 c 2
 114 703 l 2
 114 720 97 740 79 740 c 2
 26 740 l 1
 26 764 l 1
 256 764 l 1
 256 740 l 1
 204 740 l 2
 185 740 169 722 169 703 c 2
 169 661 l 1
 319 661 l 2
 394 661 459 636 466 537 c 0
 474 427 412 378 334 369 c 1
 507 72 l 2
 519 52 561 16 588 16 c 2
 601 16 l 1
 601 0 l 1
405 535 m 0
 405 598 345 631 284 631 c 2
 169 631 l 1
 169 392 l 1
 283 392 l 2
 365 392 406 435 405 535 c 0
EndSplineSet
EndChar
StartChar: uni01A7
Encoding: 423 423 358
Width: 502
HStem: -10 22<226 244> 650 20G<69 80> 657 17<258 276>
VStem: 35 51<131 174> 407 59<490 525>
Fore
35 174 m 0
 35 381 409 342 407 525 c 0
 406 597 340 657 268 657 c 0
 161 657 95 544 71 452 c 1
 57 452 l 1
 69 670 l 1
 80 670 l 1
 88 658 114 628 128 627 c 0
 177 622 162 674 270 674 c 0
 375 674 467 594 466 490 c 0
 465 289 86 355 86 131 c 0
 86 51 168 12 240 12 c 0
 347 12 412 123 437 215 c 1
 451 215 l 1
 440 -2 l 1
 429 -2 l 1
 422 7 392 41 381 40 c 0
 326 35 320 -10 238 -10 c 0
 92 -10 35 97 35 174 c 0
EndSplineSet
EndChar
StartChar: uni01A8
Encoding: 424 424 359
Width: 385
VStem: 44 49<100 119>
Fore
44 119 m 0
 44 278 289 258 281 383 c 0
 278 429 230 452 183 452 c 0
 119 452 80 386 70 330 c 1
 68 330 l 1
 68 440 l 1
 105 457 149 475 190 472 c 0
 267 467 333 420 332 347 c 0
 330 193 95 212 93 100 c 0
 92 52 129 17 176 9 c 0
 245 -3 304 74 312 136 c 1
 315 136 l 1
 315 26 l 1
 276 10 224 -13 183 -9 c 0
 109 -2 44 43 44 119 c 0
EndSplineSet
EndChar
StartChar: uni01A9
Encoding: 425 425 360
Width: 678
HStem: 0 20<62 537> 471 21G<573 588> 638 20<62 430>
DStem: 140 587 213 587 279 356 355 360 279 302 355 360 140 71 180 71
Fore
537 0 m 1
 62 0 l 1
 62 20 l 1
 88 20 l 2
 109 20 130 55 140 71 c 2
 279 302 l 1
 279 356 l 1
 140 587 l 2
 128 606 111 638 85 638 c 2
 62 638 l 1
 62 658 l 1
 567 658 l 1
 588 471 l 1
 573 471 l 1
 566 502 l 2
 550 571 503 638 428 638 c 2
 250 638 l 2
 224 638 197 613 213 587 c 2
 355 360 l 1
 180 71 l 2
 165 46 188 20 218 20 c 2
 391 20 l 2
 466 20 530 102 556 165 c 2
 569 197 l 1
 591 197 l 1
 537 0 l 1
EndSplineSet
MinimumDistance: x8,16 x3,20 
EndChar
StartChar: uni01AA
Encoding: 426 426 361
Width: 283
HStem: 489 18<100.029 117> 655 18<100.029 117>
VStem: 20 19<581 594> 182 56<-93.6642 521 555 583>
Fore
348 -125 m 0
 347 -157 321 -175 282 -175 c 0
 228 -175 182 -134 182 -80 c 2
 182 521 l 1
 165 501 140 489 112 489 c 0
 62 489 20 530 20 581 c 0
 20 632 62 673 112 673 c 0
 173 673 238 637 238 570 c 2
 238 -129 l 2
 238 -154 260 -168 282 -159 c 1
 278 -152 276 -146 276 -138 c 0
 276 -88 349 -85 348 -125 c 0
182 609 m 1
 171 636 143 655 112 655 c 0
 72 655 39 622 39 581 c 0
 39 540 72 507 112 507 c 0
 144 507 171 528 182 556 c 1
 182 609 l 1
EndSplineSet
EndChar
StartChar: uni01AB
Encoding: 427 427 362
Width: 265
HStem: -9 21G<116.5 148.5> 413 43<140 205>
VStem: 84 56<61 413>
Fore
223 64 m 1
 224 53 217 34 202 18 c 1
 202 4 201 -25 201 -64 c 0
 201 -103 183 -129 151 -130 c 0
 111 -131 114 -58 164 -58 c 0
 172 -58 178 -60 185 -64 c 1
 192 -47 188 -12 187 6 c 1
 174 -3 158 -9 139 -9 c 0
 94 -9 84 35 84 73 c 2
 84 413 l 1
 28 413 l 1
 28 435 l 1
 122 560 l 1
 140 546 l 1
 140 456 l 1
 221 456 l 1
 205 413 l 1
 140 413 l 1
 140 65 l 2
 140 48 157 35 174 36 c 0
 194 38 222 66 221 83 c 1
 223 64 l 1
EndSplineSet
EndChar
StartChar: uni01AC
Encoding: 428 428 363
Width: 741
HStem: 0 24<251 482> 630 31<98 306 105 521>
VStem: 339 55<61 584>
Fore
710 490 m 1
 690 489 l 1
 669 571 592 630 511 630 c 2
 431 630 l 2
 406 630 394 601 394 580 c 2
 394 61 l 2
 394 42 410 24 429 24 c 2
 482 24 l 1
 482 0 l 1
 251 0 l 1
 251 24 l 1
 304 24 l 2
 322 24 339 44 339 61 c 2
 339 580 l 2
 339 603 328 630 302 630 c 2
 100 630 l 2
 77 630 59 625 63 599 c 1
 70 601 77 601 84 600 c 0
 133 587 118 516 80 527 c 0
 49 535 34 566 43 604 c 0
 55 651 98 661 105 661 c 2
 653 661 l 1
 710 490 l 1
EndSplineSet
EndChar
StartChar: uni01AD
Encoding: 429 429 364
Width: 265
HStem: 413 43<140 205>
VStem: 84 56<62 413 508 641>
Fore
253 637 m 0
 254 597 181 600 181 650 c 0
 181 658 183 664 187 671 c 1
 165 680 140 665 140 641 c 2
 140 456 l 1
 221 456 l 1
 205 413 l 1
 140 413 l 1
 140 65 l 2
 140 48 157 35 174 36 c 0
 194 38 222 66 221 83 c 1
 223 64 l 1
 225 42 195 -8 139 -9 c 0
 94 -9 84 35 84 73 c 2
 84 413 l 1
 28 413 l 1
 28 435 l 1
 84 509 l 1
 84 592 l 2
 84 646 133 687 187 687 c 0
 226 687 252 669 253 637 c 0
EndSplineSet
EndChar
StartChar: uni01AE
Encoding: 430 430 365
Width: 741
HStem: 630 31<105 304 105 528>
VStem: 339 54<-67 -18> 339 55<-36 582>
Fore
710 490 m 1
 690 489 l 1
 669 571 592 630 511 630 c 2
 431 630 l 2
 406 630 394 601 394 580 c 0
 394 -36 394 85 393 -67 c 0
 393 -91 418 -106 440 -97 c 1
 436 -90 434 -84 434 -76 c 0
 434 -26 507 -23 506 -63 c 0
 505 -95 479 -113 440 -113 c 0
 371 -113 339 -77 339 -18 c 2
 339 580 l 2
 339 603 328 630 302 630 c 2
 261 630 l 2
 171 630 88 585 69 489 c 1
 47 490 l 1
 105 661 l 1
 653 661 l 1
 710 490 l 1
EndSplineSet
EndChar
StartChar: uni01B1
Encoding: 433 433 368
Width: 680
HStem: 0 22<303 337> 707 52<83 187 409 539>
VStem: 0 230<296 314.798 296 688> 187 43<687 759> 409 47<667 707>
DStem: 83 759 104 707 46 655 80 650 539 707 555 759 550 644 582 652
Fore
46 655 m 1
 83 759 l 1
 230 759 l 1
 230 669 l 2
 230 514 74 439 74 296 c 0
 74 157 181 19 320 22 c 0
 457 25 546 164 554 301 c 0
 563 444 409 517 409 669 c 2
 409 759 l 1
 555 759 l 1
 582 652 l 1
 550 644 l 1
 539 707 l 1
 456 707 l 1
 456 688 l 2
 456 521 627 463 628 296 c 0
 630 113 487 0 321 0 c 0
 151 0 -2 113 0 296 c 0
 2 465 187 519 187 688 c 2
 187 707 l 1
 104 707 l 1
 80 650 l 1
 46 655 l 1
EndSplineSet
EndChar
StartChar: uni01B2
Encoding: 434 434 369
Width: 671
HStem: -7 14<343 377> 637 24<40 95 40 271>
VStem: 128 55<152 602>
Fore
584 635 m 0
 619 545 665 -7 362 -7 c 0
 216 -7 128 20 128 181 c 2
 128 600 l 2
 128 617 111 637 93 637 c 2
 40 637 l 1
 40 661 l 1
 271 661 l 1
 271 637 l 1
 218 637 l 2
 199 637 183 619 183 600 c 2
 183 132 l 2
 183 54 276 7 359 7 c 0
 617 7 602 453 563 600 c 1
 543 599 512 615 503 642 c 0
 494 670 511 697 547 685 c 0
 572 676 572 665 584 635 c 0
EndSplineSet
EndChar
StartChar: uni01B3
Encoding: 435 435 370
Width: 653
HStem: 0 24<183 414> 636 25<401 432 401 621>
VStem: 272 55<61 334>
DStem: 123 591 184 587 272 334 316 357 419 507 462 528 316 357 327 339
Fore
621 636 m 1
 586 636 l 2
 546 636 483 557 462 528 c 2
 327 339 l 1
 327 61 l 2
 327 43 342 24 361 24 c 2
 414 24 l 1
 414 0 l 1
 183 0 l 1
 183 24 l 1
 236 24 l 2
 254 24 272 43 272 61 c 2
 272 334 l 1
 123 591 l 2
 119 598 101 618 93 625 c 0
 87 630 68 640 56 639 c 0
 33 638 1 644 6 611 c 1
 13 613 20 613 27 612 c 0
 76 599 61 528 23 539 c 0
 -8 547 -23 578 -14 616 c 0
 -2 663 42 661 65 661 c 0
 102 661 146 654 184 587 c 2
 316 357 l 1
 419 507 l 2
 436 532 505 636 427 636 c 2
 401 636 l 1
 401 661 l 1
 621 661 l 1
 621 636 l 1
EndSplineSet
EndChar
StartChar: uni01B4
Encoding: 436 436 371
Width: 479
HStem: 445 18<18 45 269 297 269 439>
DStem: 63 421 119 415 172 51 209 122 176 49 357 390 136 -36 147 -53
Fore
439 445 m 1
 420 445 l 2
 395 445 367 410 357 390 c 1
 147 -53 l 2
 136 -76 121 -88 96 -91 c 0
 24 -100 25 3 80 3 c 0
 120 3 131 -37 114 -57 c 0
 109 -63 106 -65 99 -68 c 1
 120 -68 128 -53 136 -36 c 2
 176 49 l 1
 172 51 l 1
 63 421 l 2
 56 444 37 445 20 445 c 0
 -5 445 -21 440 -17 413 c 1
 -9 415 -3 415 5 414 c 1
 53 401 39 330 0 341 c 0
 -31 349 -46 380 -37 418 c 0
 -26 461 5 463 45 463 c 0
 79 463 107 455 119 415 c 2
 209 122 l 1
 209 123 319 360 319 360 c 2
 331 387 335 445 292 445 c 2
 269 445 l 1
 269 463 l 1
 439 463 l 1
 439 445 l 1
EndSplineSet
EndChar
StartChar: uni01B5
Encoding: 437 437 372
Width: 582
HStem: 0 25<130 479> 345 45<208 259 363 423> 469 21G<71 94> 636 25<116 448>
DStem: 116 661 107 515 71 469 94 469 259 345 334 345 49 21 130 25 448 636 521 639 289 390 363 390
Fore
538 206 m 1
 479 0 l 1
 49 0 l 1
 49 21 l 1
 259 345 l 1
 208 345 l 1
 208 390 l 1
 289 390 l 1
 448 636 l 1
 278 636 l 2
 214 636 125 579 107 515 c 2
 94 469 l 1
 71 469 l 1
 116 661 l 1
 521 661 l 1
 521 639 l 1
 363 390 l 1
 423 390 l 1
 423 345 l 1
 334 345 l 1
 130 25 l 1
 314 25 l 2
 388 25 466 91 497 157 c 2
 519 204 l 1
 538 206 l 1
EndSplineSet
EndChar
StartChar: uni01B6
Encoding: 438 438 373
Width: 404
HStem: -2 20<91 305> 240 45<106 158 255 321> 445 18<73 282>
DStem: 158 240 227 240 12 -2 91 18 282 445 364 463 185 285 255 285
Fore
364 463 m 1
 255 285 l 1
 321 285 l 1
 321 240 l 1
 227 240 l 1
 91 18 l 1
 203 18 l 2
 257 18 311 84 328 132 c 1
 343 125 l 1
 305 -2 l 1
 12 -2 l 1
 158 240 l 1
 106 240 l 1
 106 285 l 1
 185 285 l 1
 282 445 l 1
 161 445 l 2
 108 445 72 367 66 321 c 1
 50 331 l 1
 73 463 l 1
 364 463 l 1
EndSplineSet
EndChar
StartChar: uni01B7
Encoding: 439 439 374
Width: 490
HStem: 0 28<189 205> 654 18<122 366>
Fore
448 672 m 1
 258 425 l 1
 570 357 465 0 203 0 c 0
 142 0 81 43 85 104 c 0
 90 181 187 178 184 113 c 0
 183 82 166 65 135 70 c 1
 140 48 169 28 191 28 c 0
 243 28 391 70 391 196 c 0
 391 320 269 371 160 371 c 1
 160 400 l 1
 366 654 l 1
 210 654 l 2
 157 654 121 576 115 530 c 1
 99 540 l 1
 122 672 l 1
 448 672 l 1
EndSplineSet
EndChar
StartChar: uni01B8
Encoding: 440 440 375
Width: 465
HStem: 0 28<303 319> 654 18<60 307>
Fore
60 672 m 1
 386 672 l 1
 409 540 l 1
 393 530 l 1
 387 576 351 654 298 654 c 2
 142 654 l 1
 348 400 l 1
 348 371 l 1
 239 371 117 320 117 196 c 0
 117 70 265 28 317 28 c 0
 339 28 368 48 373 70 c 1
 342 65 326 82 324 113 c 0
 321 178 418 181 423 104 c 0
 427 43 366 0 305 0 c 0
 43 0 -62 357 250 425 c 1
 60 672 l 1
EndSplineSet
EndChar
StartChar: uni01B9
Encoding: 441 441 376
Width: 465
HStem: 446 18<95 309>
DStem: 95 464 177 446 243 217 332 192
Fore
423 -116 m 0
 427 -177 366 -222 305 -220 c 0
 48 -212 1 144 243 217 c 1
 95 464 l 1
 386 464 l 1
 409 332 l 1
 393 322 l 1
 387 368 351 446 298 446 c 2
 177 446 l 1
 332 192 l 1
 332 163 l 1
 309 163 l 2
 220 163 147 57 152 -24 c 0
 159 -128 265 -192 317 -192 c 0
 339 -192 368 -172 373 -150 c 1
 342 -155 326 -138 324 -107 c 0
 321 -42 418 -39 423 -116 c 0
EndSplineSet
EndChar
StartChar: uni01BA
Encoding: 442 442 377
Width: 465
HStem: 446 18<126 334>
VStem: 93 83<-100 -90>
DStem: 335 446 417 464 162 235 265 278
Fore
417 464 m 1
 265 278 l 1
 350 260 416 230 416 147 c 0
 416 52 318 24 234 -16 c 0
 198 -33 176 -70 176 -96 c 0
 176 -132 209 -166 266 -169 c 0
 328 -173 368 -119 379 -64 c 1
 390 -64 l 1
 384 -145 324 -214 238 -211 c 0
 168 -209 93 -176 93 -92 c 0
 93 -28 122 0 184 19 c 0
 259 42 340 71 343 122 c 0
 347 191 274 206 185 206 c 2
 162 206 l 1
 162 235 l 1
 335 446 l 1
 214 446 l 2
 161 446 125 368 119 322 c 1
 103 332 l 1
 126 464 l 1
 417 464 l 1
EndSplineSet
EndChar
StartChar: uni01BB
Encoding: 443 443 378
Width: 409
HStem: 0 80<83 339> 258 45<115 180 274 334>
DStem: 344 118 362 118 334 80 339 0
Fore
362 118 m 1
 339 0 l 1
 54 0 l 1
 54 40 l 2
 54 118 121 185 180 258 c 1
 115 258 l 1
 115 303 l 1
 214 303 l 1
 243 344 265 389 267 439 c 0
 269 492 231 536 174 539 c 0
 127 542 94 513 73 471 c 0
 66 457 64 449 61 434 c 1
 50 434 l 1
 51 448 53 457 57 471 c 0
 77 539 131 584 202 581 c 0
 272 579 346 547 347 462 c 0
 348 402 315 350 274 303 c 1
 334 303 l 1
 334 258 l 1
 229 258 l 1
 175 206 118 163 102 124 c 0
 88 90 90 97 83 80 c 1
 334 80 l 1
 344 118 l 1
 362 118 l 1
EndSplineSet
EndChar
StartChar: uni01BC
Encoding: 444 444 379
Width: 441
HStem: 585 87<-5 385> 608 64<-5 348> 648 24<-5 50>
VStem: 84 34<382 608> 357 56<229 247>
Fore
413 239 m 0
 413 113 306 -20 184 -10 c 0
 113 -4 56 37 57 93 c 0
 57 138 90 157 123 153 c 0
 146 150 159 126 157 102 c 0
 154 75 131 60 106 60 c 1
 115 49 121 43 134 36 c 0
 150 27 162 24 181 22 c 0
 275 12 357 119 357 232 c 0
 357 325 258 404 167 404 c 0
 133 404 84 382 84 382 c 1
 84 611 l 2
 84 629 66 648 48 648 c 2
 -5 648 l 1
 -5 672 l 1
 378 672 l 1
 385 585 l 1
 378 585 l 1
 373 594 l 2
 366 607 342 608 330 608 c 2
 118 608 l 1
 118 449 l 1
 145 463 155 473 186 472 c 0
 327 468 413 358 413 239 c 0
EndSplineSet
EndChar
StartChar: uni01BD
Encoding: 445 445 380
Width: 355
HStem: 260 54<146 165> 392 71<22 295> 408 55<22 263> 446 17<22 65>
VStem: 84 24<245 408> 273 41<144 153>
Fore
314 151 m 0
 314 62 241 -24 154 -14 c 0
 111 -9 65 19 65 58 c 0
 66 90 88 103 111 100 c 0
 128 98 137 82 135 65 c 0
 134 46 117 35 100 35 c 1
 114 18 130 11 152 9 c 0
 218 1 273 67 273 146 c 0
 273 211 210 260 146 260 c 0
 115 260 84 245 84 245 c 1
 84 420 l 2
 84 433 72 446 59 446 c 2
 22 446 l 1
 22 463 l 1
 290 463 l 1
 295 392 l 1
 290 392 l 1
 286 398 l 1
 282 407 265 408 256 408 c 2
 108 408 l 1
 108 298 l 1
 127 307 143 314 165 314 c 0
 252 314 314 234 314 151 c 0
EndSplineSet
EndChar
StartChar: uni01BE
Encoding: 446 446 381
Width: 441
HStem: 490 32<22 83 131 193>
VStem: 83 48<371 490 522 674> 351 56<218 240>
Fore
407 227 m 0
 407 114 301 -13 184 -1 c 0
 122 5 57 46 57 102 c 0
 58 147 90 166 123 162 c 0
 146 159 159 135 157 111 c 0
 155 84 131 69 106 69 c 1
 126 44 150 34 181 31 c 0
 272 22 351 125 351 220 c 0
 351 335 249 393 167 393 c 0
 133 393 113 388 83 371 c 1
 83 490 l 1
 22 490 l 1
 22 522 l 1
 83 522 l 1
 83 675 l 1
 131 674 l 1
 131 522 l 1
 193 522 l 1
 193 490 l 1
 131 490 l 1
 131 443 l 1
 131 443 155 462 186 461 c 0
 314 457 407 370 407 227 c 0
EndSplineSet
EndChar
StartChar: uni01BF
Encoding: 447 447 382
Width: 524
HStem: -147 18<34 230>
VStem: 104 56<-102 -75 -102 350> 406 70<236 254>
Fore
476 243 m 0
 476 113 325 0 160 -75 c 1
 160 -102 l 2
 160 -115 172 -129 185 -129 c 2
 230 -129 l 1
 230 -147 l 1
 34 -147 l 1
 34 -129 l 1
 79 -129 l 2
 92 -129 104 -114 104 -102 c 2
 104 366 l 1
 61 389 l 1
 61 405 l 1
 160 465 l 1
 160 424 l 1
 194 453 233 470 280 472 c 0
 402 476 476 412 476 243 c 0
406 239 m 0
 406 399 306 459 273 454 c 0
 187 442 160 391 160 331 c 2
 160 -47 l 1
 258 -2 406 73 406 239 c 0
EndSplineSet
EndChar
StartChar: uni01C0
Encoding: 448 448 383
Width: 155
Flags: W
HStem: 0 21G<47 94>
VStem: 47 47<0 723>
Fore
94 0 m 1
 47 0 l 1
 47 723 l 1
 94 723 l 1
 94 0 l 1
EndSplineSet
EndChar
StartChar: uni01C1
Encoding: 449 449 384
Width: 269
Flags: W
HStem: 0 21G<47 94 167 214>
VStem: 47 47<0 723> 167 47<0 723>
Fore
214 0 m 1
 167 0 l 1
 167 723 l 1
 214 723 l 1
 214 0 l 1
94 0 m 1
 47 0 l 1
 47 723 l 1
 94 723 l 1
 94 0 l 1
EndSplineSet
EndChar
StartChar: uni01C2
Encoding: 450 450 385
Width: 365
HStem: -19 21G<151 198> 283 33<33 151 198 312> 391 33<33 151 198 312>
VStem: 151 47<-19 283 316 391 424 723>
Fore
312 283 m 1
 198 283 l 1
 198 -19 l 1
 151 -19 l 1
 151 283 l 1
 33 283 l 1
 33 316 l 1
 151 316 l 1
 151 391 l 1
 33 391 l 1
 33 424 l 1
 151 424 l 1
 151 723 l 1
 198 723 l 1
 198 424 l 1
 312 424 l 1
 312 391 l 1
 198 391 l 1
 198 316 l 1
 312 316 l 1
 312 283 l 1
EndSplineSet
EndChar
StartChar: uni01C3
Encoding: 451 451 386
Width: 319
VStem: 102 20<166.044 178>
Fore
99 668 m 0
 105 680 118 681 124 668 c 0
 158 603 177 580 177 519 c 0
 177 384 122 312 122 177 c 0
 122 145 102 146 102 177 c 0
 102 312 47 384 47 519 c 0
 47 580 70 606 99 668 c 0
148 89 m 0
 208 49 148 -41 88 -1 c 0
 28 39 88 130 148 89 c 0
EndSplineSet
EndChar
StartChar: uni01DD
Encoding: 477 477 412
Width: 457
HStem: -9 16<200 215> 145 28<37 326> 407 65<196 215>
VStem: 37 63<145 173>
Fore
37 173 m 1
 331 173 l 1
 333 187 339 202 339 217 c 0
 339 319 292 407 213 407 c 0
 138 407 76 372 41 306 c 1
 41 369 l 1
 74 436 132 472 206 472 c 0
 325 472 403 383 397 221 c 0
 393 102 326 -9 200 -9 c 0
 105 -9 37 79 37 173 c 1
100 145 m 1
 100 87 132 7 200 7 c 0
 273 7 310 71 326 145 c 1
 100 145 l 1
EndSplineSet
EndChar
StartChar: uni01E4
Encoding: 484 484 419
Width: 610
HStem: 189 45<380 461 516 602> 339 18<397 430 397 591>
VStem: 39 57<313 347> 461 55<90 189 234 299>
Fore
602 189 m 1
 516 189 l 1
 516 68 l 1
 491 82 l 1
 444 24 378 -3 304 -6 c 0
 136 -12 38 165 39 332 c 0
 39 496 146 667 296 664 c 0
 368 663 408 645 459 598 c 1
 502 658 l 1
 525 658 l 1
 538 440 l 1
 524 440 l 1
 519 458 515 469 506 486 c 0
 459 579 394 653 291 645 c 0
 167 635 95 461 96 324 c 0
 98 180 167 9 320 13 c 0
 380 15 428 42 461 91 c 1
 461 189 l 1
 380 189 l 1
 380 234 l 1
 461 234 l 1
 461 295 l 2
 461 316 454 339 428 339 c 2
 397 339 l 1
 397 357 l 1
 591 357 l 1
 591 339 l 1
 546 339 l 2
 523 339 516 313 516 295 c 2
 516 234 l 1
 602 234 l 1
 602 189 l 1
EndSplineSet
EndChar
StartChar: uni01E5
Encoding: 485 485 420
Width: 457
HStem: -212 19<231 239> -95 45<300 385 440 523> 158 18<206.531 223> 453 13<206.531 223>
VStem: 30 46<-76 -67> 61 51<106 131> 324 8<419 432>
Fore
523 -95 m 1
 431 -95 l 1
 404 -168 322 -212 231 -212 c 0
 137 -212 28 -172 30 -76 c 0
 31 -27 82 27 126 47 c 1
 88 60 61 77 61 106 c 0
 61 151 108 167 155 172 c 1
 32 231 54 466 218 466 c 0
 265 466 300 447 324 419 c 1
 324 440 l 2
 324 445 324 450 325 456 c 0
 331 503 396 502 402 458 c 0
 405 432 386 407 357 413 c 1
 345 417 339 421 332 432 c 1
 332 407 l 1
 392 317 354 158 218 158 c 0
 212 158 206 158 200 159 c 1
 161 156 112 158 112 131 c 0
 112 66 440 88 441 -39 c 0
 441 -43 441 -46 441 -50 c 1
 523 -50 l 1
 523 -95 l 1
218 176 m 0
 331 176 331 453 218 453 c 0
 105 453 105 176 218 176 c 0
382 -50 m 1
 357 8 232 18 145 42 c 1
 104 13 75 -22 76 -76 c 0
 77 -152 156 -193 231 -193 c 0
 300 -193 371 -158 385 -95 c 1
 300 -95 l 1
 300 -50 l 1
 382 -50 l 1
EndSplineSet
EndChar
StartChar: uni01F6
Encoding: 502 502 437
Width: 869
HStem: 0 24<45 275 660 670> 336 21<188 505> 444 18<684 734> 637 24<45 100 45 275 417 478 417 648>
VStem: 133 55<61 336 61 602> 505 55<111 602> 754 56<117 419>
Fore
560 600 m 2
 560 105 l 2
 560 59 605 26 660 26 c 0
 706 26 754 59 754 117 c 0
 754 453 754 385 754 417 c 0
 754 429 742 444 729 444 c 2
 684 444 l 1
 684 462 l 1
 810 462 l 1
 810 376 810 159 810 159 c 2
 810 20 714 0 660 0 c 0
 599 0 505 33 505 127 c 2
 505 336 l 1
 188 336 l 1
 188 61 l 2
 188 42 204 24 223 24 c 2
 275 24 l 1
 275 0 l 1
 45 0 l 1
 45 24 l 1
 98 24 l 2
 116 24 133 44 133 61 c 2
 133 600 l 2
 133 617 116 637 98 637 c 2
 45 637 l 1
 45 661 l 1
 275 661 l 1
 275 637 l 1
 223 637 l 2
 204 637 188 619 188 600 c 2
 188 357 l 1
 505 357 l 1
 505 600 l 2
 505 617 488 637 470 637 c 2
 417 637 l 1
 417 661 l 1
 648 661 l 1
 648 637 l 1
 595 637 l 2
 576 637 560 619 560 600 c 2
EndSplineSet
EndChar
StartChar: uni01F7
Encoding: 503 503 438
Width: 524
HStem: 454 18<271 282>
VStem: 104 56<-139 -113 -137 316> 406 70<234 252>
Fore
476 243 m 0
 476 93 252 -38 160 -113 c 1
 160 -182 l 1
 33 -213 l 1
 33 -195 l 1
 81 -172 l 2
 93 -166 104 -149 104 -137 c 2
 104 366 l 1
 61 389 l 1
 61 405 l 1
 160 465 l 1
 160 407 l 1
 188 444 232.957 472 280 472 c 0
 402 472 476 412 476 243 c 0
406 239 m 0
 406 399 308 454 273 454 c 0
 196 454 160 362 160 314 c 2
 160 -81 l 1
 268 17 406 67 406 239 c 0
EndSplineSet
EndChar
StartChar: uni021C
Encoding: 540 540 475
Width: 539
HStem: 628 1<141 280> 628 36<268 297>
VStem: 400 66<486 504> 415 73<182 200>
Fore
48 -137 m 1
 48 -107 l 1
 75 -68 168 23 250 44 c 0
 343 67 415 105 415 190 c 0
 415 242 391 286 354 306 c 0
 329 320 294 324 249 308 c 2
 221 298 l 1
 221 336 l 1
 248 346 l 2
 339 378 400 415 400 497 c 0
 400 573 345 628 268 628 c 0
 185 628 134 576 101 460 c 1
 77 460 l 1
 84 528 90 596 90 665 c 1
 114 665 l 1
 118 641 126 629 141 629 c 0
 172 629 192 664 297 664 c 0
 414 664 466 599 466 499 c 0
 466 423 436 385 357 356 c 2
 349 353 l 2
 346 352 343 350 343 349 c 0
 344 348 352 347 352 347 c 1
 360 347 l 2
 459 347 488 270 488 189 c 0
 488 81 407 34 278 2 c 0
 170 -25 105 -78 48 -137 c 1
EndSplineSet
EndChar
StartChar: uni021D
Encoding: 541 541 476
Width: 464
HStem: 435 26<207 229>
VStem: 301 79<333 351> 312 84<125 143>
Fore
179 230 m 1
 198 237 l 2
 261 260 301 287 301 343 c 0
 301 397 263 435 209 435 c 0
 151 435 115 399 92 318 c 1
 75 318 l 1
 78 341 l 1
 84 401 84 415 85 461 c 1
 101 461 l 1
 104 444 110 436 120 436 c 0
 124 436 131 438 137 441 c 2
 143 443 l 2
 179 457 195 461 229 461 c 0
 321 461 380 415 380 345 c 0
 380 292 340 268 289 240 c 2
 284 237 l 2
 281 236 280 235 280 234 c 0
 280 233 283 233 286 233 c 2
 292 234 l 2
 351 242 396 185 396 128 c 0
 396 52 321 9 216 -3 c 0
 143 -11 109 -40 73 -82 c 1
 73 -53 l 1
 90 -24 140 18 196 26 c 0
 264 36 312 69 312 129 c 0
 312 165 296 194 270 208 c 0
 252 218 229 224 198 212 c 2
 179 205 l 1
 179 230 l 1
EndSplineSet
EndChar
StartChar: uni0222
Encoding: 546 546 479
Width: 580
HStem: -3 20<233 248>
Fore
245 607 m 1
 329 611 413 540 415 476 c 0
 418 402 345 365 261 332 c 1
 361 291 466 251 470 172 c 0
 476 78 366 -3 233 -3 c 0
 78 -3 -18 63 -15 161 c 0
 -13 236 54 273 130 305 c 1
 70 339 22 380 19 441 c 0
 16 520 118 577 236 577 c 1
 233 555 l 1
 157 558 94 522 97 469 c 0
 100 413 159 378 231 346 c 1
 300 376 356 413 352 483 c 0
 350 528 308 587 243 589 c 1
 245 607 l 1
387 145 m 0
 384 208 260 240 159 291 c 1
 101 264 57 231 57 180 c 0
 57 118 78 17 233 17 c 0
 317 17 390 69 387 145 c 0
EndSplineSet
EndChar
StartChar: uni0223
Encoding: 547 547 480
Width: 472
HStem: -3 20<231 236>
VStem: 59 50<156 180>
Fore
158 564 m 1
 173 545 l 1
 173 545 135 522 137 469 c 0
 139 413 180 378 230 346 c 1
 278 376 314 413 314 483 c 0
 314 519 299 525 287 540 c 1
 302 565 l 1
 321 550 356 540 358 476 c 0
 360 402 309 365 251 332 c 1
 320 291 393 251 396 172 c 0
 400 78 324 -3 231 -3 c 0
 124 -3 57 63 59 161 c 0
 60 236 107 273 160 305 c 1
 118 339 83 380 83 441 c 0
 83 511 124 545 158 564 c 1
338 145 m 0
 336 208 250 240 180 291 c 1
 140 264 109 231 109 180 c 0
 109 118 124 17 231 17 c 0
 290 17 340 69 338 145 c 0
EndSplineSet
EndChar
StartChar: uni0224
Encoding: 548 548 481
Width: 582
HStem: 0 25<130 446> 469 21G<71 94> 636 25<116 448>
VStem: 487 45<-49 -38>
DStem: 116 661 107 515 71 469 94 469 448 636 521 639 49 21 130 25
Fore
49 0 m 1
 49 21 l 1
 448 636 l 1
 278 636 l 2
 214 636 125 579 107 515 c 2
 94 469 l 1
 71 469 l 1
 116 661 l 1
 521 661 l 1
 521 639 l 1
 130 25 l 1
 444 25 l 2
 514 25 532 -4 532 -40 c 0
 532 -85 447 -127 447 -127 c 1
 447 -117 l 1
 447 -117 487 -79 487 -49 c 0
 487 -21 465 0 434 0 c 2
 49 0 l 1
EndSplineSet
EndChar
StartChar: uni0225
Encoding: 549 549 482
Width: 404
HStem: 0 18<91 221> 445 18<73 282>
VStem: 269 45<-49 -38>
DStem: 282 445 364 463 12 0 91 18
Fore
12 0 m 1
 282 445 l 1
 161 445 l 2
 108 445 72 367 66 321 c 1
 50 331 l 1
 73 463 l 1
 364 463 l 1
 91 18 l 1
 243 18 l 2
 297 18 314 -4 314 -40 c 0
 314 -85 229 -127 229 -127 c 1
 229 -117 l 1
 229 -117 269 -79 269 -49 c 0
 269 -21 247 0 216 0 c 2
 12 0 l 1
EndSplineSet
EndChar
StartChar: uni0250
Encoding: 592 592 497
Width: 400
HStem: -10 32<158 213> 432 39<225 256>
VStem: 90 56<69 182 73 352> 313 56<328 358>
Fore
20 419 m 6
 20 443 46.9132 471 70 471 c 4
 126 471 143 444 146 390 c 5
 167 429 210 471 256 471 c 4
 330 471 369 436 369 358 c 4
 369 235.898 222 231 146 182 c 5
 146 78 l 6
 146 42 176 22 213 22 c 4
 235 22 263 26 283 37 c 5
 280 55 281 66 285 83 c 4
 293 117 302 154 335 153 c 4
 390 153 324 -10 158 -10 c 4
 131.981 -10 90 6 90 73 c 6
 90 393 l 6
 90 412 79 434 59 432 c 4
 42 431 26 405 20 390 c 5
 20 419 l 6
146 352 m 5
 146 207 l 5
 206 220 313 259.816 313 328 c 4
 313 426 282 432 225 432 c 4
 185 432 162 384 146 352 c 5
EndSplineSet
EndChar
StartChar: uni0251
Encoding: 593 593 498
Width: 487
HStem: -9 17<225 243> 454 18<233 243>
VStem: 34 73<214 248> 351 56<120 466>
Fore
444 54 m 1
 351 -9 l 1
 351 21 l 1
 318 1 275.012 -9 233 -9 c 0
 110 -9 34 86 34 228 c 0
 34 350.037 108 472 233 472 c 0
 280.011 472 320 459 351 432 c 1
 407 466 l 1
 407 90 l 1
 444 76 l 1
 444 54 l 1
351 121 m 1
 351 298 l 2
 351 425 330 454 233 454 c 0
 142 454 107 336.021 107 239 c 0
 107 134 131.608 8 235 8 c 0
 312 8 341 45 351 121 c 1
EndSplineSet
Back
430 45 m 1
 351 -9 l 1
 351 21 l 1
 318 1 275 -8 233 -9 c 0
 112 -13 38 89 34 228 c 0
 31 350 110 471 233 472 c 0
 280 473 320 459 351 432 c 1
 407 466 l 1
 407 90 l 5
 430 80 l 5
 430 45 l 1
351 121 m 1
 351 298 l 2
 351 425 330 454 233 454 c 0
 135 453 109 336 107 239 c 0
 104 135 132 -1 235 8 c 0
 311 14 341 45 351 121 c 1
EndSplineSet
EndChar
StartChar: uni0252
Encoding: 594 594 499
Width: 487
HStem: -9 18<231 241> 455 17<223 241>
VStem: 57 56<-3 342> 357 73<214 248>
Fore
0 398 m 5
 113 477 l 5
 113 442 l 5
 146 462 188.988 472 231 472 c 4
 348 472 430 374 430 235 c 4
 430 112.963 354 -8 231 -9 c 4
 184 -10 144 4 113 31 c 5
 57 -3 l 5
 57 352 l 5
 0 372 l 5
 0 398 l 5
113 342 m 5
 113 165 l 6
 113 38 134 8 231 9 c 4
 329 9 357 126.954 357 224 c 4
 357 334 328 455 229 455 c 4
 152.764 455 123 418 113 342 c 5
EndSplineSet
Back
34 418 m 5
 113 472 l 1
 113 442 l 1
 146 462 189 471 231 472 c 0
 352 476 426 374 430 235 c 0
 433 113 354 -8 231 -9 c 0
 184 -10 144 4 113 31 c 1
 57 -3 l 1
 57 387 l 5
 34 397 l 5
 34 418 l 5
113 342 m 1
 113 165 l 2
 113 38 134 8 231 9 c 0
 329 9 354 127 357 224 c 0
 359 328 332 464 229 455 c 0
 153 449 123 418 113 342 c 1
EndSplineSet
EndChar
StartChar: uni0253
Encoding: 595 595 500
Width: 489
HStem: -9 17<247 249> 454 18<229 249>
VStem: 70 56<-9 328 -9 608> 232 72<624 637> 373 70<230 264>
Fore
126 608 m 2
 126 428 l 1
 157 456 197.959 472 247 472 c 0
 366 472 443 412 443 243 c 0
 443 108.966 350 -9 247 -9 c 0
 197.99 -9 152 3 119 32 c 0
 120 32 70 -9 70 -9 c 1
 70 574 l 2
 70 672 144 687 198 687 c 0
 260 687 304 660 304 624 c 0
 304 583.987 232 587 232 637 c 0
 232 645 234 651 238 658 c 1
 230 668 209.212 672.653 196 672.653 c 0
 170 672.653 126 652 126 608 c 2
373 239 m 0
 373 399 278 454 239 454 c 0
 158 454 126 386 126 322 c 2
 126 120 l 1
 135 58 164.976 8 247 8 c 0
 330 8 373 123 373 239 c 0
EndSplineSet
EndChar
StartChar: uni0254
Encoding: 596 596 501
Width: 424
HStem: -9 20<159 176> 410 62<160 182>
VStem: 299 69<187 237>
Fore
21 353 m 1
 48 414 106 472 176 472 c 0
 308 472 368 354 368 237 c 0
 368 110.984 270 -9 159 -9 c 0
 27 -9 -10 153 68 153 c 4
 107.051 153 124 102 115 63 c 0
 112 50 108 43 100 33 c 1
 121 12 129.983 11 159 11 c 0
 252 11 299 101.947 299 187 c 0
 299 292 276 410 165 410 c 0
 96.9339 410 51 361 21 306 c 1
 21 353 l 1
EndSplineSet
EndChar
StartChar: uni0255
Encoding: 597 597 502
Width: 424
HStem: -9 62<211 230> 190 38<270 278> 452 20<230 246>
VStem: 21 69<226 276> 75 20<-56 -36>
Fore
341 66 m 0
 305 20 270 -9 213 -9 c 0
 170 -9 135 3 107 24 c 1
 99 -2 95 -28 95 -56 c 0
 95 -64 75 -79 75 -56 c 0
 75 -25 80 7 90 38 c 1
 43 83 21 153.993 21 226 c 0
 21 358 119 472 230 472 c 0
 362 473 400 310 321 310 c 0
 281.949 310 265 361 274 400 c 0
 277 413 281 420 289 430 c 1
 268 451 259.017 452 230 452 c 0
 144 452 90 356 90 276 c 0
 90 216.966 96 155 121 112 c 1
 159 179 215 228 270 228 c 0
 366 228 394 132 341 66 c 0
270 190 m 0
 223 190 171 150 136 91 c 1
 157 68 185 53 224 53 c 0
 359 53 371 190 270 190 c 0
EndSplineSet
EndChar
StartChar: uni0256
Encoding: 598 598 503
Width: 548
HStem: -9 17<225 243> 454 18<233 259>
VStem: 34 73<213 247> 351 56<-27 680> 513 72<-72 -59>
Fore
407 -43 m 6
 407.061 -87 451 -107.653 477 -107.653 c 4
 490.212 -107.653 513.5 -98.5 519 -93 c 5
 515 -86 513 -80 513 -72 c 4
 513 -22 585 -18.9873 585 -59 c 4
 585 -95 541 -122 479 -122 c 4
 425 -122 351 -107 351 -9 c 5
 351 21 l 1
 318 1 276 -9 233 -9 c 0
 111.934 -9 34 88.9425 34 228 c 0
 34 362 110 471 233 472 c 0
 280 473 320 459 351 432 c 1
 351 595 l 1
 303 605 l 1
 306 621 l 1
 407 680 l 1
 407 -43 l 6
351 121 m 1
 351 298 l 2
 351 425 330 454 233 454 c 0
 135 453 107 338 107 239 c 0
 107 134.957 131.608 8 235 8 c 0
 310 8 341 45 351 121 c 1
EndSplineSet
EndChar
StartChar: uni0257
Encoding: 599 599 504
Width: 546
HStem: -9 17<225 243> 454 18<233 259>
VStem: 34 73<214 248> 351 56<120 608> 514 72<624 637>
Fore
408 608 m 2
 407 76 l 1
 430 66 l 1
 430 45 l 1
 351 -9 l 1
 351 21 l 1
 318 1 272 -9 233 -9 c 0
 104 -9 34 86 34 228 c 4
 34 350.037 110 471 233 472 c 0
 280 473 320 459 351 432 c 1
 352 574 l 2
 352.69 671.998 426 687 480 687 c 0
 542 687 586 660 586 624 c 0
 586 583.987 514 587 514 637 c 0
 514 645 516 651 520 658 c 1
 512.911 660.954 491.212 672.653 478 672.653 c 0
 452 672.653 408.083 652 408 608 c 2
351 121 m 1
 351 298 l 2
 351 425 330 454 233 454 c 0
 135 453 107 336.021 107 239 c 4
 107 138 131.608 8 235 8 c 0
 316 8 341 45 351 121 c 1
EndSplineSet
EndChar
StartChar: uni0258
Encoding: 600 600 505
Width: 457
HStem: -9 65<196 215> 290 28<100 331> 456 16<200 215>
VStem: 37 63<290 318> 339 61<230 248>
Fore
37 290 m 5
 37 384 105 472 200 472 c 4
 326 472 400 361.067 400 242 c 4
 400 86 325 -9 206 -9 c 4
 132 -9 74 27 41 94 c 5
 41 157 l 5
 76 91 138 56 213 56 c 4
 292 56 339 150 339 246 c 4
 339 261 333 276 331 290 c 5
 37 290 l 5
100 318 m 5
 326 318 l 5
 310 392 273 456 200 456 c 4
 132 456 100 376 100 318 c 5
EndSplineSet
EndChar
StartChar: uni0259
Encoding: 601 601 506
Width: 457
HStem: -9 16<200 215> 145 28<37 326> 407 65<196 215>
VStem: 37 63<145 173> 339 61<214 232>
Fore
37 173 m 5
 331 173 l 5
 333 187 339 202 339 217 c 4
 339 320 292 407 213 407 c 4
 138 407 76 372 41 306 c 5
 41 369 l 5
 74 436 132 472 206 472 c 4
 325 472 400 388 400 221 c 4
 400 101.933 326 -9 200 -9 c 4
 105 -9 37 79 37 173 c 5
100 145 m 5
 100 87 132 7 200 7 c 4
 273 7 310 71 326 145 c 5
 100 145 l 5
EndSplineSet
EndChar
StartChar: uni025A
Encoding: 602 602 507
Width: 594
HStem: -9 16<185.696 213> 124 24<502 508> 407 65<198 218>
VStem: 342 55<213 233>
DStem: 342 213 337 185 46 124 110 119
Fore
570 173 m 4
 559 156 539 124 506 124 c 4
 442 124 429 228 429 228 c 5
 422 214 402 205 397 204 c 6
 396 204 l 5
 386 91 320 -9 200 -9 c 4
 105 -9 58 58 46 124 c 5
 342 213 l 5
 342 273 316 407 213 407 c 4
 138 407 76 372 41 306 c 5
 41 369 l 5
 74 436 132 472 206 472 c 4
 322 472 399 387 397 231 c 5
 413 240 433 260 439 275 c 5
 439 275 451 148 504 148 c 4
 526 148 539 167 548 183 c 4
 560 204 578 186 570 173 c 4
337 185 m 5
 110 119 l 5
 112 70 132 7 200 7 c 4
 273 7 325 93 337 185 c 5
EndSplineSet
EndChar
StartChar: uni025B
Encoding: 603 603 508
Width: 464
HStem: -3 29<229 251> 228 25<251 269> 435 26<215 237>
VStem: 49 84<114 142> 65 78<332 350>
Fore
269 253 m 5
 270 228 l 5
 251 228 l 6
 217 228 194 223 176 214 c 4
 150 199 133 165 133 129 c 4
 133 69 181 26 249 26 c 4
 308 26 354 61 375 115 c 5
 396 108 l 5
 371 33 307 -3 229 -3 c 4
 125 -3 49 52 49 128 c 4
 49 185 89 225 157 238 c 6
 162 239 l 6
 165 240 168 241 168 242 c 4
 168 243 166 244 163 244 c 6
 158 245 l 6
 99 255 65 292 65 345 c 4
 65 415 124 461 215 461 c 4
 250 461 266 457 301 443 c 6
 308 441 l 6
 314 438 321 436 325 436 c 4
 335 436 341 444 343 461 c 5
 360 461 l 5
 360 415 361 401 367 341 c 5
 369 318 l 5
 353 318 l 5
 330 399 294 435 235 435 c 4
 182 435 143 397 143 343 c 4
 143 287 183 253 251 253 c 6
 269 253 l 5
EndSplineSet
EndChar
StartChar: uni025C
Encoding: 604 604 509
Width: 464
HStem: -3 29<193 216> 228 25<175 211> 435 26<207 229>
VStem: 175 102<228 244> 301 79<332 350> 312 84<114 142>
Fore
175 253 m 5
 194 253 l 6
 261 253 301 287 301 343 c 4
 301 397 263 435 209 435 c 4
 151 435 115 399 92 318 c 5
 75 318 l 5
 78 341 l 5
 84 401 84 415 85 461 c 5
 101 461 l 5
 104 444 110 436 120 436 c 4
 124 436 131 438 137 441 c 6
 143 443 l 6
 179 457 195 461 229 461 c 4
 321 461 380 415 380 345 c 4
 380 292 345 255 287 245 c 6
 282 244 l 6
 279 244 277 243 277 242 c 4
 277 241 279 240 283 239 c 6
 288 238 l 6
 356 225 396 185 396 128 c 4
 396 52 320 -3 216 -3 c 4
 138 -3 74 33 49 108 c 5
 70 115 l 5
 91 61 137 26 196 26 c 4
 264 26 312 69 312 129 c 4
 312 165 294 199 269 214 c 5
 251 223 228 228 194 228 c 6
 175 228 l 5
 175 253 l 5
EndSplineSet
EndChar
StartChar: uni025D
Encoding: 605 605 510
Width: 579
HStem: -3 29<193 216> 228 25<175 211> 263 24<496 505> 435 26<207 229>
VStem: 175 102<228 244> 312 84<114 142>
Fore
567 312 m 4
 556 295 536 263 503 263 c 4
 439 263 426 367 426 367 c 5
 419 353 399 344 394 343 c 6
 380 339 l 5
 378 289 343 254 287 245 c 6
 282 244 l 6
 279 244 277 243 277 242 c 4
 277 241 279 240 283 239 c 6
 288 238 l 6
 356 225 396 185 396 128 c 4
 396 52 320 -3 216 -3 c 4
 138 -3 74 33 49 108 c 5
 70 115 l 5
 91 61 137 26 196 26 c 4
 264 26 312 69 312 129 c 4
 312 165 294 199 269 214 c 5
 251 223 228 228 194 228 c 6
 175 228 l 5
 175 253 l 5
 194 253 l 6
 261 253 301 287 301 343 c 4
 301 397 263 435 209 435 c 4
 151 435 115 399 92 318 c 5
 75 318 l 5
 78 341 l 5
 84 401 84 415 85 461 c 5
 101 461 l 5
 104 444 110 436 120 436 c 4
 124 436 131 438 137 441 c 6
 143 443 l 6
 179 457 195 461 229 461 c 4
 312 461 369 423 379 364 c 5
 387 367 l 6
 402 372 429 396 436 414 c 5
 436 414 448 287 501 287 c 4
 523 287 536 306 545 322 c 4
 557 343 575 325 567 312 c 4
EndSplineSet
EndChar
StartChar: uni025E
Encoding: 606 606 511
Width: 494
Flags: W
HStem: 466 21G<182.75 296.174>
Fore
427.25 305.105 m 1
 427.25 282.605 420.5 250.355 380.75 230.855 c 1
 420.5 213.605 427.25 158.105 427.25 138.605 c 1
 427.25 35.1055 346.154 -9.2627 255.5 -9.2627 c 16
 128 -9.2627 36.5 114.704 36.5 224.105 c 0
 36.5 332.606 117.5 466 248 466 c 8
 344.348 466 427.25 417.605 427.25 305.105 c 1
246.5 419.037 m 16
 141.5 419.037 65 340.329 65 227.105 c 0
 65 115.885 149 36.625 255.5 36.625 c 8
 324.915 36.625 402.5 74.1055 402.5 128.855 c 1
 402.5 162.605 383 202.355 339.5 203.105 c 1
 179 205.355 l 1
 113.75 206.105 112.25 246.605 179 248.105 c 1
 339.5 251.105 l 1
 383 251.855 402.5 296.105 402.5 325.355 c 1
 402.5 396.605 319.287 419.037 246.5 419.037 c 16
EndSplineSet
Back
428 140 m 0
 428 60 385 30 332 7 c 0
 188 -57 37 92 37 225 c 0
 37 349 141 505 311 458 c 0
 377 440 428 397 428 306 c 0
 428 282 421 251 382 232 c 1
 421 214 428 164 428 140 c 0
403 129 m 0
 406 161 384 203 340 204 c 2
 180 206 l 2
 115 207 113 248 180 249 c 2
 340 252 l 2
 384 253 403 295 403 326 c 0
 403 380 349 404 298 412 c 0
 154 435 66 357 66 228 c 0
 66 90 203 5 331 56 c 0
 373 73 401 92 403 129 c 0
EndSplineSet
EndChar
StartChar: uni025F
Encoding: 607 607 512
Width: 287
HStem: 22 56<42 117 173 244> 432 42<59 98 59 227>
VStem: 117 56<-69 22 78 415>
Fore
244 22 m 1
 173 22 l 1
 173 -35 l 2
 173 -94 126 -144 71 -146 c 0
 -9 -148 0 -58 51 -57 c 0
 85 -56 98 -92 76 -117 c 0
 70 -124 68 -128 60 -132 c 1
 71 -132 77 -130 87 -125 c 0
 109 -113 117 -94 117 -69 c 2
 117 22 l 1
 42 22 l 1
 42 78 l 1
 117 78 l 1
 117 410 l 1
 117 425 109 432 96 432 c 1
 59 432 l 1
 59 474 l 1
 227 474 l 1
 227 432 l 1
 193 432 l 1
 184 432 173 421 173 410 c 1
 173 78 l 1
 244 78 l 1
 244 22 l 1
EndSplineSet
EndChar
StartChar: uni0260
Encoding: 608 608 513
Width: 457
Flags: W
HStem: -212 19<217 233> -9 17<223 241> 454 18<233 257> 618 14<466.439 482>
VStem: 32 14<-97 -81> 34 73<219 253> 351 56<-37 21 120 553> 513 72<569 582>
Fore
217 -212 m 0
 123 -212 32 -172 32 -81 c 2
 32 -69 l 2
 32 -64 32 -59 33 -53 c 0
 39 -6 104 -7 110 -51 c 0
 113 -77 94 -102 65 -96 c 1
 53 -92 53 -94 46 -84 c 1
 46 -164 158 -193 217 -193 c 0
 296 -193 351 -116 351 -37 c 2
 351 21 l 1
 318 1 272 -9 233 -9 c 0
 104 -9 34 86 34 228 c 0
 34 350 110 471 233 472 c 0
 280 473 320 459 351 432 c 1
 351 519 l 2
 351 617 425 632 479 632 c 0
 541 632 585 605 585 569 c 0
 585 529 513 532 513 582 c 0
 513 590 515 596 519 603 c 1
 513 611 495 618 477 618 c 0
 451 618 407 597 407 553 c 2
 407 -37 l 2
 407 -143 330 -212 217 -212 c 0
351 121 m 1
 351 298 l 2
 351 425 330 454 233 454 c 0
 135 453 107 336 107 239 c 0
 107 138 132 8 235 8 c 0
 316 8 341 45 351 121 c 1
EndSplineSet
Back
339 394 m 1
 351.137 370.572 357.61 341 357.61 312 c 0
 357.61 236.817 315.612 158 218 158 c 0
 212 158 206 158 200 159 c 1
 161 156 112 158 112 131 c 0
 112 66 440 88 441 -39 c 0
 442 -145 344 -212 231 -212 c 0
 137 -212 32 -171.5 32 -81 c 2
 32 -69 l 2
 32 -64 32 -59 33 -53 c 0
 39 -6 104 -7 110 -51 c 0
 113 -77 94 -102 65 -96 c 1
 53 -92 53 -94.5 46 -83.5 c 1
 46 -164 171.5 -193 231 -193 c 8
 309.726 -193 387 -151.726 387 -73 c 16
 387 52 61 -26 61 106 c 8
 61 151.942 108 167 155 172 c 1
 103.044 196.922 76.5217 253.246 76.5217 310 c 0
 76.5217 386 123.275 466 218 466 c 0
 265 466 300 447 324 419 c 1
 324 504 394 532 442 532 c 0
 514 532 557 505 557 469 c 0
 557 428.987 485 432 485 482 c 0
 485 490 487 496 491 503 c 1
 485 507.5 464 517.653 440 517.653 c 0
 417 517.653 339 503 339 394 c 1
218 176 m 0
 273.276 176 302.71 242.271 302.71 310 c 0
 302.71 383 275.724 453 218 453 c 0
 160.004 453 133.309 381 133.309 309 c 0
 133.309 241.615 162.996 176 218 176 c 0
EndSplineSet
EndChar
StartChar: uni0261
Encoding: 609 609 514
Width: 457
Flags: W
HStem: -212 26<217 233> -9 17<223 241> 454 18<233 257>
VStem: 32 19<-98 -81> 34 73<219 253> 351 56<-37 21 120 488>
Fore
407 488 m 1
 407 -37 l 2
 407 -143 330 -212 217 -212 c 0
 123 -212 32 -172 32 -81 c 2
 32 -69 l 2
 32 -64 32 -59 33 -53 c 0
 39 -6 104 -7 110 -51 c 0
 113 -77 94 -102 65 -96 c 1
 53 -92 58 -100 51 -90 c 1
 52 -151 158 -186 217 -186 c 0
 296 -186 351 -116 351 -37 c 2
 351 21 l 1
 318 1 272 -9 233 -9 c 0
 104 -9 34 86 34 228 c 0
 34 350 110 471 233 472 c 0
 280 473 320 459 351 432 c 1
 351 460 l 1
 407 488 l 1
351 121 m 1
 351 298 l 2
 351 425 330 454 233 454 c 0
 135 453 107 336 107 239 c 0
 107 138 132 8 235 8 c 0
 316 8 341 45 351 121 c 1
EndSplineSet
Back
359.535 309 m 20
 359.535 234 311.349 158 218 158 c 4
 212 158 206 158 200 159 c 5
 161 156 112 158 112 131 c 4
 112 66 441 88.0039 441 -39 c 4
 441 -146 344 -212 231 -212 c 4
 137 -212 32 -171.5 32 -81 c 6
 32 -69 l 6
 32 -64 32 -59 33 -53 c 4
 39 -6 104 -7 110 -51 c 4
 113 -77 94 -102 65 -96 c 5
 53 -92 53 -94.5 46 -83.5 c 5
 46 -164 171.5 -193 231 -193 c 12
 309.726 -193 387 -151.726 387 -73 c 20
 387 52 61 -26 61 106 c 12
 61 151.942 108 167 155 172 c 5
 103.349 196.776 76.5321 252.582 76.5321 309 c 4
 76.5321 387 122 466 218 466 c 4
 309 466 359.535 393.552 359.535 309 c 20
218 176 m 4
 273.82 176 302.738 243.59 302.738 312 c 4
 302.738 381 275.18 453 218 453 c 4
 159.596 453 133.346 382 133.346 307.5 c 4
 133.346 240.635 163.404 176 218 176 c 4
EndSplineSet
EndChar
StartChar: uni0262
Encoding: 610 610 515
Width: 482
HStem: -8 18<233 252> 234 16<304 327 304 456> 444 17<227 248>
VStem: 39 54<215 249> 348 57<59 205>
Fore
457 234 m 5
 426 234 l 6
 410 234 405 216 405 203 c 6
 405 44 l 5
 378 54 l 5
 345 12 291.038 -8 239 -8 c 4
 122 -8 39 112 39 229 c 4
 39 344 128 461 233 461 c 4
 284.01 461 315 449 351 415 c 5
 381 457 l 5
 401 457 l 5
 410 305 l 5
 397 305 l 5
 393 317 390 325 384 337 c 4
 351 402 302.246 444 229 444 c 4
 146 444 92 319 93 223 c 4
 94 123 146 10 250 10 c 4
 295.011 10 324 23 348 60 c 5
 348 203 l 6
 348 218 343 234 325 234 c 6
 304 234 l 5
 304 250 l 5
 457 250 l 5
 457 234 l 5
EndSplineSet
EndChar
StartChar: uni0263
Encoding: 611 611 516
Width: 542
Flags: W
HStem: 442 20G<18 191.75>
DStem: 78 404.5 138 403.25 209.5 24.5 242 94 209.5 24.5 222.5 -2 156.75 -91.5 178 -94 222.5 -2 257 67 249 -86 294 -46 354.5 324.5 382 332 242 94 257 67
Fore
500.75 445.25 m 1
 490.75 445.25 l 2
 443.25 445.25 397 370.75 382 332 c 1
 257 67 l 1
 294 -46 l 2
 310.799 -96.3956 302 -192 212 -192 c 4
 150 -192 140.525 -140.175 156.75 -91.5 c 1
 209.5 24.5 l 1
 78 404.5 l 2
 69.25 428.25 55.5 445.75 29.25 445.75 c 2
 18 445.75 l 1
 18 462 l 1
 191.75 462 l 1
 191.75 445.75 l 1
 153 445.75 l 2
 126.75 445.75 133 418.25 138 403.25 c 2
 242 94 l 1
 354.5 324.5 l 2
 373.25 374.5 404.25 445.25 326.75 445.25 c 2
 305.5 445.25 l 1
 305.5 461.5 l 1
 500.75 461.5 l 1
 500.75 445.25 l 1
249 -86 m 1
 222.5 -2 l 1
 178 -94 l 1
 168.248 -120.818 164 -166.25 208.25 -166.25 c 0
 268 -166.25 261.828 -118.069 249 -86 c 1
EndSplineSet
MinimumDistance: x18,1 x9,14 
Back
361 338 m 5
 164 -72 l 5
372 308 m 1
 175 -102 l 1
214 181 m 1
 279 354 l 2
EndSplineSet
EndChar
StartChar: uni0264
Encoding: 612 612 517
Width: 546
Flags: W
HStem: 440 22<98.4231 111 420 429>
DStem: 172 364 232 368 274 78 326 102 332 366 344 346 210 74 230 76
Fore
28 420 m 17
 48 444 71.8584 462 108 462 c 16
 144 462 199.622 460.689 232 368 c 2
 326 102 l 2
 349.582 34.2021 301.538 -3.24023 251 0 c 24
 217.23 2.16549 196.954 42.7764 210 74 c 18
 332 366 l 10
 352.082 414.065 372 462 420 462 c 0
 460.051 462 476 440 502 420 c 9
 502 393 l 17
 472 415 456 440 420 440 c 0
 378 440 362.808 390.544 344 346 c 18
 230 76 l 10
 220.868 54.3711 225 22 253 22 c 8
 276.923 22 283.822 49.9375 274 78 c 2
 172 364 l 10
 158.649 401.434 144 440 108 440 c 0
 82 440 52 416 28 393 c 9
 28 420 l 17
EndSplineSet
Back
28 420 m 9
 28 393 l 17
 52 416 82 440 108 440 c 0
 144 440 158.826 401.496 172 364 c 18
 276 68 l 2
 285.822 39.9375 273.572 22 253 22 c 16
 225 22 220.868 54.3711 230 76 c 18
 344 346 l 10
 362.808 390.544 378 440 420 440 c 0
 456 440 472 415 502 393 c 9
 502 420 l 17
 476 440 460.051 462 420 462 c 0
 372 462 352.082 414.065 332 366 c 18
 210 74 l 10
 196.954 42.7764 217.602 5.44922 251 0 c 24
 295.428 -7.24805 348.845 33.5029 334 76 c 22
 232 368 l 2
 199.622 460.689 144 462 108 462 c 8
 71.8584 462 48 444 28 420 c 9
EndSplineSet
EndChar
StartChar: uni0265
Encoding: 613 613 518
Width: 510
HStem: 0 27<220 236> 454 18<28 77 28 224 292 339 292 488>
VStem: 98 56<75 432> 362 56<-193 432>
Fore
28 472 m 5
 224 472 l 5
 224 454 l 5
 179 454 l 6
 166 454 154 440 154 427 c 6
 154 106 l 6
 154 63 190 27 234 27 c 4
 283.041 27 336 68 362 98 c 5
 362 427 l 6
 362 440 351 454 337 454 c 6
 292 454 l 5
 292 472 l 5
 488 472 l 5
 488 454 l 5
 444 454 l 6
 431 454 418 440 418 427 c 6
 418 -95 l 5
 473 -111 l 5
 473 -126 l 5
 362 -193 l 5
 362 70 l 5
 331 37 275.082 0 220 0 c 4
 166 0 98 9 98 75 c 6
 98 427 l 6
 98 439 86 454 73 454 c 6
 28 454 l 5
 28 472 l 5
EndSplineSet
EndChar
StartChar: uni0266
Encoding: 614 614 519
Width: 510
HStem: 0 18<28 224 292 488> 445 27<280 296>
VStem: 98 56<45 374 45 608> 260 72<624 637> 362 56<45 376>
Fore
488 0 m 5
 292 0 l 5
 292 18 l 5
 337 18 l 6
 350 18 362 32 362 45 c 6
 362 366 l 6
 362 409 328 445 282 445 c 4
 232.959 445 180 404 154 374 c 5
 154 45 l 6
 154 32 165 18 179 18 c 6
 224 18 l 5
 224 0 l 5
 28 0 l 5
 28 18 l 5
 72 18 l 6
 85 18 98 32 98 45 c 5
 98 574 l 5
 98 672 172 687 226 687 c 4
 288 687 332 660 332 624 c 4
 332 583.987 260 587 260 637 c 4
 260 645 262 651 266 658 c 5
 256 668 237.212 672.653 224 672.653 c 4
 198 672.653 154 652 154 608 c 6
 154 402 l 5
 185 435 240.918 472 296 472 c 4
 348 472 418 463 418 397 c 6
 418 45 l 6
 418 33 430 18 443 18 c 6
 488 18 l 5
 488 0 l 5
EndSplineSet
Back
488 0 m 1
 292 0 l 1
 292 18 l 1
 337 18 l 2
 350 18 362 32 362 45 c 2
 362 366 l 2
 362 409 325 447 282 445 c 0
 233 443 180 404 154 374 c 1
 154 45 l 2
 154 32 165 18 179 18 c 2
 224 18 l 1
 224 0 l 1
 28 0 l 1
 28 18 l 1
 72 18 l 2
 85 18 98 32 98 45 c 1
 99 592 l 1
 99 646 146 687 200 687 c 0
 239 687 265 669 266 637 c 0
 267 597 194 600 194 650 c 0
 194 658 196 664 200 671 c 1
 176 681 154 661 154 636 c 2
 154 402 l 1
 185 435 241 469 296 472 c 0
 351 476 418 463 418 397 c 2
 418 45 l 2
 418 33 430 18 443 18 c 2
 488 18 l 1
 488 0 l 1
EndSplineSet
EndChar
StartChar: uni0267
Encoding: 615 615 520
Width: 510
Flags: W
HStem: 0 18<28 224> 445 27<280 296>
VStem: 98 56<45 375 45 608> 184 72<-90 -77> 260 72<624 637> 362 56<-61 377>
Fore
418 -27 m 1
 418 -125 344 -140 290 -140 c 0
 228 -140 184 -113 184 -77 c 0
 184 -36.9873 256 -40 256 -90 c 0
 256 -98 254 -104 250 -111 c 1
 257.089 -113.954 278.788 -125.653 292 -125.653 c 0
 318 -125.653 362 -105 362 -61 c 2
 362 366 l 2
 362 409 326 445 282 445 c 0
 232.959 445 180 404 154 374 c 1
 154 45 l 2
 154 32 165 18 179 18 c 2
 224 18 l 1
 224 0 l 1
 28 0 l 1
 28 18 l 1
 72 18 l 2
 85 18 98 32 98 45 c 1
 98 574 l 1
 98 672 172 687 226 687 c 0
 288 687 332 660 332 624 c 0
 332 583.987 260 587 260 637 c 0
 260 645 262 651 266 658 c 1
 260 664.5 237.212 672.653 224 672.653 c 0
 198 672.653 154 652 154 608 c 2
 154 402 l 1
 185 435 240.918 472 296 472 c 0
 354 472 418 463 418 397 c 2
 418 -27 l 1
EndSplineSet
Back
418 0 m 2
 418 -54 371 -95 317 -95 c 0
 278 -95 252 -77 251 -45 c 0
 250 -5 323 -8 323 -58 c 0
 323 -66 321 -72 317 -79 c 1
 340 -88 362 -72 362 -47 c 2
 362 366 l 2
 362 409 325 447 282 445 c 0
 233 443 180 404 154 374 c 1
 154 45 l 2
 154 32 165 18 179 18 c 2
 224 18 l 1
 224 0 l 1
 28 0 l 1
 28 18 l 1
 72 18 l 2
 85 18 98 32 98 45 c 2
 98 592 l 2
 98 646 146 687 200 687 c 0
 239 687 265 669 266 637 c 0
 267 597 194 600 194 650 c 0
 194 658 196 664 200 671 c 1
 176 681 154 661 154 636 c 2
 154 402 l 1
 185 435 241 469 296 472 c 0
 351 476 418 463 418 397 c 2
 418 0 l 2
EndSplineSet
EndChar
StartChar: uni0268
Encoding: 616 616 521
Width: 262
HStem: 0 18<31 228> 200 46<33 102 157 230>
VStem: 102 55<45 200 246 474>
Fore
164 583 m 0
 164 536 93 536 93 583 c 0
 93 631 164 631 164 583 c 0
230 200 m 5
 157 200 l 5
 157 45 l 2
 157 32 170 18 183 18 c 2
 228 18 l 1
 228 0 l 1
 31 0 l 1
 31 18 l 1
 76 18 l 2
 89 18 102 32 102 45 c 2
 102 200 l 5
 33 200 l 5
 33 246 l 1
 102 246 l 1
 102 376 l 1
 49 394 l 1
 49 407 l 1
 157 474 l 1
 157 246 l 1
 230 246 l 1
 230 200 l 5
EndSplineSet
EndChar
StartChar: uni0269
Encoding: 617 617 522
Width: 295
HStem: -21 20G<169 222.5>
VStem: 102 55<75 474>
Fore
157 474 m 1
 157 45 l 2
 157 20 181 6 203 15 c 1
 199 22 197 28 197 36 c 0
 197 86 270 89 269 49 c 0
 268 17 242 -1 203 -1 c 0
 135 -1 102 30 102 94 c 0
 102 115 102 30 102 376 c 1
 49 394 l 1
 49 407 l 1
 157 474 l 1
EndSplineSet
EndChar
StartChar: uni026A
Encoding: 618 618 523
Width: 297
HStem: 0 24<45 275> 438 24<45 100 45 275>
VStem: 133 55<61 403>
Fore
275 0 m 5
 45 0 l 5
 45 24 l 5
 98 24 l 6
 116 24 133 44 133 61 c 6
 133 401 l 6
 133 418 116 438 98 438 c 6
 45 438 l 5
 45 462 l 5
 275 462 l 5
 275 438 l 5
 223 438 l 6
 204 438 188 420 188 401 c 6
 188 61 l 6
 188 42 204 24 223 24 c 6
 275 24 l 5
 275 0 l 5
EndSplineSet
EndChar
StartChar: uni026B
Encoding: 619 619 524
Width: 262
HStem: 0 18<31 227>
VStem: 101 56<45 369 443 670>
Fore
227 0 m 1
 31 0 l 1
 31 18 l 1
 76 18 l 2
 89 18 101 33 101 45 c 2
 101 400 l 1
 75 410 43 388 29 367 c 1
 19 367 l 1
 20 405 60 452 101 444 c 1
 101 572 l 1
 46 587 l 1
 46 603 l 1
 157 670 l 1
 157 412 l 1
 178 406 205 425 217 441 c 1
 222 441 l 1
 225 403 199 362 157 368 c 1
 157 45 l 2
 157 32 169 18 182 18 c 2
 227 18 l 1
 227 0 l 1
EndSplineSet
EndChar
StartChar: uni026C
Encoding: 620 620 525
Width: 262
HStem: 0 18<31 227>
VStem: 6 36<351 369> 101 56<45 280 312 670>
Fore
241 280 m 5
 213 280 185 279 157 280 c 5
 157 45 l 6
 157 32 169 18 182 18 c 6
 227 18 l 5
 227 0 l 5
 31 0 l 5
 31 18 l 5
 76 18 l 6
 89 18 101 33 101 45 c 6
 101 283 l 5
 53 292 6 315 6 362 c 4
 6 409 64 438 101 439 c 5
 101 572 l 5
 46 587 l 5
 46 603 l 5
 157 670 l 5
 157 306 l 5
 185 305 213 306 241 306 c 5
 241 280 l 5
101 312 m 5
 101 408 l 5
 67 408 42 388 42 360 c 4
 42 333 69 319 101 312 c 5
EndSplineSet
EndChar
StartChar: uni026D
Encoding: 621 621 526
Width: 262
VStem: 101 56<-13.3638 572>
Fore
269 -45 m 4
 268 -77 242 -95 203 -95 c 4
 149 -95 101 -54 101 0 c 6
 101 572 l 5
 46 587 l 5
 46 603 l 5
 157 670 l 5
 157 -49 l 6
 157 -74 181 -88 203 -79 c 5
 199 -72 197 -66 197 -58 c 4
 197 -8 270 -5 269 -45 c 4
EndSplineSet
EndChar
StartChar: uni026E
Encoding: 622 622 527
Width: 465
Flags: W
HStem: 0 18<31 227> 446 18<157 336.941>
VStem: 101 56<45 446 45 670>
DStem: 337 446 419 464 182 192 271 217
Fore
157 464 m 5
 419 464 l 5
 271 217 l 5
 513 144 466 -212 209 -220 c 4
 148 -222 87 -177 91 -116 c 4
 96 -39 193 -42 190 -107 c 4
 189 -138 172 -155 141 -150 c 5
 146 -172 175 -192 197 -192 c 4
 249 -192 355 -128 362 -24 c 4
 367 57 294 163 205 163 c 6
 182 163 l 5
 182 192 l 5
 337 446 l 5
 296.507 445.862 204.508 445.968 157 446.525 c 5
 157 45 l 6
 157 32 169 18 182 18 c 6
 227 18 l 5
 227 0 l 5
 31 0 l 5
 31 18 l 5
 76 18 l 6
 89 18 101 33 101 45 c 6
 101 572 l 5
 46 587 l 5
 46 603 l 5
 157 670 l 5
 157 464 l 5
EndSplineSet
EndChar
StartChar: uni026F
Encoding: 623 623 528
Width: 785
HStem: 2 27<222 238 484 500> 456 18<28 77 28 225 292 339 292 488 556 605 556 752>
VStem: 98 58<77 433> 362 56<96 433> 626 56<97 433>
Fore
28 474 m 1
 226 474 l 1
 226 456 l 1
 182 456 l 2
 169 456 156 442 156 429 c 2
 156 108 l 2
 156 65 192.954 29 236 29 c 0
 280 29 334 68 362 97 c 1
 362 429 l 2
 362 441 350 456 337 456 c 2
 292 456 l 1
 292 474 l 1
 488 474 l 1
 488 456 l 1
 443 456 l 2
 430 456 418 442 418 429 c 2
 418 108 l 2
 418 65 452 29 498 29 c 0
 547.041 29 599 69 626 98 c 1
 626 429 l 2
 626 442 613 456 600 456 c 2
 556 456 l 1
 556 474 l 1
 752 474 l 1
 752 456 l 1
 707 456 l 2
 693 456 682 442 682 429 c 2
 682 98 l 1
 736 83 l 1
 736 67 l 1
 626 0 l 1
 626 71 l 1
 594 39 539.107 2 484 2 c 0
 430 2 367 10 362 70 c 1
 330 38 278 2 222 2 c 4
 166.89 2 98 11 98 77 c 2
 98 429 l 2
 98 442 86 456 73 456 c 2
 28 456 l 1
 28 474 l 1
EndSplineSet
EndChar
StartChar: uni0270
Encoding: 624 624 529
Width: 785
HStem: 2 27<222 238 484 500> 456 18<28 77 28 225 292 339 292 488 556 605 556 752>
VStem: 98 58<77 435> 362 56<96 435> 626 56<-206 435>
Fore
752 456 m 1
 707 456 l 2
 693 456 682 442 682 429 c 2
 682 -108 l 1
 736 -123 l 1
 736 -139 l 1
 626 -206 l 1
 626 71 l 1
 594 39 539 2 484 2 c 0
 431 2 367 10 362 70 c 1
 330 38 276 2 222 2 c 4
 167 2 98 11 98 77 c 2
 98 429 l 2
 98 442 86 456 73 456 c 2
 28 456 l 1
 28 474 l 1
 226 474 l 1
 226 456 l 1
 182 456 l 2
 169 456 156 442 156 429 c 2
 156 108 l 2
 156 65 196 29 236 29 c 0
 283.043 29 334 68 362 97 c 1
 362 429 l 2
 362 441 350 456 337 456 c 2
 292 456 l 1
 292 474 l 1
 488 474 l 1
 488 456 l 1
 443 456 l 2
 430 456 418 442 418 429 c 2
 418 108 l 2
 418 65 450 29 498 29 c 0
 547.041 29 599 69 626 98 c 1
 626 429 l 2
 626 442 613 456 600 456 c 2
 556 456 l 1
 556 474 l 1
 752 474 l 1
 752 456 l 1
EndSplineSet
EndChar
StartChar: uni0271
Encoding: 625 625 530
Width: 785
HStem: 0 18<28 224 292 488> 445 27<280 296 542 558>
VStem: 98 56<45 376> 362 56<45 378> 624 58<-69 378>
Fore
682 -35 m 2
 682 -94 633 -144 578 -146 c 0
 498 -148 507 -58 558 -57 c 0
 592 -56 605 -92 583 -117 c 0
 577 -124 575 -128 567 -132 c 1
 578 -132 584 -130 594 -125 c 0
 616 -113 624 -94 624 -69 c 2
 624 366 l 2
 624 409 587.047 445 544 445 c 4
 502 445 446 406 418 377 c 5
 418 45 l 2
 418 33 430 18 443 18 c 2
 488 18 l 1
 488 0 l 1
 292 0 l 1
 292 18 l 1
 337 18 l 2
 350 18 362 32 362 45 c 2
 362 366 l 2
 362 409 325.046 445 282 445 c 4
 236 445 181 405 154 376 c 1
 154 45 l 2
 154 32 167 18 180 18 c 2
 224 18 l 1
 224 0 l 1
 28 0 l 1
 28 18 l 1
 73 18 l 2
 87 18 98 32 98 45 c 2
 98 376 l 1
 44 391 l 1
 44 407 l 1
 154 474 l 1
 154 403 l 1
 186 435 238 472 296 472 c 4
 349.085 472 413 464 418 404 c 5
 450 436 502 472 558 472 c 4
 613.145 472 682 463 682 397 c 2
 682 -35 l 2
EndSplineSet
EndChar
StartChar: uni0272
Encoding: 626 626 531
Width: 510
HStem: -148 21G<-5 53> 0 18<292 488> 445 27<280 296>
VStem: -80 72<-98 -85> 98 56<-69 376> 362 56<45 378>
Fore
154 -35 m 6
 154 -133 80 -148 26 -148 c 0
 -36 -148 -80 -121 -80 -85 c 0
 -80 -44.9873 -8 -48 -8 -98 c 0
 -8 -106 -10 -112 -14 -119 c 1
 -10 -127 11 -133.653 28 -133.653 c 0
 54 -133.653 98 -110.333 98 -69 c 2
 98 376 l 1
 44 391 l 1
 44 407 l 1
 154 474 l 1
 154 403 l 1
 186 435 240.918 472 296 472 c 0
 354 472 418 463 418 397 c 2
 418 45 l 2
 418 32 431 18 444 18 c 2
 488 18 l 1
 488 0 l 1
 292 0 l 1
 292 18 l 1
 337 18 l 2
 351 18 362 32 362 45 c 2
 362 366 l 2
 362 409 324 445 282 445 c 0
 232.959 445 181 405 154 376 c 1
 154 -35 l 6
EndSplineSet
EndChar
StartChar: uni0273
Encoding: 627 627 532
Width: 510
HStem: -168 20G<463 521> 0 18<28 224> 445 27<280 296>
VStem: 98 56<45 376> 362 56<-53 397> 524 72<-98 -85>
Fore
362 -35 m 2
 362 366 l 2
 362 409 324 445 282 445 c 0
 232.959 445 181 405 154 376 c 1
 154 45 l 2
 154 32 167 18 180 18 c 2
 224 18 l 1
 224 0 l 1
 28 0 l 1
 28 18 l 1
 73 18 l 2
 87 18 98 32 98 45 c 2
 98 376 l 1
 44 391 l 1
 44 407 l 1
 154 474 l 1
 154 403 l 1
 186 435 240.918 472 296 472 c 0
 350 472 418 463 418 397 c 2
 418 -69 l 2
 418 -110.333 462 -133.653 488 -133.653 c 0
 505 -133.653 526 -127 530 -119 c 1
 526 -112 524 -106 524 -98 c 0
 524 -48 596 -44.9873 596 -85 c 0
 596 -121 552 -148 490 -148 c 0
 436 -148 362 -133 362 -35 c 2
EndSplineSet
EndChar
StartChar: uni0274
Encoding: 628 628 533
Width: 584
HStem: 0 31<17 217> 432 31<47 86 322 370 322 521>
VStem: 109 23<83.7026 389> 407 23<64 371>
DStem: 132 389 148 463 386 0 407 64
Fore
521 433 m 1
 475 433 l 2
 444 433 430 395 430 369 c 2
 430 0 l 1
 386 0 l 1
 132 389 l 1
 132 95 l 2
 132 71 148 31 177 31 c 2
 217 31 l 1
 217 0 l 1
 17 0 l 1
 17 31 l 1
 63 31 l 2
 93 31 109 71 109 95 c 2
 109 406 l 2
 109 419 96 432 84 432 c 2
 47 432 l 1
 47 463 l 1
 148 463 l 1
 407 64 l 5
 407 369 l 2
 407 395 394 433 362 433 c 2
 322 433 l 1
 322 463 l 1
 521 463 l 1
 521 433 l 1
EndSplineSet
Back
521 433 m 1
 475 433 l 2
 444 433 430 395 430 369 c 2
 430 0 l 1
 386 0 l 1
 122 405 l 1
 122 95 l 2
 122 71 138 31 167 31 c 2
 207 31 l 1
 207 0 l 1
 17 0 l 1
 17 31 l 1
 63 31 l 2
 93 31 109 71 109 95 c 2
 109 406 l 2
 109 419 96 432 84 432 c 2
 47 432 l 1
 47 463 l 1
 148 463 l 1
 416 56 l 1
 416 369 l 2
 416 395 403 433 371 433 c 2
 331 433 l 1
 331 463 l 1
 521 463 l 1
 521 433 l 1
EndSplineSet
EndChar
StartChar: uni0275
Encoding: 629 629 534
Width: 482
HStem: -9 15<227.922 245> 205 57<111 373> 455 17<228.017 245>
Fore
242 -9 m 0
 112.909 -9 50.7798 114.258 50.7798 236 c 4
 50.7798 352 116.091 472 242 472 c 0
 369.323 472 433.073 352.083 433.25 232 c 0
 433.427 111.584 369.677 -9 242 -9 c 0
372 262 m 1
 365 363 322 455 242 455 c 0
 163 455 119 363 111 262 c 1
 372 262 l 1
373 205 m 1
 111 205 l 1
 117 102 161 6 242 6 c 0
 323 6 367 102 373 205 c 1
EndSplineSet
EndChar
StartChar: uni0276
Encoding: 630 630 535
Width: 854
HStem: 0 10<259 274.008> 0 21<430 624> 246 17<407 480> 442 21<259 528> 452 11<254 272>
VStem: 356 51<60 400> 356 208<61 342> 544 20<164 342>
Fore
661 137 m 1
 624 0 l 1
 308 0 l 2
 295 0 279 -1 259 -1 c 0
 92.9492 -7.09361 15.7135 112.606 15.7135 232 c 4
 15.7135 350 100.512 463 259 463 c 0
 383 463 503 463 630 463 c 1
 661 323 l 1
 647 323 l 1
 637 344 l 2
 612 398 588 442 522 442 c 2
 432 442 l 2
 413 442 407 423 407 407 c 0
 407 358 407 316 407 263 c 1
 476 263 l 2
 509 263 544 295 544 329 c 2
 544 342 l 1
 564 342 l 1
 564 164 l 1
 544 164 l 1
 544 176 l 2
 544 211 511 246 476 246 c 2
 407 246 l 1
 407 53 l 2
 407 39 417 21 432 21 c 2
 522 21 l 2
 585 21 613 62 637 115 c 2
 647 137 l 1
 661 137 l 1
356 61 m 1
 356 400 l 1
 347 418 298 452 261 452 c 0
 140.365 452 71.7766 342 71.7766 232 c 4
 71.7766 121.123 128.608 10 259 10 c 0
 298 10 332 30 356 61 c 1
EndSplineSet
EndChar
StartChar: uni0277
Encoding: 631 631 536
Width: 738
Flags: W
HStem: -9 33<227 252 472 499> 474 38<355 389>
VStem: 336 60<108 322>
DStem: 339 322 396 322 336 108 400 108
Fore
472 -9 m 5
 442 -9 399 0 373 53 c 5
 350 0 276 -9 250 -9 c 5
 112 -9 52.8414 99.128 52.8414 220 c 16
 52.8414 390 218.131 512 364 512 c 0
 508.668 512 686.526 404 686.526 230 c 8
 686.526 101.537 622 -9 472 -9 c 5
623.909 232 m 16
 623.909 372 518.965 474 368 474 c 0
 219.705 474 114.025 362 114.025 220 c 8
 114.025 127.446 164 24 237 24 c 5
 282 24 335 50 336 108 c 1
 339 322 l 1
 340 409 394 411 396 322 c 1
 400 108 l 1
 401 50 460 24 499 24 c 5
 594 24 623.909 134.95 623.909 232 c 16
EndSplineSet
MinimumDistance: x9,14 
EndChar
StartChar: uni0278
Encoding: 632 632 537
Width: 427
Flags: W
HStem: 0 22<273 295> 573 22<118.538 295.448> 573.3 22.6<136.225 313.135>
VStem: 44 60<293 305>
Fore
188.425 480.601 m 1
 129.881 442.458 104 369 104 293.401 c 0
 104 216.808 134.561 140.463 188.425 104.4 c 1
 188.425 480.601 l 1
243.448 105 m 1
 302.448 144 330.448 224 330.448 300 c 0
 330.448 376 300.448 451 243.448 479 c 1
 243.448 105 l 1
188.425 88.2002 m 1
 93.5879 105.279 44 199.574 44 293.4 c 0
 44 388.8 93.3613 481.032 188.425 495.9 c 1
 188.425 540 l 2
 188.425 555.3 173.125 573.3 156.925 573.3 c 2
 136.225 573.3 l 1
 136.225 595.9 l 1
 295.448 595 l 1
 295.448 573 l 1
 275.448 573 l 2
 258.448 573 243.448 557 243.448 540 c 2
 243.448 495 l 1
 342.448 475 392.448 389 392.448 297 c 0
 392.448 202 340.448 107 243.448 89 c 1
 243.448 55 l 2
 243.448 38 258.448 22 275.448 22 c 2
 295.448 22 l 1
 295.448 0 l 1
 136.225 0 l 1
 136.225 21.6006 l 1
 156.925 21.6006 l 2
 173.125 21.6006 188.425 39.6006 188.425 54.9004 c 2
 188.425 88.2002 l 1
EndSplineSet
EndChar
StartChar: uni0279
Encoding: 633 633 538
Width: 345
HStem: 453 18<115 167 115 311>
VStem: 185 56<93 433>
Fore
22 30 m 4
 20 54 42 75 66 76 c 4
 88 77 102 74 116 55 c 4
 120 51 116 47 115 43 c 5
 144 50 167 73 185 94 c 5
 185 426 l 6
 185 439 173 453 160 453 c 6
 115 453 l 5
 115 471 l 5
 311 471 l 5
 311 453 l 5
 266 453 l 6
 253 453 241 439 241 426 c 6
 241 81 l 5
 281 65 l 5
 281 59 l 5
 185 2 l 5
 185 69 l 5
 157 39 102 -4 60 0 c 4
 41 3 24 11 22 30 c 4
EndSplineSet
EndChar
StartChar: uni027A
Encoding: 634 634 539
Width: 345
HStem: 667 18<115 162 115 311>
VStem: 185 56<93 642>
Fore
311 667 m 5
 266 667 l 6
 253 667 241 653 241 640 c 6
 241 81 l 5
 281 65 l 5
 281 59 l 5
 185 2 l 5
 185 69 l 5
 157 39 102 -4 60 0 c 4
 41 3 24 11 22 30 c 4
 20 54 42 75 66 76 c 4
 88 77 102 74 116 55 c 4
 120 51 116 47 115 43 c 5
 144 50 167 73 185 94 c 5
 185 640 l 6
 185 652 173 667 160 667 c 6
 115 667 l 5
 115 685 l 5
 311 685 l 5
 311 667 l 5
EndSplineSet
EndChar
StartChar: uni027B
Encoding: 635 635 540
Width: 345
HStem: 447 18<115 167 115 311>
VStem: 185 56<-27 422> 347 72<-72 -59>
Fore
241 -43 m 6
 241 -84.3333 285 -107.653 311 -107.653 c 4
 328 -107.653 349 -101 353 -93 c 5
 349 -86 347 -80 347 -72 c 4
 347 -22 419 -18.9873 419 -59 c 4
 419 -95 375 -122 313 -122 c 4
 259 -122 185 -107 185 -9 c 6
 185 69 l 1
 157 39 102 -4 60 0 c 0
 41 3 24 11 22 30 c 0
 20 54 42 75 66 76 c 0
 88 77 102 74 116 55 c 0
 120 51 116 47 115 43 c 1
 143 50 168 74 185 94 c 1
 185 420 l 2
 185 433 173 447 160 447 c 2
 115 447 l 1
 115 465 l 1
 311 465 l 1
 311 447 l 1
 266 447 l 2
 253 447 241 433 241 420 c 2
 241 -43 l 6
EndSplineSet
EndChar
StartChar: uni027C
Encoding: 636 636 541
Width: 345
HStem: -218 18<22 218>
VStem: 92 56<-173 372>
Fore
22 -200 m 1
 67 -200 l 2
 80 -200 92 -186 92 -173 c 2
 92 385 l 1
 52 401 l 1
 52 407 l 1
 148 464 l 1
 148 397 l 1
 176 428 231 471 273 466 c 0
 292 464 309 455 311 436 c 0
 313 412 291 391 267 390 c 0
 245 389 231 392 217 411 c 0
 213 415 217 419 218 423 c 1
 189 417 166 394 148 372 c 1
 148 -173 l 2
 148 -186 160 -200 173 -200 c 2
 218 -200 l 1
 218 -218 l 1
 22 -218 l 1
 22 -200 l 1
EndSplineSet
EndChar
StartChar: uni027D
Encoding: 637 637 542
Width: 345
VStem: 92 56<-27 377> 254 72<-72 -59>
Fore
148 -46 m 6
 148 -90 192 -107.653 218 -107.653 c 0
 231.212 -107.653 253 -102 260 -93 c 1
 256 -86 254 -80 254 -72 c 0
 254 -22 326 -18.9873 326 -59 c 0
 326 -95 282 -122 220 -122 c 0
 166 -122 92 -107 92 -9 c 2
 92 390 l 1
 52 406 l 1
 52 412 l 1
 148 469 l 1
 148 402 l 1
 158 413 169 423 183 433 c 0
 214 455 237 475 273 471 c 0
 292 469 309 460 311 441 c 0
 313 417 291 396 267 395 c 0
 245 394 231 397 217 416 c 0
 213 420 217 424 218 428 c 1
 190 422 165 398 148 377 c 1
 148 -46 l 6
EndSplineSet
EndChar
StartChar: uni027E
Encoding: 638 638 543
Width: 345
HStem: 0 18<22 218> 485 21G<166 212.5>
VStem: 92 56<45 401>
Fore
259 435 m 0
 260 395 187 398 187 448 c 0
 187 456 189 462 193 469 c 1
 171 478 148 464 148 439 c 2
 148 45 l 2
 148 33 160 18 173 18 c 2
 218 18 l 1
 218 0 l 1
 22 0 l 1
 22 18 l 1
 67 18 l 2
 80 18 92 32 92 45 c 2
 92 390 l 2
 92 444 139 485 193 485 c 0
 232 485 258 467 259 435 c 0
EndSplineSet
EndChar
StartChar: uni027F
Encoding: 639 639 544
Width: 345
HStem: 0 18<63 259> 485 21G<68.5 115>
VStem: 133 56<45 401>
Fore
22 435 m 0
 23 467 49 485 88 485 c 0
 142 485 189 444 189 390 c 2
 189 45 l 2
 189 32 201 18 214 18 c 2
 259 18 l 1
 259 0 l 1
 63 0 l 1
 63 18 l 1
 108 18 l 2
 121 18 133 33 133 45 c 2
 133 439 l 2
 133 464 110 478 88 469 c 1
 92 462 94 456 94 448 c 0
 94 398 21 395 22 435 c 0
EndSplineSet
EndChar
StartChar: uni0280
Encoding: 640 640 545
Width: 515
HStem: 0 11<444 455> 0 17<34 214> 257 17<153 215> 442 21<34 227> 446 17<34 73>
VStem: 96 57<43 257 43 442>
DStem: 215 257 268 258 338 40 390 50
Fore
308 374 m 0
 307 418 266 442 223 442 c 2
 153 442 l 1
 153 274 l 1
 222 274 l 2
 280 274 308 304 308 374 c 0
268 258 m 1
 390 50 l 2
 398 36 427 11 446 11 c 2
 455 11 l 1
 455 0 l 1
 398 0 l 2
 368 0 352 15 338 40 c 2
 215 257 l 1
 153 257 l 1
 153 43 l 2
 153 29 164 17 177 17 c 2
 214 17 l 1
 214 0 l 1
 34 0 l 1
 34 17 l 1
 71 17 l 2
 84 17 96 30 96 43 c 2
 96 419 l 2
 96 432 84 446 71 446 c 2
 34 446 l 1
 34 463 l 1
 258 463 l 2
 310 463 356 445 361 376 c 0
 366 299 323 264 268 258 c 1
EndSplineSet
EndChar
StartChar: uni0281
Encoding: 641 641 546
Width: 515
HStem: 0 17<34 258> 0 21<153 258> 188 18<153 222> 446 17<34 73 34 214> 451 12<398 455>
VStem: 96 57<41 188 43 426>
DStem: 338 423 390 412 215 206 268 204
Fore
308 88 m 0
 308 158 280 188 222 188 c 2
 153 188 l 1
 153 21 l 1
 223 21 l 2
 266 21 307 44 308 88 c 0
268 204 m 1
 323 198 366 164 361 87 c 0
 356 17 310 0 258 0 c 2
 34 0 l 1
 34 17 l 1
 71 17 l 2
 84 17 96 31 96 43 c 2
 96 420 l 2
 96 432 84 446 71 446 c 2
 34 446 l 1
 34 463 l 1
 214 463 l 1
 214 446 l 1
 177 446 l 2
 164 446 153 433 153 420 c 2
 153 206 l 1
 215 206 l 1
 338 423 l 2
 352 447 368 463 398 463 c 2
 455 463 l 1
 455 451 l 1
 446 451 l 2
 427 451 398 426 390 412 c 2
 268 204 l 1
EndSplineSet
EndChar
StartChar: uni0282
Encoding: 642 642 547
Width: 385
HStem: -142 19<163 189>
VStem: 44 51<347 383> 57 24<-48 18> 283 49<100 119>
Fore
332 119 m 0
 332 43 267 -2 193 -9 c 0
 153 -13 117 5 81 18 c 1
 81 -42 l 2
 81 -80 131 -123 167 -123 c 0
 190 -123 217 -122 233 -109 c 1
 229 -102 227 -96 227 -88 c 0
 227 -38 300 -35 299 -75 c 0
 298 -107 256 -142 165 -142 c 0
 111 -142 57 -89 57 -35 c 2
 57 136 l 1
 64 136 l 1
 72 74 131 -3 200 9 c 0
 247 17 283 51.9896 283 100 c 0
 283 210 44 190 44 347 c 0
 44 420.007 109 467 186 472 c 0
 227 475 271 457 308 440 c 1
 308 330 l 1
 306 330 l 1
 296 386 257 452 193 452 c 0
 146 452 95 429.098 95 383 c 0
 95 258 332 282 332 119 c 0
EndSplineSet
EndChar
StartChar: uni0283
Encoding: 643 643 548
Width: 272
HStem: -155 21G<19.5 66> 665 21G<156 202.5>
VStem: 83 56<-109 582>
Fore
249 615 m 0
 250 575 177 578 177 628 c 0
 177 636 179 642 183 649 c 1
 161 658 139 644 139 619 c 2
 139 -60 l 2
 139 -114 93 -155 39 -155 c 0
 0 -155 -26 -137 -27 -105 c 0
 -28 -65 45 -68 45 -118 c 0
 45 -126 43 -132 39 -139 c 1
 61 -148 83 -134 83 -109 c 2
 83 570 l 2
 83 624 129 665 183 665 c 0
 222 665 248 647 249 615 c 0
EndSplineSet
EndChar
StartChar: uni0284
Encoding: 644 644 549
Width: 272
HStem: -155 21G<19.5 66> 27 17<38 83 139 192> 416 17<38 83 139 192> 665 21G<156 202.5>
VStem: 83 56<-109 27 44 416 433 619>
Fore
249 615 m 0
 250 575 177 578 177 628 c 0
 177 636 179 642 183 649 c 1
 161 658 139 644 139 619 c 2
 139 433 l 1
 192 433 l 1
 192 416 l 1
 139 416 l 1
 139 44 l 1
 192 44 l 1
 192 27 l 1
 139 27 l 1
 139 -60 l 2
 139 -114 93 -155 39 -155 c 0
 0 -155 -26 -137 -27 -105 c 0
 -28 -65 45 -68 45 -118 c 0
 45 -126 43 -132 39 -139 c 1
 61 -148 83 -134 83 -109 c 2
 83 27 l 1
 38 27 l 1
 38 44 l 1
 83 44 l 1
 83 416 l 1
 38 416 l 1
 38 433 l 1
 83 433 l 1
 83 570 l 2
 83 624 129 665 183 665 c 0
 222 665 248 647 249 615 c 0
EndSplineSet
EndChar
StartChar: uni0285
Encoding: 645 645 550
Width: 272
HStem: -155 21G<156 202.5> 665 21G<19.5 66>
VStem: 83 56<-73.6642 582>
Fore
-27 615 m 0
 -26 647 0 665 39 665 c 0
 93 665 139 624 139 570 c 2
 139 -109 l 2
 139 -134 161 -148 183 -139 c 1
 179 -132 177 -126 177 -118 c 0
 177 -68 250 -65 249 -105 c 0
 248 -137 222 -155 183 -155 c 0
 129 -155 83 -114 83 -60 c 2
 83 619 l 2
 83 644 61 658 39 649 c 1
 43 642 45 636 45 628 c 0
 45 578 -28 575 -27 615 c 0
EndSplineSet
EndChar
StartChar: uni0286
Encoding: 646 646 551
Width: 272
HStem: -162 20<39 55> 13 23<65.1335 82.8736> 665 21G<156 202.5>
VStem: -33 31<-88 -65> 83 56<-109 9 35 619> 218 24<-150 -131.815>
Fore
249 615 m 0
 250 575 177 578 177 628 c 0
 177 636 179 642 183 649 c 1
 161 658 139 644 139 619 c 2
 139 33 l 1
 217 12 242 -93 242 -150 c 1
 218 -150 l 1
 218 -93 186 -15 139 9 c 1
 139 -60 l 2
 139 -114 109 -162 39 -162 c 0
 0 -162 -33 -120 -33 -88 c 0
 -33 -44 -24 36 83 36 c 1
 83 570 l 2
 83 624 129 665 183 665 c 0
 222 665 248 647 249 615 c 0
83 -109 m 2
 83 13 l 1
 24 13 -2 -17 -2 -78 c 0
 -2 -104 24 -142 53 -142 c 0
 70 -142 83 -126 83 -109 c 2
EndSplineSet
EndChar
StartChar: uni0287
Encoding: 647 647 552
Width: 265
HStem: 7 43<45 111>
VStem: 111 56<49 402>
Fore
28 399 m 5
 26 421 56 471 112 472 c 4
 157 472 167 428 167 390 c 6
 167 50 l 5
 223 50 l 5
 223 28 l 5
 129 -97 l 5
 111 -83 l 5
 111 7 l 5
 30 7 l 5
 46 50 l 5
 111 50 l 5
 111 398 l 6
 111 415 94 428 77 427 c 4
 57 425 28 396 30 380 c 5
 28 399 l 5
EndSplineSet
EndChar
StartChar: uni0288
Encoding: 648 648 553
Width: 265
HStem: 413 43<140 205>
VStem: 85 55<-37 413> 85 56<-69 -35>
Fore
221 456 m 1
 205 413 l 1
 140 413 l 1
 141 0 141 90 141 -69 c 0
 141 -94 149 -113 171 -125 c 0
 181 -130 187 -132 198 -132 c 1
 190 -128 188 -124 182 -117 c 0
 160 -92 173 -56 207 -57 c 0
 258 -58 267 -148 187 -146 c 0
 132 -144 86 -94 85 -35 c 0
 84 93 84 9 84 413 c 1
 28 413 l 1
 28 435 l 1
 122 560 l 1
 140 546 l 1
 140 456 l 1
 221 456 l 1
EndSplineSet
EndChar
StartChar: uni0289
Encoding: 649 649 554
Width: 524
HStem: -9 33<210 228> 294 29<27 85 141 363 419 480> 445 18<15 64 293 340>
VStem: 85 56<92 294 323 463> 363 56<95 294 323 463>
Fore
480 294 m 1
 419 294 l 1
 419 94 l 1
 477 78 l 1
 477 61 l 1
 363 -9 l 1
 363 65 l 1
 333 28 280 -9 211 -9 c 4
 157 -9 85 -26 85 113 c 2
 85 294 l 1
 27 294 l 1
 27 323 l 1
 85 323 l 1
 85 418 l 2
 85 430 73 445 60 445 c 2
 15 445 l 1
 15 463 l 1
 141 463 l 1
 141 323 l 1
 363 323 l 1
 363 418 l 2
 363 430 351 445 338 445 c 2
 293 445 l 1
 293 463 l 1
 419 463 l 1
 419 323 l 1
 480 323 l 1
 480 294 l 1
363 96 m 1
 363 294 l 1
 141 294 l 1
 141 108 l 2
 141 50 179.902 24 226 24 c 4
 282 24 335 64 363 96 c 1
EndSplineSet
EndChar
StartChar: uni028A
Encoding: 650 650 555
Width: 518
HStem: 2 15<235 248> 430 36<81 154 284 375>
VStem: 23 161<190 205.442 190 416> 154 30<415 466> 284 33<402 430> 380 -63<190 196 193 416> 380 58<177 193>
DStem: 81 466 96 430 55 393 79 390 375 430 386 466 383 386 405 391
Fore
438 190 m 0
 438 61.9961 352 2 235 2 c 0
 116 2 23 61.9961 23 190 c 0
 23 298 154 298 154 416 c 2
 154 430 l 1
 96 430 l 1
 79 390 l 1
 55 393 l 1
 81 466 l 1
 184 466 l 1
 184 403 l 2
 184 295 80 284 80 190 c 0
 80 93 137 15 235 17 c 0
 331 19 380 96.8127 380 193 c 0
 380 290 284 297 284 403 c 2
 284 466 l 1
 386 466 l 1
 405 391 l 1
 383 386 l 1
 375 430 l 1
 317 430 l 1
 317 416 l 2
 317 299 438 306 438 190 c 0
EndSplineSet
EndChar
StartChar: uni028B
Encoding: 651 651 556
Width: 524
HStem: -9 21G<209 294.5> 445 18<15 64 293 340>
Fore
419 119 m 0
 384 49 353 -9 236 -9 c 0
 182 -9 100 -25 83 113 c 0
 70 216 75 333 77 436 c 1
 72 442 67 445 60 445 c 2
 15 445 l 1
 15 463 l 1
 141 463 l 1
 139 397 129 180 141 108 c 0
 151 51 205 21 251 24 c 0
 306 27 341 64 366 121 c 0
 379 150 422 347 355 436 c 0
 350 442 345 445 338 445 c 2
 293 445 l 1
 293 463 l 1
 419 463 l 1
 456 373 462 206 419 119 c 0
EndSplineSet
EndChar
StartChar: uni028C
Encoding: 652 652 557
Width: 465
HStem: 0 18<24 194 307 458>
DStem: 242 385 269 457 353 48 401 42 254 463 242 385 113 69 143 103
Fore
24 18 m 1
 51 18 l 2
 77 18 105 46 113 69 c 2
 254 463 l 1
 269 457 l 1
 401 42 l 2
 404 32 421 18 432 18 c 2
 458 18 l 1
 458 0 l 1
 307 0 l 1
 307 18 l 1
 335 18 l 2
 351 18 358 34 353 48 c 1
 242 385 l 1
 143 103 l 1
 134 76 124 18 170 18 c 2
 194 18 l 1
 194 0 l 1
 24 0 l 1
 24 18 l 1
EndSplineSet
MinimumDistance: x1,15 x11,6 
EndChar
StartChar: uni028D
Encoding: 653 653 558
Width: 629
HStem: 0 18<5 175 289 439 479 638>
DStem: 223 385 340 175 334 48 382 42 236 463 223 385 95 69 125 103 423 376 449 457 526 48 582 42 432 463 423 376 330 206 340 175
Fore
5 18 m 1
 32 18 l 2
 59 18 86 45 95 69 c 1
 236 463 l 1
 250 457 l 1
 250 457 330 205 330 206 c 2
 432 463 l 1
 449 457 l 1
 582 42 l 2
 586 30 599 18 613 18 c 2
 638 18 l 1
 638 0 l 1
 479 0 l 1
 479 18 l 1
 508 18 l 2
 525 18 530 34 526 48 c 1
 423 376 l 1
 340 175 l 1
 382 42 l 2
 385 32 403 18 414 18 c 2
 439 18 l 1
 439 0 l 1
 289 0 l 1
 289 18 l 1
 316 18 l 2
 332 18 339 34 334 48 c 1
 223 385 l 1
 125 103 l 1
 115 76 104 18 152 18 c 2
 175 18 l 1
 175 0 l 1
 5 0 l 1
 5 18 l 1
EndSplineSet
MinimumDistance: x1,28 x14,9 x24,19 
EndChar
StartChar: uni028E
Encoding: 654 654 559
Width: 440
HStem: -3 18<6 176 280 439>
DStem: 236 338 273 409 326 45 382 39 298 513 309 496 88 70 269 411 298 513 236 338 88 70 126 100
Fore
6 15 m 1
 25 15 l 2
 50 15 78 50 88 70 c 1
 298 513 l 2
 309 536 324 548 349 551 c 0
 421 560 420 457 365 457 c 0
 325 457 314 497 331 517 c 0
 336 523 339 525 346 528 c 1
 325 528 317 514 309 496 c 2
 269 411 l 1
 273 409 l 1
 382 39 l 2
 385 28 402 15 414 15 c 2
 439 15 l 1
 439 -3 l 1
 280 -3 l 1
 280 15 l 1
 308 15 l 2
 325 15 330 31 326 45 c 2
 236 338 l 1
 126 100 l 2
 114 74 110 15 153 15 c 2
 176 15 l 1
 176 -3 l 1
 6 -3 l 1
 6 15 l 1
EndSplineSet
MinimumDistance: x1,21 x17,12 
EndChar
StartChar: uni028F
Encoding: 655 655 560
Width: 496
HStem: 0 17<122 301> 447 16<27 35 27 178 292 316 292 446>
VStem: 184 56<43 234>
DStem: 80 414 140 411 184 234 232 250 304 355 334 370 232 250 240 238
Fore
446 445 m 1
 421 445 l 2
 393 445 349 390 334 370 c 2
 240 238 l 1
 240 43 l 2
 240 30 251 17 264 17 c 2
 301 17 l 1
 301 0 l 1
 122 0 l 1
 122 17 l 1
 159 17 l 2
 172 17 184 30 184 43 c 2
 184 234 l 1
 80 414 l 2
 71 429 52 447 33 447 c 2
 27 447 l 1
 27 463 l 1
 178 463 l 1
 178 445 l 1
 157 445 l 2
 132 445 127 433 140 411 c 2
 232 250 l 1
 304 355 l 2
 316 373 365 445 310 445 c 2
 292 445 l 1
 292 463 l 1
 446 463 l 1
 446 445 l 1
EndSplineSet
EndChar
StartChar: uni0290
Encoding: 656 656 561
Width: 404
HStem: -112 21<375 389> -2 20<91 281> 445 18<73 281>
VStem: 281 24<-11 -2>
DStem: 282 445 364 463 12 -2 91 18
Fore
455 -54 m 0
 454 -86 428 -112 389 -112 c 0
 335 -112 281 -51 281 -2 c 5
 12 -2 l 1
 282 445 l 1
 161 445 l 2
 108 445 72 367 66 321 c 1
 50 331 l 1
 73 463 l 1
 364 463 l 1
 91 18 l 1
 203 18 l 2
 257 18 311 84 328 132 c 1
 343 125 l 1
 305 -2 l 1
 305 -9 l 2
 305 -44 349 -91 375 -91 c 0
 381 -91 384 -90 389 -88 c 1
 385 -81 383 -75 383 -67 c 0
 383 -17 456 -14 455 -54 c 0
EndSplineSet
EndChar
StartChar: uni0291
Encoding: 657 657 562
Width: 404
HStem: -2 20<91 126 160 226> 98 30<244 253> 445 18<73 282>
VStem: 118 28<-49 -46> 301 33<62 73>
DStem: 282 445 364 463 12 -2 91 18
Fore
364 463 m 1
 91 18 l 1
 132 18 l 1
 151 71 188 128 245 128 c 0
 285 128 334 113 334 71 c 0
 334 18 260 -2 226 -2 c 2
 154 -2 l 1
 149 -19 146 -35 146 -48 c 1
 118 -49 l 1
 118 -37 121 -20 126 -2 c 1
 12 -2 l 1
 282 445 l 1
 161 445 l 2
 108 445 72 367 66 321 c 1
 50 331 l 1
 73 463 l 1
 364 463 l 1
301 66 m 0
 301 99 267 98 244 98 c 0
 205 99 176 59 160 18 c 1
 203 18 l 2
 243 18 301 26 301 66 c 0
EndSplineSet
EndChar
StartChar: uni0292
Encoding: 658 658 563
Width: 465
HStem: 446 18<122 331>
DStem: 331 446 413 464 176 192 265 217
Fore
85 -116 m 0
 90 -39 187 -42 184 -107 c 0
 183 -138 166 -155 135 -150 c 1
 140 -172 169 -192 191 -192 c 0
 243 -192 349 -128 356 -24 c 0
 361 57 288 163 199 163 c 2
 176 163 l 1
 176 192 l 1
 331 446 l 1
 210 446 l 2
 157 446 121 368 115 322 c 1
 99 332 l 1
 122 464 l 1
 413 464 l 1
 265 217 l 1
 507 144 460 -212 203 -220 c 0
 142 -222 81 -177 85 -116 c 0
EndSplineSet
EndChar
StartChar: uni0293
Encoding: 659 659 564
Width: 465
HStem: -32 32<208 230> 446 18<122 331>
DStem: 331 446 413 464 176 192 265 217
Fore
482 -107 m 1
 465 -132 l 1
 454 -119 432 -103 404 -88 c 1
 372 -160 304 -217 203 -220 c 0
 142 -222 81 -177 85 -116 c 0
 90 -39 156 0 223 0 c 0
 266 0 313 -12 356 -30 c 1
 363 55 292 163 199 163 c 2
 176 163 l 1
 176 192 l 1
 331 446 l 1
 210 446 l 2
 157 446 121 368 115 322 c 1
 99 332 l 1
 122 464 l 1
 413 464 l 1
 265 217 l 1
 399 176 445 49 414 -58 c 1
 445 -75 469 -93 482 -107 c 1
349 -61 m 1
 307 -44 261 -32 220 -32 c 0
 169 -32 124 -75 124 -125 c 0
 124 -161 169 -189 191 -189 c 0
 236 -189 323 -142 349 -61 c 1
EndSplineSet
EndChar
StartChar: uni0294
Encoding: 660 660 565
Width: 441
HStem: -11 21G<83 131> 203 68<167 186> 633 32<168 188>
VStem: 83 48<-11 221> 351 56<435 454>
Fore
407 437 m 0
 407 294 314 203 186 203 c 0
 154.984 203 131 221 131 221 c 1
 131 -11 l 1
 83 -11 l 1
 83 293 l 1
 113 276 133 271 167 271 c 0
 244 271 351 329 351 444 c 0
 351 539 272 633 181 633 c 0
 149.855 633 126 620 106 595 c 1
 131 595 154 580 157 553 c 0
 159 529 146 505 123 502 c 0
 90 498 57 517 57 562 c 0
 56 618 121.744 665 184 665 c 4
 306 665 407 550 407 437 c 0
EndSplineSet
EndChar
StartChar: uni0295
Encoding: 661 661 566
Width: 441
HStem: -11 21G<333 381> 203 68<278 297> 633 32<276 285>
VStem: 57 56<435 454> 333 48<-11 293>
Fore
57 437 m 0
 57 550 164 665 280 665 c 0
 342.253 665 408 618 407 562 c 0
 407 517 374 498 341 502 c 0
 318 505 305 529 307 553 c 0
 310 580 333 595 358 595 c 1
 338 620 314.145 633 283 633 c 0
 198 633 113 539 113 444 c 0
 113 329 218 271 297 271 c 4
 331 271 351 276 381 293 c 1
 381 -11 l 1
 333 -11 l 1
 333 221 l 1
 333 221 309.016 203 278 203 c 4
 152 203 57 294 57 437 c 0
EndSplineSet
EndChar
StartChar: uni0296
Encoding: 662 662 567
Width: 441
HStem: -10 32<168 188> 384 68<167 186> 646 20G<83 131>
VStem: 83 48<362 666> 351 56<209 231>
Fore
407 218 m 0
 407 105 304 -10 184 -10 c 4
 121.71 -10 56 37 57 93 c 0
 57 138 90 157 123 153 c 0
 146 150 159 126 157 102 c 0
 154 75 131 60 106 60 c 1
 126 36 149.855 22 181 22 c 4
 272 22 351 116 351 211 c 0
 351 326 246 384 167 384 c 0
 133 384 113 379 83 362 c 1
 83 666 l 1
 131 666 l 1
 131 434 l 1
 131 434 154.984 452 186 452 c 0
 318 452 407 361 407 218 c 0
EndSplineSet
EndChar
StartChar: uni0297
Encoding: 663 663 568
Width: 424
HStem: -209 62<211 226> 562 20<230 246>
VStem: 22 68<7 352>
Fore
368 -90 m 1
 341 -151 283 -209 213 -209 c 0
 87 -209 22 -104 22 7 c 0
 22 13.0828 21 330 21 336 c 0
 21 462 119 582 230 582 c 0
 366 582 395 425 321 420 c 0
 282 418 265 471 274 510 c 0
 277 523 281 530 289 540 c 1
 268 561 259.017 562 230 562 c 0
 140 562 90 472 90 386 c 0
 90 375 90 53 90 42 c 0
 90 -52 128 -147 224 -147 c 0
 292.066 -147 338 -98 368 -43 c 1
 368 -90 l 1
EndSplineSet
EndChar
StartChar: uni0298
Encoding: 664 664 569
Width: 565
HStem: -1 46<259 277> 416 46<267 277>
VStem: 36 46<230 240> 453 46<221 240>
Fore
499 231 m 0
 499 103 395 -1 268 -1 c 0
 140 -1 36 103 36 230 c 0
 36 358 140 462 267 462 c 0
 395 462 499 358 499 231 c 0
453 230 m 0
 453 333 370 416 267 416 c 0
 165 416 82 333 82 230 c 0
 82 128 165 45 267 45 c 0
 370 45 453 128 453 230 c 0
296 270 m 0
 356 230 296 140 236 180 c 0
 176 220 236 311 296 270 c 0
EndSplineSet
EndChar
StartChar: uni0299
Encoding: 665 665 570
Width: 452
HStem: 0 17<37 237> 0 21<179 237> 253 19<156 247> 442 21<37 261> 446 17<37 76>
VStem: 98 58<43 253 43 417> 333 46<142 154>
Fore
303 268 m 1
 363 254 377 210 379 154 c 0
 381 72 318 0 237 0 c 2
 37 0 l 1
 37 17 l 1
 74 17 l 2
 86 17 98 31 98 43 c 2
 98 420 l 2
 98 432 86 446 74 446 c 2
 37 446 l 1
 37 463 l 1
 261 463 l 2
 321 463 362 441 362 375 c 0
 362 329 339 289 303 268 c 1
156 253 m 1
 156 56 l 2
 156 39 161 21 181 21 c 2
 222 21 l 2
 287 21 334 95 333 144 c 0
 331 195 300 253 247 253 c 2
 156 253 l 1
156 272 m 1
 225 272 l 2
 279 272 321 324 319 375 c 0
 318 415 287 442 248 442 c 2
 181 442 l 2
 164 442 156 422 156 407 c 2
 156 272 l 1
EndSplineSet
EndChar
StartChar: uni029A
Encoding: 666 666 571
Width: 528
Flags: W
HStem: 204 45<125 294>
VStem: 37 25<127 142 314 328> 400 28<207 234>
Fore
37 140 m 8
 37 181.324 44 214 84 232 c 1
 44 251 37 277.498 37 316 c 16
 37 428 117.897 466.543 218 466.543 c 0
 348 466.543 428 332.654 428 225 c 0
 428 115.04 336.261 -8.27539 208 -8.27506 c 16
 96 -8.27506 37 46 37 140 c 8
62 129 m 16
 62 60 132 41.1344 206 41.1344 c 8
 313.744 41.1344 400 115.516 400 228 c 0
 400 339.31 326.98 415.893 224 415.893 c 16
 152 415.893 62 394 62 326 c 8
 62 287.126 82 253 125 252 c 2
 286 249 l 2
 352 248 351 207 286 206 c 2
 125 204 l 2
 82 203 62 168.18 62 129 c 16
EndSplineSet
EndChar
StartChar: uni029B
Encoding: 667 667 572
Width: 482
HStem: 234 16<304 327 304 456>
VStem: 39 54<215 249> 348 57<59 205>
Fore
559.5 437 m 0
 559.5 396.987 487.5 400 487.5 450 c 0
 487.5 458 489.5 464 493.5 471 c 1
 487 483.5 465 488.5 451 488.5 c 0
 427.5 488.5 400.5 463.5 401.5 444 c 1
 410 305 l 1
 397 305 l 1
 393 317 390 325 384 337 c 0
 351 402 302 450 229 444 c 0
 143 437 92 319 93 223 c 0
 94 123 143 7 250 10 c 0
 295 11 324 23 348 60 c 1
 348 203 l 2
 348 218 343 234 325 234 c 2
 304 234 l 1
 304 250 l 1
 457 250 l 1
 457 234 l 1
 426 234 l 2
 410 234 405 216 405 203 c 2
 405 44 l 1
 378 54 l 1
 345 12 291 -6 239 -8 c 0
 121 -12 39 112 39 229 c 0
 39 344 128 463 233 461 c 0
 268 461 295 456 325 437 c 0
 336 430 343 423 351 415 c 1
 381 457 l 2
 383 460 409 501.749 457 501.749 c 0
 503.5 501.749 559.5 486 559.5 437 c 0
EndSplineSet
Back
556 443 m 0
 557 403 484 406 484 456 c 0
 484 464 486 470 490 477 c 1
 483 486.5 461 488 447 488 c 0
 430 488 400.149 473.168 401 457 c 5
 410 305 l 1
 397 305 l 1
 393 317 390 325 384 337 c 0
 351 402 302 450 229 444 c 0
 143 437 92 319 93 223 c 0
 94 123 143 7 250 10 c 0
 295 11 324 23 348 60 c 1
 348 203 l 2
 348 218 343 234 325 234 c 2
 304 234 l 1
 304 250 l 1
 457 250 l 1
 457 234 l 1
 426 234 l 2
 410 234 405 216 405 203 c 2
 405 44 l 1
 378 54 l 1
 345 12 291 -6 239 -8 c 0
 121 -12 39 112 39 229 c 0
 39 344 128 463 233 461 c 0
 268 461 295 456 325 437 c 0
 336 430 343 423 351 415 c 1
 381 457 l 2
 383 460 409 501.749 457 501.749 c 0
 496 501.749 555 475 556 443 c 0
EndSplineSet
EndChar
StartChar: uni029C
Encoding: 668 668 573
Width: 562
HStem: 0 17<36 216 315 496> 235 15<155 377> 446 17<36 75 36 216 315 357 315 496>
VStem: 97 58<43 235 43 422> 377 57<43 235 250 422>
Fore
377 250 m 1
 377 420 l 2
 377 432 365 446 352 446 c 2
 315 446 l 1
 315 463 l 1
 496 463 l 1
 496 446 l 1
 459 446 l 2
 445 446 434 433 434 420 c 2
 434 43 l 2
 434 30 445 17 459 17 c 2
 496 17 l 1
 496 0 l 1
 315 0 l 1
 315 17 l 1
 352 17 l 2
 365 17 377 31 377 43 c 2
 377 235 l 1
 155 235 l 1
 155 43 l 2
 155 30 166 17 179 17 c 2
 216 17 l 1
 216 0 l 1
 36 0 l 1
 36 17 l 1
 73 17 l 2
 86 17 97 31 97 43 c 2
 97 420 l 2
 97 432 86 446 73 446 c 2
 36 446 l 1
 36 463 l 1
 216 463 l 1
 216 446 l 1
 179 446 l 2
 166 446 155 433 155 420 c 2
 155 250 l 1
 377 250 l 1
EndSplineSet
EndChar
StartChar: uni029D
Encoding: 669 669 574
Width: 287
HStem: -149 20<49 71>
VStem: -46 27<-80.4517 -66> 117 56<-69 -11 23 474>
Fore
177 583 m 0
 177 533 102 533 102 583 c 0
 102 634 177 634 177 583 c 0
260 -9 m 1
 247 -32 l 1
 247 -32 213 -20 173 -11 c 1
 173 -35 l 2
 173 -94 126 -149 71 -149 c 0
 -9 -149 -46 -126 -46 -69 c 0
 -46 14 53 29 117 23 c 1
 117 397 l 1
 77 410 l 1
 77 417 l 1
 173 474 l 1
 173 14 l 1
 219 4 260 -9 260 -9 c 1
117 -69 m 2
 117 -1 l 1
 68 4 -19 -3 -19 -69 c 0
 -19 -111 18 -129 60 -129 c 0
 93 -129 117 -106 117 -69 c 2
EndSplineSet
EndChar
StartChar: uni029E
Encoding: 670 670 575
Width: 526
HStem: 0 16<38 46.1667 231 263> 454 18<28 76 28 233 300 349 300 496>
VStem: 370 56<-198 434>
DStem: 107 434 184 434 268 175 315 218 268 175 370 255 167 83 240 132 370 268 370 255 315 218 240 132
Fore
28 472 m 1
 233 472 l 1
 233 454 l 1
 188 454 l 2
 173 454 180 441 184 434 c 2
 315 218 l 1
 370 268 l 1
 370 427 l 2
 370 440 359 454 345 454 c 2
 300 454 l 1
 300 472 l 1
 496 472 l 1
 496 454 l 1
 452 454 l 2
 439 454 426 440 426 427 c 2
 426 -100 l 1
 481 -115 l 1
 481 -131 l 1
 370 -198 l 1
 370 255 l 1
 240 132 l 2
 205 99 179 16 234 16 c 2
 263 16 l 1
 263 0 l 1
 38 0 l 1
 38 16 l 1
 87 22 131 51 167 83 c 2
 268 175 l 1
 107 434 l 1
 103 444 85 454 74 454 c 2
 28 454 l 1
 28 472 l 1
EndSplineSet
MinimumDistance: x29,3 
EndChar
StartChar: uni029F
Encoding: 671 671 576
Width: 489
HStem: 0 16<37 375> 0 24<179 375> 445 17<37 76 37 218>
VStem: 100 56<51 422>
Fore
37 0 m 1
 37 16 l 1
 74 16 l 2
 94 16 100 37 100 53 c 2
 100 420 l 2
 100 432 87 445 74 445 c 2
 37 445 l 1
 37 462 l 1
 218 462 l 1
 218 445 l 1
 181 445 l 2
 168 445 156 432 156 420 c 2
 156 59 l 2
 156 43 165 24 183 24 c 2
 268 24 l 2
 305 24 328 37 354 62 c 0
 378 86 391 102 400 133 c 1
 410 133 l 1
 375 0 l 1
 37 0 l 1
EndSplineSet
EndChar
StartChar: uni02A0
Encoding: 672 672 577
Width: 440
HStem: -165 18<402 449> 454 18<206 232>
VStem: 7 73<228 258.755> 323 56<-165 21 115 348> 328 51<429 442.965> 477 72<457 470>
Fore
549 457 m 0
 549 416.987 477 420 477 470 c 0
 477 478 479 484 483 491 c 1
 475 503 454 511.206 430 511.206 c 4
 409.806 511.206 379 487.433 379 466 c 2
 379 -120 l 2
 379 -133 390 -147 404 -147 c 2
 449 -147 l 1
 449 -165 l 1
 323 -165 l 1
 323 -165 323 -61 323 21 c 1
 291 1 248 -8 206 -9 c 0
 85 -13 11 89 7 228 c 0
 4 350 83 471 206 472 c 0
 254 473 296 458 328 429 c 1
 328 492 386 525 440 525 c 0
 492 525 549 497 549 457 c 0
323 115 m 0
 323 116 323 313 323 313 c 2
 323 428 300 454 206 454 c 0
 108 453 82 336 80 239 c 0
 77 135 105 -1 208 8 c 0
 282 14 313 43 323 115 c 0
EndSplineSet
EndChar
StartChar: uni02A1
Encoding: 673 673 578
Width: 441
HStem: -11 21G<83 131> 116 48<3 83 131 211> 203 68<167 186> 633 32<168 196>
VStem: 83 48<-11 116 164 221> 351 56<435 454>
Fore
407 437 m 0
 407 294 318 203 186 203 c 0
 154.984 203 131 221 131 221 c 1
 131 164 l 1
 211 164 l 1
 211 116 l 1
 131 116 l 1
 131 -11 l 1
 83 -11 l 1
 83 116 l 1
 3 116 l 1
 3 164 l 1
 83 164 l 1
 83 293 l 1
 113 276 133 271 167 271 c 0
 246 271 351 329 351 444 c 0
 351 539 284 633 181 633 c 0
 149.855 633 126 620 106 595 c 1
 131 595 154 580 157 553 c 0
 159 529 146 505 123 502 c 0
 90 498 57 517 57 562 c 0
 56 618 121.738 665 184 665 c 4
 318 665 407 550 407 437 c 0
EndSplineSet
EndChar
StartChar: uni02A2
Encoding: 674 674 579
Width: 441
HStem: 116 48<218 298 345 426> 203 68<242 262> 633 32<241 250>
VStem: 22 56<435 454> 298 48<-11 116 164 293>
Fore
22 437 m 0
 22 550 120 665 245 665 c 4
 307.258 665 373 618 372 562 c 0
 372 517 339 498 306 502 c 0
 283 505 270 529 272 553 c 0
 275 580 298 595 323 595 c 1
 303 620 279.145 633 248 633 c 0
 156 633 78 539 78 444 c 0
 78 329 178 271 262 271 c 0
 296 271 316 276 346 293 c 1
 346 164 l 1
 426 164 l 1
 426 116 l 1
 346 116 l 1
 346 -11 l 1
 298 -10 l 1
 298 116 l 1
 218 116 l 1
 218 164 l 1
 298 164 l 1
 298 221 l 1
 298 221 274.016 203 243 203 c 0
 118 203 22 294 22 437 c 0
EndSplineSet
Back
346 164 m 5
 426 164 l 5
 426 116 l 5
 346 116 l 5
 346 -11 l 5
 298 -11 l 5
 298 116 l 5
 218 116 l 5
 218 164 l 5
 298 164 l 5
EndSplineSet
EndChar
StartChar: uni02A3
Encoding: 675 675 580
Width: 775
HStem: -2 20<422 636> 445 18<408 612> 454 18<234 260>
VStem: 35 73<228 258.755> 352 56<120 362 432 680>
DStem: 613 445 695 463 408 105.611 422 18
Fore
352 121 m 1
 352 298 l 2
 352 425 331 454 234 454 c 0
 136 453 110 336 108 239 c 0
 105 135 133 -1 236 8 c 0
 312 14 342 45 352 121 c 1
408 463 m 1
 695 463 l 1
 422 18 l 1
 534 18 l 2
 588 18 643 84 659 132 c 1
 674 125 l 1
 636 -2 l 1
 352 -2 l 1
 352 21 l 1
 319 1 276 -8 234 -9 c 0
 113 -13 39 89 35 228 c 0
 32 350 111 471 234 472 c 0
 281 473 321 459 352 432 c 1
 352 595 l 1
 304 605 l 1
 307 621 l 1
 408 680 l 1
 408 463 l 1
408 362.663 m 1
 408 105.611 l 1
 613 445 l 1
 492 445 l 2
 453.172 445 423.469 403.137 408 362.663 c 1
EndSplineSet
EndChar
StartChar: uni02A4
Encoding: 676 676 581
Width: 775
HStem: 446 18<407 613> 454 18<233 259>
VStem: 34 73<228 258.755> 351 56<120 360 432 680>
DStem: 613 446 695 464 458 192 547 217
Fore
351 121 m 1
 351 298 l 2
 351 425 330 454 233 454 c 0
 135 453 109 336 107 239 c 0
 104 135 132 -1 235 8 c 0
 311 14 341 45 351 121 c 1
407 464 m 1
 695 464 l 1
 547 217 l 1
 789 144 742 -212 485 -220 c 0
 424 -222 363 -177 367 -116 c 0
 372 -39 469 -42 466 -107 c 0
 465 -138 449 -156 417 -150 c 1
 422 -172 451 -192 473 -192 c 0
 525 -192 631 -128 638 -24 c 0
 643 57 570 163 481 163 c 2
 458 163 l 1
 458 192 l 1
 613 446 l 1
 492 446 l 2
 452.318 446 422.166 402.276 407 360.994 c 1
 407 76 l 1
 430 66 l 1
 430 45 l 1
 351 -9 l 1
 351 21 l 1
 318 1 275 -8 233 -9 c 0
 112 -13 38 89 34 228 c 0
 31 350 110 471 233 472 c 0
 280 473 320 459 351 432 c 1
 351 595 l 1
 303 605 l 1
 306 621 l 1
 407 680 l 1
 407 464 l 1
EndSplineSet
EndChar
StartChar: uni02A5
Encoding: 677 677 582
Width: 775
HStem: -2 20<425 458.968 494 560> 98 30<578 595> 445 18<407 616> 454 18<233 259>
VStem: 34 73<228 258.755> 351 56<120 351 432 680> 452 28<-49 -32.5116> 635 33<62 73>
DStem: 616 445 698 463 407 98.9889 425 18
Fore
351 121 m 1
 351 298 l 2
 351 425 330 454 233 454 c 0
 135 453 109 336 107 239 c 0
 104 135 132 -1 235 8 c 0
 311 14 341 45 351 121 c 1
635 66 m 0
 635 99 601 98 578 98 c 0
 539 99 510 59 494 18 c 1
 537 18 l 2
 577 18 635 26 635 66 c 0
407 351.26 m 1
 407 98.9889 l 1
 616 445 l 1
 495 445 l 2
 452.503 445 420.935 394.851 407 351.26 c 1
351 21 m 1
 318 1 275 -8 233 -9 c 0
 112 -13 38 89 34 228 c 0
 31 350 110 471 233 472 c 0
 280 473 320 459 351 432 c 1
 351 595 l 1
 303 605 l 1
 306 621 l 1
 407 680 l 1
 407 463 l 1
 698 463 l 1
 425 18 l 1
 466 18 l 1
 485 71 522 128 579 128 c 0
 619 128 668 113 668 71 c 0
 668 18 594 -2 560 -2 c 2
 487 -2 l 1
 482 -19 480 -35 480 -48 c 1
 452 -49 l 1
 452 -37 454 -20 459 -2 c 1
 423.007 -1.99406 386.979 -2.00901 351 -2 c 1
 351 21 l 1
EndSplineSet
EndChar
StartChar: uni02A6
Encoding: 678 678 583
Width: 514
HStem: -9 19<171 365> 413 43<140 205>
VStem: 84 56<54 413> 198 51<347 383> 437 49<100 119>
Fore
486 119 m 0
 486 43 422 -9 347 -9 c 0
 289 -9 193 -9 139 -9 c 0
 94 -9 84 35 84 73 c 2
 84 413 l 1
 28 413 l 1
 28 435 l 1
 122 560 l 1
 140 546 l 1
 140 456 l 1
 221 456 l 1
 205 413 l 1
 140 413 l 1
 140 39 l 2
 140 22 157 10 174 10 c 0
 254 10 258 10 354 10 c 0
 402 10 438 52 437 100 c 0
 435 212 198 194 198 347 c 4
 198 420 263 467 340 472 c 0
 381 475 425 457 462 440 c 1
 462 330 l 1
 460 330 l 1
 450 386 411 452 347 452 c 0
 300 452 249 429.098 249 383 c 4
 249 258 486 278 486 119 c 0
EndSplineSet
EndChar
StartChar: uni02A7
Encoding: 679 679 584
Width: 345
HStem: -175 20G<146.5 193> 413 43<140 210> 645 20G<283 329.5>
VStem: 84 56<57 413> 210 56<-109 22 57 619>
Fore
210 58.8325 m 1
 210 413 l 1
 140 413 l 1
 140 65 l 2
 140 48 157 35 174 36 c 0
 185.569 37.1569 200.15 47.3486 210 58.8325 c 1
210 456 m 1
 210 570 l 2
 210 624 256 665 310 665 c 0
 349 665 375 647 376 615 c 0
 377 575 304 578 304 628 c 0
 304 636 306 642 310 649 c 1
 288 658 266 644 266 619 c 2
 266 -60 l 2
 266 -114 220 -155 166 -155 c 0
 127 -155 101 -137 100 -105 c 0
 99 -65 172 -68 172 -118 c 0
 172 -126 170 -132 166 -139 c 1
 188 -148 210 -134 210 -109 c 2
 210 28.4924 l 1
 196.339 9.46538 172.253 -8.40619 139 -9 c 0
 94 -9 84 35 84 73 c 2
 84 413 l 1
 28 413 l 1
 28 435 l 1
 122 560 l 1
 140 546 l 1
 140 456 l 1
 210 456 l 1
EndSplineSet
EndChar
StartChar: uni02A8
Encoding: 680 680 585
Width: 571
HStem: -9 62<360 381> 190 38<419 429> 413 43<140 205> 452 20<379 381>
VStem: 84 56<57 413> 170 69<226 276> 224 20<-56 -36>
Fore
419 190 m 0
 373 190 321 150 286 91 c 1
 306 68 335 53 373 53 c 0
 450.09 53 485.807 97.6526 485.807 136 c 0
 485.807 165 462.325 190 419 190 c 0
215.478 66.1201 m 1
 185.437 109.863 170 167.597 170 226 c 0
 170 348 268 472 379 472 c 0
 504 472 544 315 470 310 c 0
 431 308 414 361 423 400 c 0
 426 413 430 420 438 430 c 1
 417 451 409.017 452 379 452 c 0
 288 452 239 360 239 276 c 0
 239 216.966 245 155 271 112 c 1
 308 179 364 228 419 228 c 0
 482.704 228 516.483 191.071 516.483 138 c 16
 516.483 53 447.299 -9 362 -9 c 16
 320 -9 284 3 256 24 c 1
 249 -2 244 -28 244 -56 c 0
 244 -64 224 -79 224 -56 c 0
 224 -25 230 7 239 38 c 1
 233.149 43.7241 227.685 49.8688 222.605 56.3828 c 1
 218.535 32.2063 189.224 -8.10315 139 -9 c 0
 94 -9 84 35 84 73 c 2
 84 413 l 1
 28 413 l 1
 28 435 l 1
 122 560 l 1
 140 546 l 1
 140 456 l 1
 221 456 l 1
 205 413 l 1
 140 413 l 1
 140 65 l 2
 140 48 157 35 174 36 c 0
 187.984 37.3984 206.367 51.9956 215.478 66.1201 c 1
EndSplineSet
EndChar
